<?xml version="1.0" standalone="no"?>
<!DOCTYPE svg PUBLIC "-//W3C//DTD SVG 1.1//EN" "http://www.w3.org/Graphics/SVG/1.1/DTD/svg11.dtd">
<svg xmlns="http://www.w3.org/2000/svg">
<defs >
<font id="Comfortaa" horiz-adv-x="642" ><font-face
    font-family="Comfortaa"
    units-per-em="1000"
    panose-1="0 0 5 0 0 0 0 0 0 0"
    ascent="881"
    descent="-234"
    alphabetic="0" />
<glyph unicode=" " glyph-name="space" horiz-adv-x="293" />
<glyph unicode="!" glyph-name="exclam" horiz-adv-x="266" d="M69 759T80 770T108 782Q125 782 136 771T147 742V216Q147 200 135 189T108 177Q92 177 81 188T69 216V742Q69 759 80 770ZM132 117T149 100T166 58Q166 34 149 17T108 0Q84 0 67 16T50 58Q50 83
67 100T108 117Q132 117 149 100Z" />
<glyph unicode="&quot;" glyph-name="quotedbl" horiz-adv-x="273" d="M161 759T172 770T200 782Q217 782 228 771T239 742L229 595Q229 583 221 575T200 567Q189 567 181 575T172 595L161 742Q161 759 172 770ZM41 759T52 770T80 781Q96 781 107 770T118 742L108
595Q108 583 100 575T80 567Q67 567 59 575T50 595L41 742Q41 759 52 770Z" />
<glyph unicode="#" glyph-name="numbersign" horiz-adv-x="724" d="M661 546T670 538T679 517Q679 500 667 491T633 482H554L524 310H605Q621 310 629 302T638 280Q638 266 626 256T592 246H510L474 39Q470 21 459 11T429 0Q415 0 407 7T399 29Q399 35 400 39L435
246H241L205 39Q202 22 190 11T161 0Q147 0 139 8T130 30L131 39L167 246H83Q68 246 60 253T51 273Q51 291 63 300T94 310H181L210 482H127Q91 482 91 512Q91 528 103 537T136 546H224L260 747Q263 765 275 776T304 787Q318 787 326 779T335 756L334 748L298 546H493L529
747Q531 764 543 775T573 787Q588 787 595 779T603 758Q603 751 602 748L567 546H645Q661 546 670 538ZM479 482H284L255 310H449L479 482Z" />
<glyph unicode="$" glyph-name="dollar" horiz-adv-x="598" d="M554 113T493 57T335 -9V-71Q335 -84 328 -91T310 -99Q298 -99 291 -92T284 -71V-10Q202 -5 139 32T49 133Q46 141 46 148Q46 172 72 180Q75 181 81 181Q105 181 116 157Q134 116 179 91T284 63V370Q186
387 130 443T73 582Q73 664 131 715T284 774V822Q284 835 291 842T310 850Q321 850 328 843T335 822V774Q403 769 454 736T533 652Q540 641 540 628Q540 609 523 600Q516 596 507 596Q487 596 474 615Q429 695 335 703V428Q442 409 498 352T554 206Q554 113 493
57ZM148 470T284 437V703Q220 698 184 667T148 580Q148 470 284 437ZM477 263T442 304T335 361V64Q400 72 438 109T477 206Q477 263 442 304Z" />
<glyph unicode="%" glyph-name="percent" horiz-adv-x="859" d="M284 782T329 756T400 684T427 586Q427 533 401 489T330 418T232 391Q179 391 134 417T63 488T36 586Q36 639 62 684T134 755T232 782Q284 782 329 756ZM693 782T710 782Q727 782 738 771T749 742Q749
729 742 719L189 13Q176 0 159 0Q143 0 132 11T121 39Q121 53 130 65L679 766Q693 782 710 782ZM200 706T173 690T129 646T112 586Q112 554 128 527T172 484T232 467Q264 467 291 483T335 527T351 586Q351 618 335 645T291 689T232 706Q200 706 173 690ZM690 390T735
364T806 293T833 195Q833 142 807 97T735 26T637 0Q584 0 540 26T469 97T442 195Q442 248 468 292T539 363T637 390Q690 390 735 364ZM588 314T553 279T518 195Q518 146 553 111T637 76Q669 76 696 92T740 136T757 195Q757 226 741 253T697 297T637 314Q588 314
553 279Z" />
<glyph unicode="&amp;" glyph-name="ampersand" horiz-adv-x="720" d="M680 58T680 46Q680 36 669 25Q657 13 643 13Q630 13 618 25L507 136L487 115Q431 55 376 24T256 -7Q159 -7 102 44T45 179Q45 241 83 295T206 415L218 425L164 479Q95 548 95 630Q95 675
118 711T180 769T269 790Q319 790 359 768T423 708T446 623Q445 568 415 524T324 431L314 423L506 231L591 321Q605 336 617 336Q627 336 638 326Q651 315 651 301Q651 290 639 276L553 185L665 73Q680 58 680 46ZM271 466L290 481Q376 549 376 624Q376 667 348
696T269 726Q225 726 195 698T165 631Q165 600 177 574T216 521L271 466ZM460 183L261 382L241 367Q177 316 148 271T119 179Q119 125 155 93T258 60Q307 60 349 84T439 160L460 183Z" />
<glyph unicode="&apos;" glyph-name="quotesingle" horiz-adv-x="156" d="M41 759T52 770T80 781Q96 781 107 770T119 743L109 596Q109 583 101 575T80 567Q68 567 60 575T51 596L41 743Q41 759 52 770Z" />
<glyph unicode="(" glyph-name="parenleft" horiz-adv-x="256" d="M223 782T234 771T245 744Q245 733 239 722Q129 501 129 274Q129 50 240 -175Q246 -187 246 -196Q246 -212 235 -223T207 -234Q194 -234 186 -228T170 -208Q53 32 53 275Q53 519 170 756Q182 782
207 782Q223 782 234 771Z" />
<glyph unicode=")" glyph-name="parenright" horiz-adv-x="256" d="M33 782T22 771T11 744Q11 733 17 722Q127 501 127 274Q127 50 16 -175Q10 -187 10 -196Q10 -212 21 -223T49 -234Q62 -234 70 -228T86 -208Q203 32 203 275Q203 519 86 756Q74 782 49 782Q33
782 22 771Z" />
<glyph unicode="*" glyph-name="asterisk" horiz-adv-x="381" d="M155 736T155 743Q155 760 166 771T194 782Q211 782 222 771T233 743Q233 738 231 730L213 652L286 697Q295 703 305 703Q320 703 332 692T344 664Q344 647 334 637T306 625L225 618L288 566Q306
551 306 533Q306 517 295 506T263 494Q242 495 230 520L195 598L159 521Q150 494 121 494Q104 494 94 505T83 533Q83 551 97 561L165 618L84 625Q66 627 56 638T45 664Q46 681 57 692T84 703Q96 703 109 694L175 653L158 730Q155 736 155 743Z" />
<glyph unicode="+" glyph-name="plus" horiz-adv-x="547" d="M234 603T245 614T272 625Q289 625 300 614T311 587V430H468Q484 430 495 419T507 391Q507 375 496 364T468 352H311V195Q311 178 300 167T272 156Q256 156 245 167T234 195V352H77Q61 352 50 363T39
391Q39 408 50 419T77 430H234V587Q234 603 245 614Z" />
<glyph unicode="," glyph-name="comma" horiz-adv-x="226" d="M139 102T157 79T176 13Q176 -24 162 -65T126 -134T81 -162Q60 -162 60 -142Q60 -133 64 -125T77 -105Q87 -90 92 -79T97 -54Q97 -38 91 -27T73 -2Q61 12 56 22T50 47Q50 72 66 87T108 102Q139 102 157 79Z" />
<glyph unicode="-" glyph-name="hyphen" horiz-adv-x="391" d="M328 312T339 301T350 273Q350 257 339 246T311 235H76Q60 235 49 246T38 273Q38 290 48 301T76 312H311Q328 312 339 301Z" />
<glyph unicode="." glyph-name="period" horiz-adv-x="216" d="M132 101T149 84T166 42Q166 18 149 1T108 -16Q84 -16 67 1T50 42Q50 67 67 84T108 101Q132 101 149 84Z" />
<glyph unicode="/" glyph-name="slash" horiz-adv-x="469" d="M361 771T370 777T392 783Q409 783 419 772T430 744Q430 736 427 728L113 -56Q105 -78 77 -78Q61 -78 50 -67T39 -40Q39 -32 42 -23L356 760Q361 771 370 777Z" />
<glyph unicode="0" glyph-name="zero" horiz-adv-x="571" d="M360 783T413 736T493 600T521 392Q521 208 459 104T285 0Q211 0 158 47T78 182T50 392Q50 513 77 601T158 736T285 783Q360 783 413 736ZM208 705T168 619T128 392Q128 249 168 164T285 78Q363 78
403 164T443 392Q443 533 403 619T285 705Q208 705 168 619Z" />
<glyph unicode="1" glyph-name="one" horiz-adv-x="378" d="M90 649T80 649Q63 649 52 659T41 687Q41 716 66 724L220 777Q235 782 240 782Q256 782 267 771T278 743V39Q278 23 267 12T239 0Q223 0 212 11T200 39V689L100 654Q90 649 80 649Z" />
<glyph unicode="2" glyph-name="two" horiz-adv-x="581" d="M511 78T522 67T534 39Q534 23 523 12T495 0H110Q94 0 83 11T71 39Q71 55 82 66L385 424Q410 451 425 484T440 547Q440 617 399 662T293 707Q251 707 217 686T163 628T143 547Q143 531 132 520T104 509Q88
509 77 520T65 547Q65 613 95 667T177 751T293 782Q358 782 408 752T487 669T516 547Q516 466 438 375L182 78H495Q511 78 522 67Z" />
<glyph unicode="3" glyph-name="three" horiz-adv-x="585" d="M359 786T406 761T481 691T508 591Q508 541 474 496T389 428Q463 406 501 351T540 223Q540 159 509 107T422 25T300 -5Q231 -5 175 25T87 109T55 229Q55 246 65 258T92 270Q108 270 118 258T129 229Q129
184 151 147T211 89T297 67Q374 67 418 110T463 223Q463 271 442 308T385 365T304 386Q288 386 277 397T266 425Q266 442 277 452T304 463Q338 463 368 480T416 527T434 591Q434 644 398 679T302 715Q239 715 198 680T157 592Q157 575 147 564T120 552Q104 552
94 563T83 591Q83 646 111 690T190 760T302 786Q359 786 406 761Z" />
<glyph unicode="4" glyph-name="four" horiz-adv-x="647" d="M604 257T604 221Q604 208 593 198T566 187H487V39Q487 23 476 12T448 0Q432 0 422 11T411 39V187H53Q36 187 25 198T14 225Q14 237 22 248L418 766Q429 782 450 782Q466 782 476 771T487 742V257H566Q604
257 604 221ZM411 257V639L118 257H411Z" />
<glyph unicode="5" glyph-name="five" horiz-adv-x="627" d="M389 508T447 475T539 383T572 254Q572 183 539 125T448 33T318 0Q247 0 189 33T98 124T65 254Q65 271 76 282T103 293Q120 293 131 282T143 254Q143 205 166 165T229 101T318 78Q367 78 407 101T471
164T494 254Q494 303 471 343T408 407T318 430H143Q127 430 116 441T104 469V743Q104 760 115 771T143 782H494Q510 782 521 771T533 743Q533 727 522 716T494 704H181V508H318Q389 508 447 475Z" />
<glyph unicode="6" glyph-name="six" horiz-adv-x="579" d="M366 470T419 440T503 356T534 235Q534 168 504 115T420 31T300 0Q233 0 180 30T96 114T65 235Q65 300 95 355L94 354L341 760Q355 781 376 781Q393 781 404 770T416 743Q416 733 410 722L253 466Q273
470 300 470Q366 470 419 440ZM344 72T380 93T438 151T459 235Q459 281 438 318T381 377T299 399Q254 399 218 378T160 319T139 235Q139 189 160 152T217 93T299 72Q344 72 380 93Z" />
<glyph unicode="7" glyph-name="seven" horiz-adv-x="568" d="M69 704T58 715T46 743Q46 759 57 770T86 782H493Q509 782 520 771T531 743Q531 736 525 722L198 22Q193 12 184 6T163 0Q147 0 136 11T124 39Q124 48 132 64L430 704H86Q69 704 58 715Z" />
<glyph unicode="8" glyph-name="eight" horiz-adv-x="593" d="M466 409T498 357T530 238Q530 170 500 115T416 28T297 -4Q231 -4 178 27T94 113T63 235Q63 302 95 355T183 438Q146 464 125 504T104 594Q104 647 129 690T199 758T299 783Q353 783 396 759T464 692T489
596Q489 547 468 506T411 438Q466 409 498 357ZM178 541T212 506T297 470Q348 470 381 506T415 597Q415 646 381 679T297 712Q246 712 212 678T178 593Q178 541 212 506ZM452 282T432 318T376 375T297 396Q253 396 217 375T161 316T141 233Q141 187 161 149T217
88T297 66Q341 66 376 88T432 150T452 237Q452 282 432 318Z" />
<glyph unicode="9" glyph-name="nine" horiz-adv-x="579" d="M213 312T160 342T76 426T45 547Q45 614 75 667T159 751T279 782Q346 782 399 752T483 668T514 547Q514 482 484 427L485 428L238 22Q224 1 203 1Q186 1 175 12T163 39Q163 49 169 60L326 316Q306 312
279 312Q213 312 160 342ZM235 710T199 689T141 631T120 547Q120 501 141 464T198 405T280 383Q325 383 361 404T419 463T440 547Q440 593 419 630T362 689T280 710Q235 710 199 689Z" />
<glyph unicode=":" glyph-name="colon" horiz-adv-x="195" d="M370 541T386 524T403 482Q403 458 387 441T346 424Q322 424 305 441T287 482Q287 507 304 524T346 541Q370 541 386 524ZM372 101T389 84T406 42Q406 18 389 1T348 -16Q324 -16 307 1T290 42Q290
67 307 84T348 101Q372 101 389 84Z" />
<glyph unicode=";" glyph-name="semicolon" horiz-adv-x="200" d="M139 102T157 79T176 13Q176 -24 162 -65T126 -134T81 -162Q60 -162 60 -142Q60 -133 64 -125T77 -105Q87 -90 92 -79T97 -54Q97 -38 91 -27T73 -2Q61 12 56 22T50 47Q50 72 66 87T108 102Q139
102 157 79ZM372 541T388 524T405 482Q405 458 389 441T348 424Q324 424 307 441T289 482Q289 507 306 524T348 541Q372 541 388 524Z" />
<glyph unicode="&lt;" glyph-name="less" horiz-adv-x="547" d="M507 138T507 117Q507 100 495 89T467 78Q457 78 449 83L60 317Q39 329 39 352Q39 371 60 387L449 621Q459 626 469 626Q485 626 496 616T507 590Q507 567 488 555L149 353L488 151Q507 138 507 117Z" />
<glyph unicode="=" glyph-name="equal" horiz-adv-x="508" d="M446 508T457 497T468 469Q468 453 457 442T430 430H77Q61 430 50 441T39 469Q39 486 50 497T77 508H430Q446 508 457 497ZM446 273T457 262T468 234Q468 218 457 207T430 196L77 195Q60 196 50 207T39
234Q39 251 49 262T77 273H430Q446 273 457 262Z" />
<glyph unicode="&gt;" glyph-name="greater" horiz-adv-x="547" d="M507 371T507 352Q507 329 486 317L97 83Q90 78 79 78Q63 78 51 89T39 117Q39 138 58 151L397 353L58 555Q39 567 39 590Q39 606 50 616T77 626Q87 626 97 621L486 387Q507 371 507 352Z" />
<glyph unicode="?" glyph-name="question" horiz-adv-x="547" d="M343 797T395 769T477 690T507 577Q507 528 491 492T451 427T381 358L363 342Q335 317 324 284T312 217Q312 200 301 189T273 177Q256 177 245 188T234 217Q234 258 254 304T308 382L333 405Q367
437 386 458T417 510T430 581Q430 620 411 652T357 704T277 723Q203 723 160 679T116 563Q116 546 106 536T78 525Q61 525 50 535T39 563Q39 631 69 684T153 767T277 797Q343 797 395 769ZM297 117T314 100T332 58Q332 34 315 17T273 0Q248 0 232 17T215 58Q215
83 232 100T273 117Q297 117 314 100Z" />
<glyph unicode="@" glyph-name="at" horiz-adv-x="1094" d="M821 71T832 55T865 39Q897 39 922 69T962 152T977 274Q977 398 922 495T770 648T548 703Q424 703 326 648T174 496T119 274Q119 149 173 52T325 -100T548 -155Q592 -155 641 -145T724 -119Q738 -112
752 -112Q767 -112 775 -122T783 -150Q783 -171 753 -190T668 -221T548 -233Q401 -233 286 -169T106 11T41 274Q41 421 105 536T285 716T548 781Q695 781 810 717T990 537T1055 274Q1055 183 1030 112T961 1T860 -39Q809 -39 777 -9T744 71V109Q715 62 659 31T544
0Q466 0 405 35T310 132T275 274Q275 353 310 415T407 513T548 548Q627 548 689 513T786 416T821 274V102Q821 71 832 55ZM491 469T447 444T378 375T353 274Q353 217 377 173T446 104T548 79Q604 79 648 104T718 173T743 274Q743 330 718 374T649 444T548 469Q491
469 447 444Z" />
<glyph unicode="A" glyph-name="A" horiz-adv-x="703" d="M690 48T690 39Q690 23 679 12T651 0Q625 0 614 24L547 186H160L93 24Q85 0 57 0Q40 0 30 11T19 39Q19 49 22 56L316 754Q327 781 354 781Q381 781 391 754L686 55Q690 48 690 39ZM520 253L354 654L188 253H520Z" />
<glyph unicode="B" glyph-name="B" horiz-adv-x="695" d="M442 781T490 756T567 685T596 584Q596 531 568 489T491 424Q560 405 600 356T640 231Q640 164 609 112T524 30T399 0H144Q124 0 112 10T100 39V742Q100 759 111 770T139 781H382Q442 781 490 756ZM443
455T481 489T520 584Q520 642 482 674T382 706H178V455H382Q443 455 481 489ZM472 75T517 117T563 231Q563 299 518 339T399 380H178V75H399Q472 75 517 117Z" />
<glyph unicode="C" glyph-name="C" horiz-adv-x="771" d="M523 791T582 770T696 703Q707 695 707 680Q707 672 703 666T692 656Q690 649 683 645T668 641Q653 641 643 650Q604 685 558 701T451 717Q367 717 295 673T181 553T138 391Q138 302 180 227T294 108T451
64Q560 64 648 134Q659 142 670 142Q685 142 696 132T707 104Q707 88 696 76Q602 -10 451 -10Q345 -10 256 44T115 190T62 391Q62 499 114 591T255 737T451 791Q523 791 582 770Z" />
<glyph unicode="D" glyph-name="D" horiz-adv-x="770" d="M432 781T521 731T659 593T709 391Q709 278 660 189T521 50T319 0H139Q122 0 111 11T100 39V742Q100 759 111 770T139 781H319Q432 781 521 731ZM410 70T481 111T592 226T632 391Q632 483 592 556T481
670T319 711H178V70H319Q410 70 481 111Z" />
<glyph unicode="E" glyph-name="E" horiz-adv-x="692" d="M625 75T636 65T647 38Q647 22 636 11T608 0H139Q123 0 112 11T100 39V742Q100 759 111 770T139 781H608Q625 781 636 770T647 743Q647 727 636 717T608 706H178V430H491Q508 430 519 419T530 392Q530
376 519 365T491 354H178V75H608Q625 75 636 65Z" />
<glyph unicode="F" glyph-name="F" horiz-adv-x="625" d="M446 430T457 420T468 392Q468 376 457 365T429 354H116V39Q116 23 105 12T77 0Q61 0 50 11T38 39V742Q38 759 49 770T77 781H546Q563 781 574 770T585 743Q585 727 574 717T546 706H116V430H429Q446 430
457 420Z" />
<glyph unicode="G" glyph-name="G" horiz-adv-x="771" d="M685 390T696 380T707 352V104Q707 87 696 76Q603 -10 451 -10Q345 -10 256 44T115 190T62 391Q62 499 114 591T255 737T451 791Q523 791 582 770T696 703Q707 695 707 680Q707 672 703 666T692 656Q690
649 683 645T668 640Q654 640 643 650Q604 685 558 701T451 717Q367 717 295 673T181 553T138 391Q138 302 180 227T294 108T451 64Q548 64 631 121V321H475Q458 321 447 331T436 356Q436 371 447 380T475 390H668Q685 390 696 380Z" />
<glyph unicode="H" glyph-name="H" horiz-adv-x="844" d="M666 759T677 770T705 781Q722 781 733 770T744 742V39Q744 23 733 12T705 0Q689 0 678 11T666 39V360H178V39Q178 23 167 12T139 0Q123 0 112 11T100 39V742Q100 759 111 770T139 781Q156 781 167 770T178
742V430H666V742Q666 759 677 770Z" />
<glyph unicode="I" glyph-name="I" horiz-adv-x="278" d="M100 759T111 770T139 781Q156 781 167 770T178 742V39Q178 23 167 12T139 0Q123 0 112 11T100 39V742Q100 759 111 770Z" />
<glyph unicode="J" glyph-name="J" horiz-adv-x="614" d="M514 159T483 106T399 21T280 -10Q214 -10 161 21T76 105T45 224Q45 241 56 252T84 263Q101 263 112 252T123 224Q123 179 144 143T201 85T280 64Q323 64 359 85T415 143T436 224V742Q436 759 447 770T475
781Q492 781 503 770T514 742V224Q514 159 483 106Z" />
<glyph unicode="K" glyph-name="K" horiz-adv-x="655" d="M178 23T167 12T139 0Q123 0 112 11T100 39V742Q100 758 111 769T139 781Q156 781 167 770T178 742V402L543 767Q557 781 574 781Q591 781 600 771T610 746Q610 728 597 714L323 440L600 62Q608 49 608
38Q608 23 598 12T572 0Q550 0 539 17L267 385L178 295V39Q178 23 167 12Z" />
<glyph unicode="L" glyph-name="L" horiz-adv-x="633" d="M586 74T597 64T608 37Q608 21 597 11T569 0H139Q123 0 112 11T100 39V742Q100 758 111 769T139 781Q156 781 167 770T178 742V74H569Q586 74 597 64Z" />
<glyph unicode="M" glyph-name="M" horiz-adv-x="981" d="M859 781T870 770T881 742V39Q881 23 870 12T843 0Q826 0 815 11T803 39V605L525 37Q513 18 491 18Q466 18 455 42L178 596V39Q178 23 167 12T139 0Q123 0 112 11T100 39V742Q100 759 111 770T139 781Q162
781 174 761L494 125L808 761Q820 781 843 781Q859 781 870 770Z" />
<glyph unicode="N" glyph-name="N" horiz-adv-x="825" d="M647 759T658 770T686 781Q703 781 714 770T725 742V39Q725 23 714 12T686 0Q666 0 657 13L178 641V39Q178 23 167 12T139 0Q122 0 111 11T100 39V742Q100 759 111 770T139 781Q157 781 169 767L647 139V742Q647
759 658 770Z" />
<glyph unicode="O" glyph-name="O" horiz-adv-x="921" d="M574 791T665 739T808 596T860 391Q860 277 809 186T666 42T461 -10Q347 -10 256 42T114 185T62 391Q62 505 113 596T256 739T461 791Q574 791 665 739ZM369 717T296 674T180 557T138 391Q138 299 180
225T295 107T461 64Q552 64 625 107T741 224T783 391Q783 482 741 556T626 674T461 717Q369 717 296 674Z" />
<glyph unicode="P" glyph-name="P" horiz-adv-x="612" d="M178 22T167 11T139 0Q122 0 111 11T100 39V742Q100 759 111 770T139 781H339Q412 781 469 749T559 659T591 527Q591 454 559 397T470 308T339 276H178V39Q178 22 167 11ZM390 351T430 373T492 436T515
527Q515 579 493 619T430 683T339 706H178V351H339Q390 351 430 373Z" />
<glyph unicode="Q" glyph-name="Q" horiz-adv-x="921" d="M809 65Q820 54 820 39Q820 23 809 12Q797 0 782 0Q767 0 755 12L702 65Q652 29 591 10T461 -10Q347 -10 256 42T114 185T62 391Q62 505 113 596T256 739T461 791Q574 791 665 739T808 596T860 391Q860
310 834 240T758 116L809 65ZM567 64T646 120L539 227Q527 239 527 254Q527 269 539 281Q550 292 565 292Q581 292 592 281L703 170Q741 214 762 271T783 391Q783 482 741 556T626 674T461 717Q369 717 296 674T180 557T138 391Q138 299 180 225T295 107T461 64Q567
64 646 120Z" />
<glyph unicode="R" glyph-name="R" horiz-adv-x="618" d="M597 45T597 33Q597 18 586 9T557 0Q545 0 537 5T523 20L343 306H326H178V39Q178 22 167 11T139 0Q122 0 111 11T100 39V742Q100 759 111 770T139 781H326Q399 781 456 751T545 665T578 540Q578 463 537
405T424 322L588 60Q597 45 597 33ZM326 381Q376 381 416 401T479 458T502 540Q502 588 480 626T417 685T326 706H178V381H326Z" />
<glyph unicode="S" glyph-name="S" horiz-adv-x="662" d="M419 791T479 756T573 665Q580 654 580 641Q580 622 562 611Q554 607 544 607Q533 607 524 612T508 628Q452 716 339 717Q258 717 211 683T164 586Q164 469 353 444Q477 426 538 368T599 215Q599 145 565
94T472 17T340 -10Q245 -10 172 30T66 140Q62 147 62 156Q62 170 72 179T101 189Q113 189 123 183T139 164Q162 119 215 92T340 64Q422 64 472 103T522 214Q522 277 476 320T336 375Q220 389 154 447T87 591Q87 651 119 696T209 766T340 791Q419 791 479 756Z"
/>
<glyph unicode="T" glyph-name="T" horiz-adv-x="655" d="M620 781T630 771T640 745Q640 730 630 720T604 710H366V39Q366 23 355 12T327 0Q311 0 300 11T288 39V710H51Q35 710 25 720T15 745Q15 761 25 771T51 781H604Q620 781 630 771Z" />
<glyph unicode="U" glyph-name="U" horiz-adv-x="819" d="M100 759T111 770T139 781Q156 781 167 770T178 742V258Q178 200 207 155T290 84T411 58Q478 58 530 83T611 154T641 258V742Q641 759 652 770T680 781Q697 781 708 770T719 742V258Q719 179 680 117T570
19T411 -16Q321 -16 250 19T140 116T100 258V742Q100 759 111 770Z" />
<glyph unicode="V" glyph-name="V" horiz-adv-x="716" d="M678 781T687 771T697 746Q697 736 692 724L394 25Q383 0 359 0Q346 0 338 5T323 25L26 720Q20 735 20 746Q20 762 30 771T58 781Q84 781 94 756L359 122L623 754Q629 769 638 775T662 781Q678 781 687 771Z" />
<glyph unicode="W" glyph-name="W" horiz-adv-x="938" d="M898 781T907 771T916 744Q916 736 913 725L709 33Q704 17 694 9T669 0Q655 0 645 9T630 32L468 623L307 33Q302 18 292 9T267 0Q253 0 243 9T228 32L23 725Q20 736 20 743Q20 760 30 770T56 781Q84 781
94 751L267 148L431 734Q434 745 444 752T468 759Q481 759 491 752T505 733L670 147L844 755Q852 781 882 781Q898 781 907 771Z" />
<glyph unicode="X" glyph-name="X" horiz-adv-x="707" d="M662 51T662 38Q662 22 652 11T625 0Q605 0 595 14L356 345L112 12Q102 0 84 0Q67 0 57 10T47 36Q47 51 56 63L303 399L72 720Q64 733 64 744Q64 759 74 770T100 781Q120 781 130 767L357 453L587 767Q598
781 617 781Q633 781 643 770T653 743Q653 730 646 720L410 400L653 63Q662 51 662 38Z" />
<glyph unicode="Y" glyph-name="Y" horiz-adv-x="648" d="M624 781T633 771T643 745Q643 731 636 720L363 289V39Q363 23 352 12T324 0Q308 0 297 11T285 39V289L13 720Q5 733 5 745Q5 760 16 770T43 781Q54 781 61 777T76 762L325 361L573 760Q581 771 589 776T609
781Q624 781 633 771Z" />
<glyph unicode="Z" glyph-name="Z" horiz-adv-x="724" d="M74 711T64 720T54 745Q54 760 65 770T93 781H635Q653 781 663 769T674 741Q674 728 667 720L148 70H635Q652 70 663 61T674 35Q674 20 663 10T635 0H88Q71 0 60 12T49 39Q49 54 57 63L574 711H92Q74 711 64 720Z" />
<glyph unicode="[" glyph-name="bracketleft" horiz-adv-x="302" d="M279 -155T290 -167T302 -195Q302 -211 291 -222T262 -234H104Q88 -234 77 -223T65 -195V743Q65 760 76 771T104 782H262Q279 782 290 771T302 743Q302 727 291 715T262 703H143V-155H262Q279
-155 290 -167Z" />
<glyph unicode="\" glyph-name="backslash" horiz-adv-x="469" d="M39 734T39 742Q39 759 50 770T79 782Q91 782 100 776T114 759L429 -25Q433 -32 433 -41Q433 -58 422 -69T394 -80Q383 -80 373 -74T358 -57L42 726Q39 734 39 742Z" />
<glyph unicode="]" glyph-name="bracketright" horiz-adv-x="302" d="M23 -155T12 -167T0 -195Q0 -211 11 -222T40 -234H198Q214 -234 225 -223T237 -195V743Q237 760 226 771T198 782H40Q23 782 12 771T0 743Q0 727 11 715T40 703H159V-155H40Q23 -155 12 -167Z" />
<glyph unicode="^" glyph-name="asciicircum" horiz-adv-x="469" d="M101 470T82 470Q65 470 54 481T42 508Q42 518 48 528L206 766Q218 782 238 782Q257 782 269 766L427 528Q433 519 433 508Q433 492 422 481T394 470Q374 470 363 484L238 672L112 484Q101 470 82 470Z" />
<glyph unicode="_" glyph-name="underscore" horiz-adv-x="469" d="M496 0T507 -11T518 -39Q518 -55 507 -66T480 -78H1Q-16 -78 -27 -67T-38 -39Q-38 -23 -27 -12T1 0H480Q496 0 507 -11Z" />
<glyph unicode="`" glyph-name="grave" horiz-adv-x="273" d="M43 725T43 742Q43 759 54 770T81 782Q97 782 109 770L221 657Q231 648 231 632Q231 615 220 604T192 592Q177 592 166 603L53 715Q43 725 43 742Z" />
<glyph unicode="a" glyph-name="a" horiz-adv-x="677" d="M417 552T480 516T580 415T617 273V38Q617 22 606 11T578 0Q561 0 550 10T539 38V98Q504 50 450 23T331 -5Q255 -5 194 31T97 131T61 273Q61 351 97 415T197 515T339 552Q417 552 480 516ZM396 65T442
92T514 166T541 273Q541 332 515 379T442 454T339 482Q282 482 236 455T163 380T136 273Q136 214 162 167T235 92T339 65Q396 65 442 92Z" />
<glyph unicode="b" glyph-name="b" horiz-adv-x="707" d="M90 515T90 509V274Q90 196 126 132T226 32T368 -5Q446 -5 509 31T609 132T646 274Q646 352 611 415T514 515T376 552Q311 552 257 525T168 449V742Q168 759 157 770T129 781Q112 781 102 770T91 742V518Q90
515 90 509ZM311 65T265 92T193 167T166 274Q166 291 167 299Q168 301 168 304Q178 382 233 432T368 482Q425 482 471 455T544 381T571 274Q571 215 545 168T472 93T368 65Q311 65 265 92Z" />
<glyph unicode="c" glyph-name="c" horiz-adv-x="596" d="M449 552T527 456Q535 447 535 435Q535 419 518 407Q509 401 499 401Q484 401 470 416Q440 449 404 465T324 482Q269 482 226 456T160 381T136 273Q136 214 161 167T231 92T334 65Q414 65 463 108Q476
119 490 119Q502 119 512 111Q526 99 526 84Q526 71 516 62Q444 -5 334 -5Q256 -5 194 31T97 131T61 273Q61 353 95 416T189 516T324 552Q449 552 527 456Z" />
<glyph unicode="d" glyph-name="d" horiz-adv-x="707" d="M617 515T617 509V274Q617 196 581 132T481 32T339 -5Q261 -5 198 31T98 132T61 274Q61 352 96 415T193 515T331 552Q396 552 450 525T539 449V742Q539 759 550 770T578 781Q595 781 605 770T616 742V518Q617
515 617 509ZM396 65T442 92T514 167T541 274Q541 291 540 299Q539 301 539 304Q529 382 474 432T339 482Q282 482 236 455T163 381T136 274Q136 215 162 168T235 93T339 65Q396 65 442 92Z" />
<glyph unicode="e" glyph-name="e" horiz-adv-x="614" d="M397 552T454 518T542 422T574 283Q574 267 564 258T538 248H134Q142 166 198 115T338 64Q374 64 410 76T469 108Q482 118 496 118Q507 118 518 110Q531 98 531 83Q531 70 520 60Q487 32 436 14T338 -5Q258
-5 195 30T97 129T61 273Q61 354 94 417T187 516T323 552Q397 552 454 518ZM247 483T197 436T136 312H502Q494 389 446 436T323 483Q247 483 197 436Z" />
<glyph unicode="f" glyph-name="f" horiz-adv-x="366" d="M265 711T232 667T198 550V527H318Q334 527 343 518T353 493Q353 479 344 470T318 460H198V39Q198 21 188 11T158 0Q142 0 132 10T121 39V460H57Q41 460 32 469T22 493Q22 508 31 517T57 527H121V546Q121
653 176 717T331 781Q348 781 359 771T370 746Q370 731 359 721T331 711Q265 711 232 667Z" />
<glyph unicode="g" glyph-name="g" horiz-adv-x="677" d="M419 552T482 517T581 418T617 273V69Q617 -11 582 -76T483 -178T341 -216Q264 -216 204 -187T103 -106Q94 -96 94 -83Q94 -68 108 -57Q118 -50 130 -50Q139 -50 148 -54T162 -66Q192 -104 238 -125T342
-146Q398 -146 443 -119T515 -42T541 72V117Q511 60 456 28T331 -5Q253 -5 192 30T96 129T61 273Q61 354 97 417T196 516T339 552Q419 552 482 517ZM397 65T443 91T515 165T541 273Q541 333 515 380T443 455T339 482Q280 482 234 455T162 381T136 273Q136 213 162
166T234 92T339 65Q397 65 443 91Z" />
<glyph unicode="h" glyph-name="h" horiz-adv-x="677" d="M420 553T476 523T565 436T597 298V38Q597 22 586 11T559 0Q542 0 531 11T520 38V298Q520 387 471 433T341 480Q292 480 253 461T190 409T167 334V38Q167 21 157 11T129 0Q112 0 101 10T90 38V742Q90 759
101 770T129 781Q146 781 156 770T167 742V474Q200 511 247 532T349 553Q420 553 476 523Z" />
<glyph unicode="i" glyph-name="i" horiz-adv-x="289" d="M106 525T117 536T145 547Q162 547 172 536T183 508V39Q183 22 173 11T145 0Q128 0 117 11T106 39V508Q106 525 117 536ZM167 760T183 745T199 706Q199 683 183 667T144 651Q121 651 106 667T90 706Q90
730 106 745T145 760Q167 760 183 745Z" />
<glyph unicode="j" glyph-name="j" horiz-adv-x="285" d="M179 -68T149 -121T66 -204T-55 -234Q-72 -234 -83 -223T-94 -195Q-94 -178 -83 -167T-55 -156Q14 -156 58 -112T102 0V508Q102 525 112 536T140 547Q157 547 168 536T179 508V0Q179 -68 149 -121ZM162
760T178 745T194 706Q194 683 178 667T139 651Q116 651 101 667T85 706Q85 730 101 745T140 760Q162 760 178 745Z" />
<glyph unicode="k" glyph-name="k" horiz-adv-x="572" d="M512 45T512 32Q512 17 498 5Q486 -4 474 -4Q458 -4 447 10L241 263L166 195V38Q166 21 156 11T128 0Q111 0 101 10T90 38V743Q90 760 100 770T128 781Q145 781 155 771T166 743V288L448 543Q459 553 472
553Q487 553 497 541Q508 528 508 517Q508 503 495 492L295 311L503 55Q512 45 512 32Z" />
<glyph unicode="l" glyph-name="l" horiz-adv-x="282" d="M70 760T81 770T108 781Q125 781 135 771T146 743V173Q146 130 163 103T208 76H233Q248 76 257 66T266 38Q266 21 254 11T221 0H208Q147 0 109 48T70 173V743Q70 760 81 770Z" />
<glyph unicode="m" glyph-name="m" horiz-adv-x="947" d="M725 553T770 525T841 446T867 326V38Q867 21 857 11T829 0Q812 0 801 10T790 38V326Q790 397 754 438T658 480Q595 480 556 438T518 328V326V38Q518 21 508 11T480 0Q463 0 452 10T441 38V326Q441 397
405 438T309 480Q247 480 207 439T167 334V38Q167 21 157 11T129 0Q112 0 101 10T90 38V508Q90 525 101 536T129 547Q146 547 156 536T167 508V486Q195 518 233 535T317 553Q372 553 416 528T486 458Q515 503 561 528T666 553Q725 553 770 525Z" />
<glyph unicode="n" glyph-name="n" horiz-adv-x="677" d="M420 553T476 523T565 436T597 298V38Q597 22 586 11T559 0Q542 0 531 11T520 38V298Q520 387 471 433T341 480Q292 480 253 461T190 409T167 334V38Q167 21 157 11T129 0Q112 0 101 10T90 38V508Q90 525
101 536T129 547Q146 547 156 536T167 508V474Q200 511 247 532T349 553Q420 553 476 523Z" />
<glyph unicode="o" glyph-name="o" horiz-adv-x="677" d="M418 552T481 516T580 416T617 273Q617 194 581 131T482 31T339 -5Q260 -5 197 31T97 130T61 273Q61 352 97 416T196 516T339 552Q418 552 481 516ZM282 482T236 455T163 381T136 273Q136 214 162 167T235
92T339 65Q397 65 443 92T515 166T541 273Q541 333 515 380T443 455T339 482Q282 482 236 455Z" />
<glyph unicode="p" glyph-name="p" horiz-adv-x="707" d="M446 552T509 516T609 415T646 273Q646 195 611 132T514 32T376 -5Q311 -5 257 22T168 98V-195Q168 -212 157 -223T129 -234Q112 -234 102 -223T91 -195V29Q90 32 90 38V273Q90 351 126 415T226 515T368
552Q446 552 509 516ZM425 65T471 92T544 166T571 273Q571 332 545 379T472 454T368 482Q311 482 265 455T193 380T166 273Q166 256 167 248Q168 246 168 243Q178 165 233 115T368 65Q425 65 471 92Z" />
<glyph unicode="q" glyph-name="q" horiz-adv-x="707" d="M617 38Q617 32 616 29V-195Q616 -212 606 -223T578 -234Q561 -234 550 -223T539 -195V98Q504 50 450 23T331 -5Q255 -5 194 31T97 131T61 273Q61 351 97 415T197 515T339 552Q417 552 480 516T580 415T617
273V38ZM418 65T473 115T539 243Q539 246 540 248Q541 256 541 273Q541 332 515 379T442 454T339 482Q282 482 236 455T163 380T136 273Q136 214 162 167T235 92T339 65Q418 65 473 115Z" />
<glyph unicode="r" glyph-name="r" horiz-adv-x="458" d="M379 553T403 542T428 511Q428 505 427 502Q423 488 415 483T391 478Q382 478 360 480Q352 481 336 481Q261 481 214 441T166 337V38Q166 20 156 10T128 0Q110 0 100 10T90 38V509Q90 527 100 537T128
547Q146 547 156 537T166 509V465Q195 507 240 530T337 553Q379 553 403 542Z" />
<glyph unicode="s" glyph-name="s" horiz-adv-x="539" d="M345 552T394 530T473 467Q481 454 481 444Q481 427 465 417Q458 412 446 412Q425 412 411 427Q362 483 277 483Q222 483 189 461T156 404Q156 368 187 347T297 312Q404 294 450 254T496 153Q496 107 469
71T392 15T281 -5Q219 -5 162 16T70 75Q60 87 60 98Q60 115 76 128Q88 137 101 137Q118 137 130 123Q154 95 193 80T281 65Q351 65 386 89T422 152Q422 188 387 212T276 248Q178 264 130 303T81 399Q81 472 137 512T279 552Q345 552 394 530Z" />
<glyph unicode="t" glyph-name="t" horiz-adv-x="402" d="M347 77T357 66T367 38Q367 22 355 11T325 0H304Q251 0 209 25T144 94T120 193V460H55Q39 460 30 469T20 493Q20 508 29 517T55 527H120V682Q120 699 130 710T158 721Q175 721 186 710T197 682V527H310Q326
527 335 518T345 493Q345 479 336 470T310 460H197V193Q197 142 227 110T304 77H331Q347 77 357 66Z" />
<glyph unicode="u" glyph-name="u" horiz-adv-x="677" d="M565 547T576 537T587 509V39Q587 22 576 11T548 0Q531 0 521 11T510 39V73Q477 36 430 15T328 -6Q257 -6 201 24T112 111T80 249V509Q80 525 91 536T118 547Q135 547 146 536T157 509V249Q157 160 206
114T336 67Q385 67 424 86T487 138T510 213V509Q510 526 520 536T548 547Q565 547 576 537Z" />
<glyph unicode="v" glyph-name="v" horiz-adv-x="553" d="M537 534T537 512Q537 506 534 498L315 26Q302 0 277 0Q253 0 241 26L19 497Q16 503 16 511Q16 532 38 543Q45 547 54 547Q64 547 72 542T85 527L277 111L467 527Q471 537 480 542T500 548Q509 548 516
544Q537 534 537 512Z" />
<glyph unicode="w" glyph-name="w" horiz-adv-x="740" d="M705 547T714 538T723 514Q723 502 719 493L563 25Q559 14 550 7T527 0Q514 0 504 7T490 25L370 423L250 25Q246 13 236 7T214 0Q201 0 192 7T177 25L21 493Q18 505 18 514Q18 547 50 547Q78 547 88 518L216
128L334 517Q338 531 347 539T372 547Q387 547 396 539T410 517L525 130L652 518Q662 547 689 547Q705 547 714 538Z" />
<glyph unicode="x" glyph-name="x" horiz-adv-x="548" d="M506 46T506 33Q506 19 496 10T472 0Q460 0 452 4T437 18L273 227L103 12Q94 0 76 0Q60 0 51 10T41 34Q41 50 51 61L224 277L60 485Q50 496 50 512Q50 527 59 537T85 547Q102 547 114 535L275 328L434
529Q448 547 467 547Q483 547 492 537T502 513Q502 498 491 484L325 278L495 60Q506 46 506 33Z" />
<glyph unicode="y" glyph-name="y" horiz-adv-x="548" d="M541 535T541 515Q541 506 537 497L213 -215Q204 -238 184 -238Q174 -238 166 -234Q143 -225 143 -204Q143 -195 147 -186L246 33V34L23 496Q19 504 19 514Q19 535 41 544Q49 548 59 548Q80 548 89 527L284
116L470 526Q480 548 500 548Q509 548 518 544Q541 535 541 515Z" />
<glyph unicode="z" glyph-name="z" horiz-adv-x="549" d="M506 70T506 35Q506 0 471 0H100Q65 0 65 35Q65 52 72 60L400 477H96Q61 477 61 512Q61 547 96 547H467Q502 547 502 512Q502 496 494 486L169 70H471Q506 70 506 35Z" />
<glyph unicode="{" glyph-name="braceleft" horiz-adv-x="378" d="M248 -156T327 -156Q343 -156 354 -167T365 -195Q365 -212 354 -223T327 -234Q171 -234 171 -78V156Q171 235 92 235Q75 235 64 246T53 273Q53 290 64 301T92 312Q171 312 171 391V625Q171 782
327 782Q343 782 354 771T365 742Q365 726 355 715T327 704Q248 704 248 625V391Q248 318 209 273Q248 229 248 156V-78Q248 -156 327 -156Z" />
<glyph unicode="|" glyph-name="bar" horiz-adv-x="391" d="M156 760T167 771T195 782Q212 782 223 771T234 743V-195Q234 -212 223 -223T195 -234Q179 -234 168 -223T156 -195V743Q156 760 167 771Z" />
<glyph unicode="}" glyph-name="braceright" horiz-adv-x="378" d="M130 -156T51 -156Q35 -156 24 -167T13 -195Q13 -212 24 -223T51 -234Q207 -234 207 -78V156Q207 235 286 235Q303 235 314 246T325 273Q325 290 314 301T286 312Q207 312 207 391V625Q207 782
51 782Q35 782 24 771T13 742Q13 726 23 715T51 704Q130 704 130 625V391Q130 318 169 273Q130 229 130 156V-78Q130 -156 51 -156Z" />
<glyph unicode="~" glyph-name="asciitilde" horiz-adv-x="469" d="M200 430T220 422T266 398Q289 384 300 379T327 374Q358 374 376 394Q391 411 407 411Q415 411 423 406Q441 397 441 378Q441 367 433 356Q393 307 328 307Q300 307 278 316T231 340Q210 353
197 358T171 363Q134 363 105 328Q99 319 90 314T72 309Q63 309 55 314Q48 318 44 325T39 341Q39 353 46 363Q71 395 104 412T173 430Q200 430 220 422Z" />
<glyph unicode="&#xa0;" glyph-name="uni00A0" horiz-adv-x="293" />
<glyph unicode="&#xa1;" glyph-name="exclamdown" horiz-adv-x="266" d="M119 -211T130 -222T158 -234Q175 -234 186 -223T197 -194V332Q197 348 185 359T158 371Q142 371 131 360T119 332V-194Q119 -211 130 -222ZM182 431T199 448T216 490Q216 514 199 531T158
548Q134 548 117 532T100 490Q100 465 117 448T158 431Q182 431 199 448Z" />
<glyph unicode="&#xa2;" glyph-name="cent" horiz-adv-x="596" d="M526 99T526 84Q526 71 516 62Q444 -5 334 -5Q286 -5 242 10L211 -74Q202 -97 181 -97Q169 -97 162 -90T154 -70Q154 -63 157 -54L190 34Q130 70 96 133T61 273Q61 353 95 416T189 516T324 552Q355
552 383 546L414 629Q421 650 443 650Q455 650 462 642T470 623Q470 619 468 611L437 528Q488 504 527 456Q535 447 535 435Q535 419 518 407Q509 401 499 401Q484 401 470 416Q443 446 412 462L267 76Q300 65 334 65Q414 65 463 108Q476 119 490 119Q502 119 512
111Q526 99 526 84ZM136 219T157 175T216 102L358 479Q342 482 324 482Q269 482 226 456T160 381T136 273Q136 219 157 175Z" />
<glyph unicode="&#xa3;" glyph-name="sterling" horiz-adv-x="508" d="M446 137Q456 156 479 156Q495 156 506 145T518 117Q518 106 514 99L476 23Q471 12 461 6T440 0H118Q100 0 90 11T79 39Q79 44 81 54Q137 185 137 312H78Q62 312 51 323T39 352Q39 368 50
379T78 390H130Q100 472 90 509T79 586Q79 639 105 684T177 755T275 782Q371 782 432 712Q455 687 455 670Q455 654 444 643T416 631Q399 631 390 642Q364 674 338 690T276 706Q225 706 191 671T157 584Q157 552 166 520T197 424L209 390H354Q371 390 381 380T392
352Q392 335 381 324T354 312H215Q215 197 174 78H415L446 137Z" />
<glyph unicode="&#xa4;" glyph-name="currency" horiz-adv-x="501" d="M397 572T411 572Q430 572 443 560T456 528Q456 508 443 495L404 459Q429 414 429 366Q429 319 405 277L443 237Q456 223 456 205Q456 186 444 173T412 160Q395 160 381 172L343 213Q300 188
251 188Q206 188 162 211L120 172Q108 160 89 160Q70 160 58 173T45 205Q45 223 58 236L98 274Q72 318 72 365Q72 411 97 456L58 496Q45 509 45 528Q45 547 57 559T89 572Q107 572 120 561L159 519Q202 544 251 544Q299 544 340 521L380 560Q397 572 411 572ZM212
464T183 435T154 366Q154 327 182 298T251 269Q290 269 318 297T347 366Q347 406 319 435T251 464Q212 464 183 435Z" />
<glyph unicode="&#xa5;" glyph-name="yen" horiz-adv-x="648" d="M624 781T633 771T643 745Q643 731 636 720L407 358H484Q501 358 511 349T521 324Q521 308 511 299T484 290H364L363 289V230H484Q501 230 511 221T521 196Q521 180 511 171T484 162H363V39Q363
23 352 12T324 0Q308 0 297 11T285 39V162H165Q148 162 138 171T128 196Q128 212 138 221T165 230H285V289L284 290H165Q148 290 138 299T128 324Q128 340 138 349T165 358H241L13 720Q5 733 5 745Q5 760 16 770T43 781Q54 781 61 777T76 762L325 361L573 760Q581
771 589 776T609 781Q624 781 633 771Z" />
<glyph unicode="&#xa6;" glyph-name="brokenbar" horiz-adv-x="234" d="M78 837T89 848T117 860Q134 860 145 849T156 820V469Q156 453 145 442T117 430Q101 430 90 441T78 469V820Q78 837 89 848ZM78 168T89 179T117 190Q134 190 145 179T156 152V-195Q156 -212
145 -223T117 -234Q101 -234 90 -223T78 -195V152Q78 168 89 179Z" />
<glyph unicode="&#xa7;" glyph-name="section" horiz-adv-x="469" d="M289 781T334 755T406 684T433 586Q433 569 422 558T394 547Q378 547 367 558T355 586Q355 617 339 644T295 687T236 703Q205 703 178 688T134 645T117 586Q117 537 152 503T236 469Q289 469
334 443T406 371T433 273Q433 227 413 187T354 117Q393 88 413 48T433 -38Q433 -91 407 -136T335 -207T236 -234Q182 -234 137 -208T66 -136T39 -38Q39 -22 50 -11T79 1Q95 1 106 -10T117 -38Q117 -70 133 -97T177 -140T236 -156Q267 -156 294 -140T338 -97T355
-38Q355 -7 339 19T295 62T236 78Q183 78 138 104T66 175T39 273Q39 368 118 430Q39 490 39 586Q39 639 65 683T137 754T236 781Q289 781 334 755ZM204 391T177 375T134 332T117 273Q117 225 152 191T236 157Q284 157 319 191T355 273Q355 305 339 332T295 375T236
391Q204 391 177 375Z" />
<glyph unicode="&#xa8;" glyph-name="dieresis" horiz-adv-x="469" d="M163 732T179 716T195 677Q195 654 179 638T140 622Q117 622 101 638T85 677Q85 700 101 716T140 732Q163 732 179 716ZM372 732T388 716T404 677Q404 654 388 638T349 622Q326 622 310 638T294
677Q294 700 310 716T349 732Q372 732 388 716Z" />
<glyph unicode="&#xa9;" glyph-name="copyright" horiz-adv-x="859" d="M541 782T631 729T774 587T827 392Q827 284 775 194T633 52T436 0Q329 0 239 52T97 194T45 392Q45 497 97 587T239 729T436 782Q541 782 631 729ZM348 717T273 673T154 555T110 392Q110 304
154 230T272 111T435 67Q523 67 598 111T717 229T761 392Q761 480 717 554T598 673T435 717Q348 717 273 673ZM544 643T612 557Q620 548 620 535Q620 518 603 507Q593 500 584 500Q567 500 555 515Q506 571 432 571Q361 571 318 522T274 393Q274 341 295 301T355
237T441 214Q507 214 549 251Q563 262 577 262Q588 262 598 254Q612 242 612 226Q612 212 602 203Q538 142 441 142Q372 142 317 174T231 264T199 393Q199 464 229 521T312 610T432 643Q544 643 612 557Z" />
<glyph unicode="&#xaa;" glyph-name="ordfeminine" horiz-adv-x="475" d="M291 790T336 765T406 694T432 594V435Q432 419 422 408T396 396Q379 396 369 407T360 435L361 454Q311 398 236 398Q181 398 136 424T66 494T40 594Q40 649 65 694T136 764T236 790Q291
790 336 765ZM288 473T323 507T358 594Q358 647 324 681T236 716Q184 716 149 682T114 594Q114 542 149 508T236 473Q288 473 323 507Z" />
<glyph unicode="&#xab;" glyph-name="guillemotleft" horiz-adv-x="469" d="M234 49T234 39Q234 23 223 12T195 0Q171 0 159 24L45 252Q39 264 39 273Q39 280 44 292L159 522Q170 546 195 546Q212 546 223 535T234 508Q234 499 231 491L122 273L231 55Q234 49
234 39ZM433 47T433 39Q433 23 422 12T394 0Q370 0 358 24L243 252Q238 265 238 273Q238 278 242 292L358 522Q369 546 394 546Q411 546 422 535T433 508Q433 501 429 491L320 273L429 55Q433 47 433 39Z" />
<glyph unicode="&#xac;" glyph-name="logicalnot" horiz-adv-x="547" d="M62 469T51 480T39 508Q39 525 50 536T78 547H468Q485 547 496 536T507 508V352Q507 336 496 325T468 313Q452 313 441 324T430 352V469H78Q62 469 51 480Z" />
<glyph unicode="&#xad;" glyph-name="uni00AD" horiz-adv-x="391" d="M328 312T339 301T350 273Q350 257 339 246T311 235H76Q60 235 49 246T38 273Q38 290 48 301T76 312H311Q328 312 339 301Z" />
<glyph unicode="&#xae;" glyph-name="registered" horiz-adv-x="859" d="M541 782T631 729T774 587T827 392Q827 284 775 194T633 52T436 0Q329 0 239 52T97 194T45 392Q45 497 97 587T239 729T436 782Q541 782 631 729ZM523 67T598 111T717 229T761 392Q761 480
717 554T598 673T435 717Q348 717 273 673T154 555T110 392Q110 304 154 230T272 111T435 67Q523 67 598 111ZM603 206Q611 192 611 182Q611 170 602 163T578 155Q559 155 549 171L443 341H436H355V188Q355 174 346 165T322 155Q307 155 298 164T288 188V612Q288
626 298 635T323 645H436Q509 645 555 603T602 493Q602 447 577 411T510 356L603 206ZM355 402H438Q482 402 509 426T536 493Q536 536 509 560T438 585H355V402Z" />
<glyph unicode="&#xaf;" glyph-name="overscore" horiz-adv-x="547" d="M419 710T430 700T442 674Q442 658 431 648T403 638H144Q127 638 116 648T105 674Q105 690 116 700T144 710H403Q419 710 430 700Z" />
<glyph unicode="&#xb0;" glyph-name="degree" horiz-adv-x="469" d="M287 782T332 756T403 684T430 587Q430 534 404 489T332 418T234 391Q181 391 137 417T66 489T39 587Q39 639 65 684T136 755T234 782Q287 782 332 756ZM203 704T176 688T133 645T117 587Q117
538 151 504T234 469Q282 469 317 503T352 587Q352 618 336 645T292 688T234 704Q203 704 176 688Z" />
<glyph unicode="&#xb1;" glyph-name="plusminus" horiz-adv-x="547" d="M234 603T245 614T273 625Q290 625 301 614T312 587V430H468Q484 430 495 419T507 391Q507 375 496 364T468 352H312V195Q312 178 301 167T273 156Q257 156 246 167T234 195V352H78Q62 352
51 363T39 391Q39 408 50 419T78 430H234V587Q234 603 245 614ZM485 78T496 67T507 39Q507 22 497 11T469 0H78Q61 0 50 11T39 39Q39 56 50 67T78 78H469Q485 78 496 67Z" />
<glyph unicode="&#xb2;" glyph-name="uni00B2" horiz-adv-x="365" d="M299 451T309 443T320 419Q320 403 310 395T283 386H88Q72 386 62 396T51 423Q51 440 60 449L219 621Q241 644 241 671Q241 696 223 713T178 730Q145 730 125 711T104 664Q104 647 97 637T73
627Q59 627 51 637T43 664Q43 719 81 755T179 792Q236 792 271 758T307 670Q307 642 293 621T253 572L139 451H283Q299 451 309 443Z" />
<glyph unicode="&#xb3;" glyph-name="uni00B3" horiz-adv-x="366" d="M232 792T267 761T303 680Q303 653 287 629T245 594Q278 583 296 558T315 497Q315 445 278 412T183 378Q123 378 84 413T45 501Q45 518 54 528T80 538Q95 538 102 528T110 501Q110 475 130
458T182 440Q210 440 229 456T248 498Q248 526 232 544T192 562Q173 562 163 570T152 593Q152 626 187 626Q212 626 225 639T239 677Q239 700 223 714T179 728Q149 728 132 715T110 679Q108 667 100 658T82 649Q68 649 58 658T48 682Q48 728 85 760T178 792Q232
792 267 761Z" />
<glyph unicode="&#xb4;" glyph-name="acute" horiz-adv-x="273" d="M179 781T195 781Q212 781 223 770T234 741Q234 725 223 715L111 602Q101 592 85 592Q69 592 58 603T46 631Q46 647 55 657L168 770Q179 781 195 781Z" />
<glyph unicode="&#xb5;" glyph-name="uni00B5" horiz-adv-x="677" d="M565 547T576 537T587 509V39Q587 22 576 11T548 0Q531 0 521 11T510 39V79Q480 39 435 17T336 -6Q278 -6 232 19T157 89V-195Q157 -212 146 -223T118 -234Q101 -234 91 -223T80 -195V509Q80
526 90 536T118 547Q135 547 146 537T157 509V249Q157 197 180 156T243 91T336 67Q412 67 461 108T510 213V509Q510 526 520 536T548 547Q565 547 576 537Z" />
<glyph unicode="&#xb6;" glyph-name="paragraph" horiz-adv-x="571" d="M318 23T307 12T279 0Q263 0 252 11T240 39V391Q184 392 140 418T70 489T45 586Q45 640 71 685T141 756T240 782H487Q504 782 515 771T526 742Q526 728 515 718T487 705V39Q487 23 476 12T448
0Q432 0 421 11T409 39V704H318V39Q318 23 307 12Z" />
<glyph unicode="&#xb7;" glyph-name="middot" horiz-adv-x="195" d="M120 430T136 413T153 371Q153 347 137 330T96 313Q72 313 55 330T37 371Q37 396 54 413T96 430Q120 430 136 413Z" />
<glyph unicode="&#xb8;" glyph-name="cedilla" horiz-adv-x="313" d="M246 -49T267 -72T289 -129Q289 -157 271 -181T222 -219T153 -233Q101 -233 66 -211T31 -159Q31 -144 42 -133T68 -122Q87 -122 103 -143Q119 -167 154 -167Q177 -167 192 -157T207 -129Q207
-110 195 -99T155 -81Q136 -77 126 -70T116 -49Q116 -41 121 -26L137 15Q147 45 181 45Q196 45 205 37T214 15Q214 8 211 0L196 -36Q246 -49 267 -72Z" />
<glyph unicode="&#xb9;" glyph-name="uni00B9" horiz-adv-x="274" d="M63 675T52 675Q20 675 20 705Q20 727 47 737L156 775Q171 780 180 780Q210 780 210 741V425Q210 386 176 386Q159 386 151 396T142 425V701L80 680Q63 675 52 675Z" />
<glyph unicode="&#xba;" glyph-name="ordmasculine" horiz-adv-x="472" d="M291 790T336 765T406 694T432 594Q432 539 407 495T336 424T236 398Q181 398 136 424T66 494T40 594Q40 649 65 694T136 764T236 790Q291 790 336 765ZM184 716T149 682T114 594Q114
542 149 508T236 473Q288 473 323 507T358 594Q358 647 324 681T236 716Q184 716 149 682Z" />
<glyph unicode="&#xbb;" glyph-name="guillemotright" horiz-adv-x="469" d="M39 501T39 508Q39 524 50 535T78 546Q101 546 114 522L229 292Q234 280 234 273Q234 264 228 252L114 24Q102 0 78 0Q62 0 51 11T40 39Q40 48 43 55L151 273L43 491Q39 501 39 508ZM241
493T240 498T238 508Q238 524 249 535T277 546Q300 546 313 522L428 292Q433 280 433 273Q433 268 427 252L313 24Q300 0 277 0Q261 0 250 11T238 39Q238 48 241 55L350 273L241 491Q241 493 240 498Z" />
<glyph unicode="&#xbc;" glyph-name="onequarter" horiz-adv-x="764" d="M63 675T52 675Q20 675 20 705Q20 727 47 737L156 775Q171 780 180 780Q210 780 210 741V425Q210 386 176 386Q159 386 151 396T142 425V701L80 680Q63 675 52 675ZM597 787T616 787Q630
787 639 779T648 757Q648 746 639 732L170 20Q157 0 139 0Q126 0 118 8T109 29Q109 39 115 49L584 768Q597 787 616 787ZM414 85T404 94T393 118Q393 133 405 149L586 383Q601 401 621 401Q636 401 646 392T657 368V145H692Q706 145 714 137T723 115Q723 100 715
93T692 85H657V28Q657 -4 623 -4Q608 -4 599 5T590 28V85H430Q414 85 404 94ZM474 145H591L592 301L474 145Z" />
<glyph unicode="&#xbd;" glyph-name="onehalf" horiz-adv-x="812" d="M63 675T52 675Q20 675 20 705Q20 727 47 737L156 775Q171 780 180 780Q210 780 210 741V425Q210 386 176 386Q159 386 151 396T142 425V701L80 680Q63 675 52 675ZM652 787T671 787Q685 787
694 779T703 757Q703 746 694 732L225 20Q212 0 194 0Q181 0 173 8T164 29Q164 39 170 49L639 768Q652 787 671 787ZM757 65T767 57T778 33Q778 17 768 9T741 0H546Q530 0 520 10T509 37Q509 54 518 63L677 235Q699 258 699 285Q699 310 681 327T636 344Q603 344
583 325T562 278Q562 261 555 251T531 241Q517 241 509 251T501 278Q501 333 539 369T637 406Q694 406 729 372T765 284Q765 256 751 235T711 186L597 65H741Q757 65 767 57Z" />
<glyph unicode="&#xbe;" glyph-name="threequarters" horiz-adv-x="837" d="M232 792T267 761T303 680Q303 653 287 629T245 594Q278 583 296 558T315 497Q315 445 278 412T183 378Q123 378 84 413T45 501Q45 518 54 528T80 538Q95 538 102 528T110 501Q110 475
130 458T182 440Q210 440 229 456T248 498Q248 526 232 544T192 562Q173 562 163 570T152 593Q152 626 187 626Q212 626 225 639T239 677Q239 700 223 714T179 728Q149 728 132 715T110 679Q108 667 100 658T82 649Q68 649 58 658T48 682Q48 728 85 760T178 792Q232
792 267 761ZM644 787T663 787Q677 787 686 779T695 757Q695 746 686 732L217 20Q204 0 186 0Q173 0 165 8T156 29Q156 39 162 49L631 768Q644 787 663 787ZM482 85T472 94T461 118Q461 133 473 149L654 383Q669 401 689 401Q704 401 714 392T725 368V145H760Q774
145 782 137T791 115Q791 100 783 93T760 85H725V28Q725 -4 691 -4Q676 -4 667 5T658 28V85H498Q482 85 472 94ZM542 145H659L660 301L542 145Z" />
<glyph unicode="&#xbf;" glyph-name="questiondown" horiz-adv-x="547" d="M201 -176T149 -148T67 -69T37 44Q37 93 53 129T93 194T163 263L181 279Q209 304 220 337T232 404Q232 421 243 432T271 444Q288 444 299 433T310 404Q310 363 290 317T236 239L211 216Q177
184 158 163T127 111T114 40Q114 1 133 -31T187 -83T267 -102Q341 -102 384 -58T428 58Q428 75 438 85T466 96Q483 96 494 86T505 58Q505 -10 475 -63T391 -146T267 -176Q201 -176 149 -148ZM247 504T230 521T212 563Q212 587 229 604T271 621Q296 621 312 604T329
563Q329 538 312 521T271 504Q247 504 230 521Z" />
<glyph unicode="&#xc0;" glyph-name="Agrave" horiz-adv-x="703" d="M690 48T690 39Q690 23 679 12T651 0Q625 0 614 24L547 186H160L93 24Q85 0 57 0Q40 0 30 11T19 39Q19 49 22 56L316 754Q327 781 354 781Q381 781 391 754L686 55Q690 48 690 39ZM520 253L354
654L188 253H520ZM202 1003T202 1020Q202 1037 213 1048T240 1060Q256 1060 268 1048L380 935Q390 926 390 910Q390 893 379 882T351 870Q336 870 325 881L212 993Q202 1003 202 1020Z" />
<glyph unicode="&#xc1;" glyph-name="Aacute" horiz-adv-x="703" d="M690 48T690 39Q690 23 679 12T651 0Q625 0 614 24L547 186H160L93 24Q85 0 57 0Q40 0 30 11T19 39Q19 49 22 56L316 754Q327 781 354 781Q381 781 391 754L686 55Q690 48 690 39ZM520 253L354
654L188 253H520ZM439 1053T455 1053Q472 1053 483 1042T494 1013Q494 997 483 987L371 874Q361 864 345 864Q328 864 317 875T306 903Q306 919 315 929L428 1042Q439 1053 455 1053Z" />
<glyph unicode="&#xc2;" glyph-name="Acircumflex" horiz-adv-x="703" d="M690 48T690 39Q690 23 679 12T651 0Q625 0 614 24L547 186H160L93 24Q85 0 57 0Q40 0 30 11T19 39Q19 49 22 56L316 754Q327 781 354 781Q381 781 391 754L686 55Q690 48 690 39ZM520
253L354 654L188 253H520ZM248 868T236 868Q219 868 208 877T196 903Q196 924 215 937L333 1015Q341 1020 352 1020Q362 1020 372 1015L489 937Q508 924 508 903Q508 888 497 878T469 868Q458 868 445 876L352 940L259 876Q248 868 236 868Z" />
<glyph unicode="&#xc3;" glyph-name="Atilde" horiz-adv-x="703" d="M690 48T690 39Q690 23 679 12T651 0Q625 0 614 24L547 186H160L93 24Q85 0 57 0Q40 0 30 11T19 39Q19 49 22 56L316 754Q327 781 354 781Q381 781 391 754L686 55Q690 48 690 39ZM520 253L354
654L188 253H520ZM315 1004T330 995T368 966Q384 952 392 947T409 942Q416 942 422 947T434 966Q439 977 449 983T469 990Q473 990 479 988Q503 978 503 958Q503 949 499 942Q482 907 462 892T416 876Q375 876 338 913Q322 928 313 934T293 940Q282 940 274 931T255
903Q242 882 223 882Q208 882 199 891T190 913Q190 922 194 930Q213 969 236 986T289 1004Q315 1004 330 995Z" />
<glyph unicode="&#xc4;" glyph-name="Adieresis" horiz-adv-x="703" d="M690 48T690 39Q690 23 679 12T651 0Q625 0 614 24L547 186H160L93 24Q85 0 57 0Q40 0 30 11T19 39Q19 49 22 56L316 754Q327 781 354 781Q381 781 391 754L686 55Q690 48 690 39ZM520 253L354
654L188 253H520ZM271 991T287 975T303 936Q303 913 287 897T248 881Q225 881 209 897T193 936Q193 959 209 975T248 991Q271 991 287 975ZM480 991T496 975T512 936Q512 913 496 897T457 881Q434 881 418 897T402 936Q402 959 418 975T457 991Q480 991 496 975Z"
/>
<glyph unicode="&#xc5;" glyph-name="Aring" horiz-adv-x="703" d="M690 48T690 39Q690 23 679 12T651 0Q625 0 614 24L547 186H160L93 24Q85 0 57 0Q40 0 30 11T19 39Q19 49 22 56L316 754Q327 781 354 781Q381 781 391 754L686 55Q690 48 690 39ZM520 253L354
654L188 253H520ZM394 1023T422 995T450 925Q450 883 422 855T352 827Q311 827 283 855T254 925Q254 967 282 995T352 1023Q394 1023 422 995ZM330 978T315 963T300 925Q300 903 315 888T352 872Q375 872 390 887T405 925Q405 948 390 963T352 978Q330 978 315
963Z" />
<glyph unicode="&#xc6;" glyph-name="AE" horiz-adv-x="960" d="M893 75T904 65T915 38Q915 22 904 11T877 0H483Q467 0 456 11T444 39V186H191L95 24Q83 0 59 0Q42 0 31 11T19 38Q19 46 24 56L443 751Q452 766 464 773T496 781H877Q893 781 904 770T915 743Q915
727 904 717T877 706H522V430H760Q777 430 787 420T798 392Q798 376 787 365T760 354H522V75H877Q893 75 904 65ZM444 253V611L232 253H444Z" />
<glyph unicode="&#xc7;" glyph-name="Ccedilla" horiz-adv-x="771" d="M523 791T582 770T696 703Q707 695 707 680Q707 672 703 666T692 656Q690 649 683 645T668 641Q653 641 643 650Q604 685 558 701T451 717Q367 717 295 673T181 553T138 391Q138 302 180 227T294
108T451 64Q560 64 648 134Q659 142 670 142Q685 142 696 132T707 104Q707 88 696 76Q602 -10 451 -10Q345 -10 256 44T115 190T62 391Q62 499 114 591T255 737T451 791Q523 791 582 770ZM531 -49T552 -72T574 -129Q574 -157 556 -181T507 -219T438 -233Q386 -233
351 -211T316 -159Q316 -144 327 -133T353 -122Q372 -122 388 -143Q404 -167 439 -167Q462 -167 477 -157T492 -129Q492 -110 480 -99T440 -81Q421 -77 411 -70T401 -49Q401 -41 406 -26L422 15Q432 45 466 45Q481 45 490 37T499 15Q499 8 496 0L481 -36Q531 -49
552 -72Z" />
<glyph unicode="&#xc8;" glyph-name="Egrave" horiz-adv-x="692" d="M625 75T636 65T647 38Q647 22 636 11T608 0H139Q123 0 112 11T100 39V742Q100 759 111 770T139 781H608Q625 781 636 770T647 743Q647 727 636 717T608 706H178V430H491Q508 430 519 419T530
392Q530 376 519 365T491 354H178V75H608Q625 75 636 65ZM231 1003T231 1020Q231 1037 242 1048T269 1060Q285 1060 297 1048L409 935Q419 926 419 910Q419 893 408 882T380 870Q365 870 354 881L241 993Q231 1003 231 1020Z" />
<glyph unicode="&#xc9;" glyph-name="Eacute" horiz-adv-x="692" d="M625 75T636 65T647 38Q647 22 636 11T608 0H139Q123 0 112 11T100 39V742Q100 759 111 770T139 781H608Q625 781 636 770T647 743Q647 727 636 717T608 706H178V430H491Q508 430 519 419T530
392Q530 376 519 365T491 354H178V75H608Q625 75 636 65ZM468 1053T484 1053Q501 1053 512 1042T523 1013Q523 997 512 987L400 874Q390 864 374 864Q357 864 346 875T335 903Q335 919 344 929L457 1042Q468 1053 484 1053Z" />
<glyph unicode="&#xca;" glyph-name="Ecircumflex" horiz-adv-x="692" d="M625 75T636 65T647 38Q647 22 636 11T608 0H139Q123 0 112 11T100 39V742Q100 759 111 770T139 781H608Q625 781 636 770T647 743Q647 727 636 717T608 706H178V430H491Q508 430 519 419T530
392Q530 376 519 365T491 354H178V75H608Q625 75 636 65ZM277 868T265 868Q248 868 237 877T225 903Q225 924 244 937L362 1015Q370 1020 381 1020Q391 1020 401 1015L518 937Q537 924 537 903Q537 888 526 878T498 868Q487 868 474 876L381 940L288 876Q277 868
265 868Z" />
<glyph unicode="&#xcb;" glyph-name="Edieresis" horiz-adv-x="692" d="M625 75T636 65T647 38Q647 22 636 11T608 0H139Q123 0 112 11T100 39V742Q100 759 111 770T139 781H608Q625 781 636 770T647 743Q647 727 636 717T608 706H178V430H491Q508 430 519 419T530
392Q530 376 519 365T491 354H178V75H608Q625 75 636 65ZM300 991T316 975T332 936Q332 913 316 897T277 881Q254 881 238 897T222 936Q222 959 238 975T277 991Q300 991 316 975ZM509 991T525 975T541 936Q541 913 525 897T486 881Q463 881 447 897T431 936Q431
959 447 975T486 991Q509 991 525 975Z" />
<glyph unicode="&#xcc;" glyph-name="Igrave" horiz-adv-x="278" d="M100 759T111 770T139 781Q156 781 167 770T178 742V39Q178 23 167 12T139 0Q123 0 112 11T100 39V742Q100 759 111 770ZM-11 1003T-11 1020Q-11 1037 0 1048T27 1060Q43 1060 55 1048L167 935Q177
926 177 910Q177 893 166 882T138 870Q123 870 112 881L-1 993Q-11 1003 -11 1020Z" />
<glyph unicode="&#xcd;" glyph-name="Iacute" horiz-adv-x="278" d="M100 759T111 770T139 781Q156 781 167 770T178 742V39Q178 23 167 12T139 0Q123 0 112 11T100 39V742Q100 759 111 770ZM226 1053T242 1053Q259 1053 270 1042T281 1013Q281 997 270 987L158
874Q148 864 132 864Q115 864 104 875T93 903Q93 919 102 929L215 1042Q226 1053 242 1053Z" />
<glyph unicode="&#xce;" glyph-name="Icircumflex" horiz-adv-x="278" d="M100 759T111 770T139 781Q156 781 167 770T178 742V39Q178 23 167 12T139 0Q123 0 112 11T100 39V742Q100 759 111 770ZM35 868T23 868Q6 868 -5 877T-17 903Q-17 924 2 937L120 1015Q128
1020 139 1020Q149 1020 159 1015L276 937Q295 924 295 903Q295 888 284 878T256 868Q245 868 232 876L139 940L46 876Q35 868 23 868Z" />
<glyph unicode="&#xcf;" glyph-name="Idieresis" horiz-adv-x="278" d="M100 759T111 770T139 781Q156 781 167 770T178 742V39Q178 23 167 12T139 0Q123 0 112 11T100 39V742Q100 759 111 770ZM58 991T74 975T90 936Q90 913 74 897T35 881Q12 881 -4 897T-20
936Q-20 959 -4 975T35 991Q58 991 74 975ZM267 991T283 975T299 936Q299 913 283 897T244 881Q221 881 205 897T189 936Q189 959 205 975T244 991Q267 991 283 975Z" />
<glyph unicode="&#xd0;" glyph-name="Eth" horiz-adv-x="770" d="M432 781T521 731T659 593T709 391Q709 278 660 189T521 50T319 0H139Q122 0 111 11T100 39V357H36Q20 357 10 366T0 391Q0 407 10 416T36 425H100V742Q100 759 111 770T139 781H319Q432 781 521
731ZM410 70T481 111T592 226T632 391Q632 483 592 556T481 670T319 711H178V425H328Q345 425 355 416T365 391Q365 375 355 366T328 357H178V70H319Q410 70 481 111Z" />
<glyph unicode="&#xd1;" glyph-name="Ntilde" horiz-adv-x="825" d="M647 759T658 770T686 781Q703 781 714 770T725 742V39Q725 23 714 12T686 0Q666 0 657 13L178 641V39Q178 23 167 12T139 0Q122 0 111 11T100 39V742Q100 759 111 770T139 781Q157 781 169
767L647 139V742Q647 759 658 770ZM390 984T410 976T456 952Q479 938 490 933T517 928Q548 928 566 948Q581 965 597 965Q605 965 613 960Q631 951 631 932Q631 921 623 910Q583 861 518 861Q490 861 468 870T421 894Q400 907 387 912T361 917Q324 917 295 882Q289
873 280 868T262 863Q253 863 245 868Q238 872 234 879T229 895Q229 907 236 917Q261 949 294 966T363 984Q390 984 410 976Z" />
<glyph unicode="&#xd2;" glyph-name="Ograve" horiz-adv-x="921" d="M574 791T665 739T808 596T860 391Q860 277 809 186T666 42T461 -10Q347 -10 256 42T114 185T62 391Q62 505 113 596T256 739T461 791Q574 791 665 739ZM369 717T296 674T180 557T138 391Q138
299 180 225T295 107T461 64Q552 64 625 107T741 224T783 391Q783 482 741 556T626 674T461 717Q369 717 296 674ZM311 1003T311 1020Q311 1037 322 1048T349 1060Q365 1060 377 1048L489 935Q499 926 499 910Q499 893 488 882T460 870Q445 870 434 881L321 993Q311
1003 311 1020Z" />
<glyph unicode="&#xd3;" glyph-name="Oacute" horiz-adv-x="921" d="M574 791T665 739T808 596T860 391Q860 277 809 186T666 42T461 -10Q347 -10 256 42T114 185T62 391Q62 505 113 596T256 739T461 791Q574 791 665 739ZM369 717T296 674T180 557T138 391Q138
299 180 225T295 107T461 64Q552 64 625 107T741 224T783 391Q783 482 741 556T626 674T461 717Q369 717 296 674ZM548 1053T564 1053Q581 1053 592 1042T603 1013Q603 997 592 987L480 874Q470 864 454 864Q437 864 426 875T415 903Q415 919 424 929L537 1042Q548
1053 564 1053Z" />
<glyph unicode="&#xd4;" glyph-name="Ocircumflex" horiz-adv-x="921" d="M574 791T665 739T808 596T860 391Q860 277 809 186T666 42T461 -10Q347 -10 256 42T114 185T62 391Q62 505 113 596T256 739T461 791Q574 791 665 739ZM369 717T296 674T180 557T138 391Q138
299 180 225T295 107T461 64Q552 64 625 107T741 224T783 391Q783 482 741 556T626 674T461 717Q369 717 296 674ZM357 868T345 868Q328 868 317 877T305 903Q305 924 324 937L442 1015Q450 1020 461 1020Q471 1020 481 1015L598 937Q617 924 617 903Q617 888 606
878T578 868Q567 868 554 876L461 940L368 876Q357 868 345 868Z" />
<glyph unicode="&#xd5;" glyph-name="Otilde" horiz-adv-x="921" d="M574 791T665 739T808 596T860 391Q860 277 809 186T666 42T461 -10Q347 -10 256 42T114 185T62 391Q62 505 113 596T256 739T461 791Q574 791 665 739ZM369 717T296 674T180 557T138 391Q138
299 180 225T295 107T461 64Q552 64 625 107T741 224T783 391Q783 482 741 556T626 674T461 717Q369 717 296 674ZM438 984T458 976T504 952Q527 938 538 933T565 928Q596 928 614 948Q629 965 645 965Q653 965 661 960Q679 951 679 932Q679 921 671 910Q631 861
566 861Q538 861 516 870T469 894Q448 907 435 912T409 917Q372 917 343 882Q337 873 328 868T310 863Q301 863 293 868Q286 872 282 879T277 895Q277 907 284 917Q309 949 342 966T411 984Q438 984 458 976Z" />
<glyph unicode="&#xd6;" glyph-name="Odieresis" horiz-adv-x="921" d="M574 791T665 739T808 596T860 391Q860 277 809 186T666 42T461 -10Q347 -10 256 42T114 185T62 391Q62 505 113 596T256 739T461 791Q574 791 665 739ZM369 717T296 674T180 557T138 391Q138
299 180 225T295 107T461 64Q552 64 625 107T741 224T783 391Q783 482 741 556T626 674T461 717Q369 717 296 674ZM380 991T396 975T412 936Q412 913 396 897T357 881Q334 881 318 897T302 936Q302 959 318 975T357 991Q380 991 396 975ZM589 991T605 975T621 936Q621
913 605 897T566 881Q543 881 527 897T511 936Q511 959 527 975T566 991Q589 991 605 975Z" />
<glyph unicode="&#xd7;" glyph-name="multiply" horiz-adv-x="469" d="M374 547T391 547Q407 547 418 536T430 508Q430 492 419 481L290 352L419 223Q430 210 430 195Q430 179 419 168T391 156Q374 156 364 166L234 296L105 166Q94 156 78 156Q62 156 51 167T39
195Q39 210 49 223L179 352L49 481Q39 493 39 507Q39 524 50 535T78 547Q93 547 106 536L234 407L363 536Q374 547 391 547Z" />
<glyph unicode="&#xd8;" glyph-name="Oslash" horiz-adv-x="884" d="M813 601T836 534T860 391Q860 277 809 186T666 42T461 -10Q382 -10 313 16T191 89L110 8Q102 0 89 0Q75 0 67 9T58 31Q58 43 66 51L148 133Q107 186 85 251T62 391Q62 505 113 596T256 739T461
791Q538 791 606 767T726 696L804 773Q812 781 825 781Q838 781 847 772T857 751Q857 740 848 731L769 652Q813 601 836 534ZM369 717T296 674T180 557T138 391Q138 272 207 184L668 645Q626 679 573 698T461 717Q369 717 296 674ZM552 64T625 107T741 224T783
391Q783 451 765 505T711 601L249 139Q292 103 346 84T461 64Q552 64 625 107Z" />
<glyph unicode="&#xd9;" glyph-name="Ugrave" horiz-adv-x="819" d="M100 759T111 770T139 781Q156 781 167 770T178 742V258Q178 200 207 155T290 84T411 58Q478 58 530 83T611 154T641 258V742Q641 759 652 770T680 781Q697 781 708 770T719 742V258Q719 179
680 117T570 19T411 -16Q321 -16 250 19T140 116T100 258V742Q100 759 111 770ZM260 1003T260 1020Q260 1037 271 1048T298 1060Q314 1060 326 1048L438 935Q448 926 448 910Q448 893 437 882T409 870Q394 870 383 881L270 993Q260 1003 260 1020Z" />
<glyph unicode="&#xda;" glyph-name="Uacute" horiz-adv-x="819" d="M100 759T111 770T139 781Q156 781 167 770T178 742V258Q178 200 207 155T290 84T411 58Q478 58 530 83T611 154T641 258V742Q641 759 652 770T680 781Q697 781 708 770T719 742V258Q719 179
680 117T570 19T411 -16Q321 -16 250 19T140 116T100 258V742Q100 759 111 770ZM497 1053T513 1053Q530 1053 541 1042T552 1013Q552 997 541 987L429 874Q419 864 403 864Q386 864 375 875T364 903Q364 919 373 929L486 1042Q497 1053 513 1053Z" />
<glyph unicode="&#xdb;" glyph-name="Ucircumflex" horiz-adv-x="819" d="M100 759T111 770T139 781Q156 781 167 770T178 742V258Q178 200 207 155T290 84T411 58Q478 58 530 83T611 154T641 258V742Q641 759 652 770T680 781Q697 781 708 770T719 742V258Q719
179 680 117T570 19T411 -16Q321 -16 250 19T140 116T100 258V742Q100 759 111 770ZM306 868T294 868Q277 868 266 877T254 903Q254 924 273 937L391 1015Q399 1020 410 1020Q420 1020 430 1015L547 937Q566 924 566 903Q566 888 555 878T527 868Q516 868 503 876L410
940L317 876Q306 868 294 868Z" />
<glyph unicode="&#xdc;" glyph-name="Udieresis" horiz-adv-x="819" d="M100 759T111 770T139 781Q156 781 167 770T178 742V258Q178 200 207 155T290 84T411 58Q478 58 530 83T611 154T641 258V742Q641 759 652 770T680 781Q697 781 708 770T719 742V258Q719
179 680 117T570 19T411 -16Q321 -16 250 19T140 116T100 258V742Q100 759 111 770ZM329 991T345 975T361 936Q361 913 345 897T306 881Q283 881 267 897T251 936Q251 959 267 975T306 991Q329 991 345 975ZM538 991T554 975T570 936Q570 913 554 897T515 881Q492
881 476 897T460 936Q460 959 476 975T515 991Q538 991 554 975Z" />
<glyph unicode="&#xdd;" glyph-name="Yacute" horiz-adv-x="648" d="M624 781T633 771T643 745Q643 731 636 720L363 289V39Q363 23 352 12T324 0Q308 0 297 11T285 39V289L13 720Q5 733 5 745Q5 760 16 770T43 781Q54 781 61 777T76 762L325 361L573 760Q581
771 589 776T609 781Q624 781 633 771ZM411 1053T427 1053Q444 1053 455 1042T466 1013Q466 997 455 987L343 874Q333 864 317 864Q300 864 289 875T278 903Q278 919 287 929L400 1042Q411 1053 427 1053Z" />
<glyph unicode="&#xde;" glyph-name="Thorn" horiz-adv-x="612" d="M178 22T167 11T139 0Q122 0 111 11T100 39V742Q100 759 111 770T139 781Q156 781 167 770T178 742V644H339Q412 644 469 615T559 534T591 413Q591 346 559 295T470 214T339 185H178V39Q178 22
167 11ZM390 253T430 274T492 331T515 413Q515 459 493 496T430 554T339 576H178V253H339Q390 253 430 274Z" />
<glyph unicode="&#xdf;" glyph-name="germandbls" horiz-adv-x="547" d="M52 633T78 677T153 748T262 774Q317 774 360 752T428 689T453 598Q453 563 440 538T401 483Q382 461 373 445T363 410Q363 389 376 372T422 324Q465 286 489 251T514 167Q514 119 489 80T420
19T321 -4Q286 -4 251 8T194 41T171 82Q171 97 179 106T203 116Q214 116 221 112T238 99Q253 85 271 77T325 69Q378 69 408 94T438 167Q438 201 420 226T364 287Q326 323 308 348T290 408Q290 437 301 456T336 501Q359 527 370 546T381 594Q381 646 349 674T260
702Q204 702 167 666T130 572V38Q130 21 119 11T90 0Q74 0 63 11T52 38V578Q52 633 78 677Z" />
<glyph unicode="&#xe0;" glyph-name="agrave" horiz-adv-x="677" d="M417 552T480 516T580 415T617 273V38Q617 22 606 11T578 0Q561 0 550 10T539 38V98Q504 50 450 23T331 -5Q255 -5 194 31T97 131T61 273Q61 351 97 415T197 515T339 552Q417 552 480 516ZM396
65T442 92T514 166T541 273Q541 332 515 379T442 454T339 482Q282 482 236 455T163 380T136 273Q136 214 162 167T235 92T339 65Q396 65 442 92ZM189 769T189 786Q189 803 200 814T227 826Q243 826 255 814L367 701Q377 692 377 676Q377 659 366 648T338 636Q323
636 312 647L199 759Q189 769 189 786Z" />
<glyph unicode="&#xe1;" glyph-name="aacute" horiz-adv-x="677" d="M417 552T480 516T580 415T617 273V38Q617 22 606 11T578 0Q561 0 550 10T539 38V98Q504 50 450 23T331 -5Q255 -5 194 31T97 131T61 273Q61 351 97 415T197 515T339 552Q417 552 480 516ZM396
65T442 92T514 166T541 273Q541 332 515 379T442 454T339 482Q282 482 236 455T163 380T136 273Q136 214 162 167T235 92T339 65Q396 65 442 92ZM426 819T442 819Q459 819 470 808T481 779Q481 763 470 753L358 640Q348 630 332 630Q315 630 304 641T293 669Q293
685 302 695L415 808Q426 819 442 819Z" />
<glyph unicode="&#xe2;" glyph-name="acircumflex" horiz-adv-x="677" d="M417 552T480 516T580 415T617 273V38Q617 22 606 11T578 0Q561 0 550 10T539 38V98Q504 50 450 23T331 -5Q255 -5 194 31T97 131T61 273Q61 351 97 415T197 515T339 552Q417 552 480 516ZM396
65T442 92T514 166T541 273Q541 332 515 379T442 454T339 482Q282 482 236 455T163 380T136 273Q136 214 162 167T235 92T339 65Q396 65 442 92ZM235 634T223 634Q206 634 195 643T183 669Q183 690 202 703L320 781Q328 786 339 786Q349 786 359 781L476 703Q495
690 495 669Q495 654 484 644T456 634Q445 634 432 642L339 706L246 642Q235 634 223 634Z" />
<glyph unicode="&#xe3;" glyph-name="atilde" horiz-adv-x="677" d="M417 552T480 516T580 415T617 273V38Q617 22 606 11T578 0Q561 0 550 10T539 38V98Q504 50 450 23T331 -5Q255 -5 194 31T97 131T61 273Q61 351 97 415T197 515T339 552Q417 552 480 516ZM396
65T442 92T514 166T541 273Q541 332 515 379T442 454T339 482Q282 482 236 455T163 380T136 273Q136 214 162 167T235 92T339 65Q396 65 442 92ZM316 750T336 742T382 718Q405 704 416 699T443 694Q474 694 492 714Q507 731 523 731Q531 731 539 726Q557 717 557
698Q557 687 549 676Q509 627 444 627Q416 627 394 636T347 660Q326 673 313 678T287 683Q250 683 221 648Q215 639 206 634T188 629Q179 629 171 634Q164 638 160 645T155 661Q155 673 162 683Q187 715 220 732T289 750Q316 750 336 742Z" />
<glyph unicode="&#xe4;" glyph-name="adieresis" horiz-adv-x="677" d="M417 552T480 516T580 415T617 273V38Q617 22 606 11T578 0Q561 0 550 10T539 38V98Q504 50 450 23T331 -5Q255 -5 194 31T97 131T61 273Q61 351 97 415T197 515T339 552Q417 552 480 516ZM396
65T442 92T514 166T541 273Q541 332 515 379T442 454T339 482Q282 482 236 455T163 380T136 273Q136 214 162 167T235 92T339 65Q396 65 442 92ZM258 757T274 741T290 702Q290 679 274 663T235 647Q212 647 196 663T180 702Q180 725 196 741T235 757Q258 757 274
741ZM467 757T483 741T499 702Q499 679 483 663T444 647Q421 647 405 663T389 702Q389 725 405 741T444 757Q467 757 483 741Z" />
<glyph unicode="&#xe5;" glyph-name="aring" horiz-adv-x="677" d="M417 552T480 516T580 415T617 273V38Q617 22 606 11T578 0Q561 0 550 10T539 38V98Q504 50 450 23T331 -5Q255 -5 194 31T97 131T61 273Q61 351 97 415T197 515T339 552Q417 552 480 516ZM396
65T442 92T514 166T541 273Q541 332 515 379T442 454T339 482Q282 482 236 455T163 380T136 273Q136 214 162 167T235 92T339 65Q396 65 442 92ZM381 789T409 761T437 691Q437 649 409 621T339 593Q298 593 270 621T241 691Q241 733 269 761T339 789Q381 789 409
761ZM317 744T302 729T287 691Q287 669 302 654T339 638Q362 638 377 653T392 691Q392 714 377 729T339 744Q317 744 302 729Z" />
<glyph unicode="&#xe6;" glyph-name="ae" horiz-adv-x="1096" d="M880 552T937 518T1025 422T1056 283Q1056 267 1046 258T1020 248H617V241Q627 162 683 113T820 64Q859 64 893 76T951 108Q964 118 978 118Q992 118 1000 110Q1014 98 1014 83Q1014 71 1002 60Q969
32 918 14T820 -5Q758 -5 706 18T617 85V38Q617 22 606 11T578 0Q561 0 550 10T539 38V98Q504 50 450 23T331 -5Q255 -5 194 31T97 131T61 273Q61 351 97 415T197 515T339 552Q418 552 482 514T582 411Q613 477 671 514T805 552Q880 552 937 518ZM729 483T679 436T618
312H985Q977 389 929 436T805 483Q729 483 679 436ZM396 65T442 92T514 166T541 273Q541 332 515 379T442 454T339 482Q282 482 236 455T163 380T136 273Q136 214 162 167T235 92T339 65Q396 65 442 92Z" />
<glyph unicode="&#xe7;" glyph-name="ccedilla" horiz-adv-x="596" d="M449 552T527 456Q535 447 535 435Q535 419 518 407Q509 401 499 401Q484 401 470 416Q440 449 404 465T324 482Q269 482 226 456T160 381T136 273Q136 214 161 167T231 92T334 65Q414 65
463 108Q476 119 490 119Q502 119 512 111Q526 99 526 84Q526 71 516 62Q444 -5 334 -5Q256 -5 194 31T97 131T61 273Q61 353 95 416T189 516T324 552Q449 552 527 456ZM403 -49T424 -72T446 -129Q446 -157 428 -181T379 -219T310 -233Q258 -233 223 -211T188 -159Q188
-144 199 -133T225 -122Q244 -122 260 -143Q276 -167 311 -167Q334 -167 349 -157T364 -129Q364 -110 352 -99T312 -81Q293 -77 283 -70T273 -49Q273 -41 278 -26L294 15Q304 45 338 45Q353 45 362 37T371 15Q371 8 368 0L353 -36Q403 -49 424 -72Z" />
<glyph unicode="&#xe8;" glyph-name="egrave" horiz-adv-x="614" d="M397 552T454 518T542 422T574 283Q574 267 564 258T538 248H134Q142 166 198 115T338 64Q374 64 410 76T469 108Q482 118 496 118Q507 118 518 110Q531 98 531 83Q531 70 520 60Q487 32 436
14T338 -5Q258 -5 195 30T97 129T61 273Q61 354 94 417T187 516T323 552Q397 552 454 518ZM247 483T197 436T136 312H502Q494 389 446 436T323 483Q247 483 197 436ZM168 769T168 786Q168 803 179 814T206 826Q222 826 234 814L346 701Q356 692 356 676Q356 659
345 648T317 636Q302 636 291 647L178 759Q168 769 168 786Z" />
<glyph unicode="&#xe9;" glyph-name="eacute" horiz-adv-x="614" d="M397 552T454 518T542 422T574 283Q574 267 564 258T538 248H134Q142 166 198 115T338 64Q374 64 410 76T469 108Q482 118 496 118Q507 118 518 110Q531 98 531 83Q531 70 520 60Q487 32 436
14T338 -5Q258 -5 195 30T97 129T61 273Q61 354 94 417T187 516T323 552Q397 552 454 518ZM247 483T197 436T136 312H502Q494 389 446 436T323 483Q247 483 197 436ZM405 819T421 819Q438 819 449 808T460 779Q460 763 449 753L337 640Q327 630 311 630Q294 630
283 641T272 669Q272 685 281 695L394 808Q405 819 421 819Z" />
<glyph unicode="&#xea;" glyph-name="ecircumflex" horiz-adv-x="614" d="M397 552T454 518T542 422T574 283Q574 267 564 258T538 248H134Q142 166 198 115T338 64Q374 64 410 76T469 108Q482 118 496 118Q507 118 518 110Q531 98 531 83Q531 70 520 60Q487 32
436 14T338 -5Q258 -5 195 30T97 129T61 273Q61 354 94 417T187 516T323 552Q397 552 454 518ZM247 483T197 436T136 312H502Q494 389 446 436T323 483Q247 483 197 436ZM214 634T202 634Q185 634 174 643T162 669Q162 690 181 703L299 781Q307 786 318 786Q328
786 338 781L455 703Q474 690 474 669Q474 654 463 644T435 634Q424 634 411 642L318 706L225 642Q214 634 202 634Z" />
<glyph unicode="&#xeb;" glyph-name="edieresis" horiz-adv-x="614" d="M397 552T454 518T542 422T574 283Q574 267 564 258T538 248H134Q142 166 198 115T338 64Q374 64 410 76T469 108Q482 118 496 118Q507 118 518 110Q531 98 531 83Q531 70 520 60Q487 32
436 14T338 -5Q258 -5 195 30T97 129T61 273Q61 354 94 417T187 516T323 552Q397 552 454 518ZM247 483T197 436T136 312H502Q494 389 446 436T323 483Q247 483 197 436ZM237 757T253 741T269 702Q269 679 253 663T214 647Q191 647 175 663T159 702Q159 725 175
741T214 757Q237 757 253 741ZM446 757T462 741T478 702Q478 679 462 663T423 647Q400 647 384 663T368 702Q368 725 384 741T423 757Q446 757 462 741Z" />
<glyph unicode="&#xec;" glyph-name="igrave" horiz-adv-x="289" d="M106 525T117 536T145 547Q162 547 172 536T183 508V39Q183 22 173 11T145 0Q128 0 117 11T106 39V508Q106 525 117 536ZM-5 769T-5 786Q-5 803 6 814T33 826Q49 826 61 814L173 701Q183 692
183 676Q183 659 172 648T144 636Q129 636 118 647L5 759Q-5 769 -5 786Z" />
<glyph unicode="&#xed;" glyph-name="iacute" horiz-adv-x="289" d="M106 525T117 536T145 547Q162 547 172 536T183 508V39Q183 22 173 11T145 0Q128 0 117 11T106 39V508Q106 525 117 536ZM232 819T248 819Q265 819 276 808T287 779Q287 763 276 753L164 640Q154
630 138 630Q121 630 110 641T99 669Q99 685 108 695L221 808Q232 819 248 819Z" />
<glyph unicode="&#xee;" glyph-name="icircumflex" horiz-adv-x="289" d="M106 525T117 536T145 547Q162 547 172 536T183 508V39Q183 22 173 11T145 0Q128 0 117 11T106 39V508Q106 525 117 536ZM51 634T40 634Q25 634 15 643T4 669Q4 690 22 703L128 781Q135
786 145 786Q154 786 163 781L268 703Q285 690 285 669Q285 654 275 644T250 634Q240 634 229 642L145 706L61 642Q51 634 40 634Z" />
<glyph unicode="&#xef;" glyph-name="idieresis" horiz-adv-x="289" d="M72 780T88 764T105 726Q105 703 89 687T50 670Q27 670 11 686T-6 726Q-6 748 10 764T50 780Q72 780 88 764ZM261 780T277 764T294 726Q294 703 278 687T239 670Q216 670 200 686T184 726Q184
748 200 764T239 780Q261 780 277 764ZM106 525T117 536T145 547Q162 547 172 536T183 508V39Q183 22 173 11T145 0Q128 0 117 11T106 39V508Q106 525 117 536Z" />
<glyph unicode="&#xf0;" glyph-name="eth" horiz-adv-x="667" d="M445 703T497 650T572 526T597 355V273Q597 193 562 130T466 31T327 -5Q250 -5 190 28T95 122T61 258Q61 333 94 392T185 485T319 518Q395 518 452 480T537 377Q531 498 484 569T328 690L293 621Q286
606 270 606Q262 606 255 610Q240 618 240 632Q240 639 244 646L277 711Q261 718 225 730Q192 742 192 763Q192 766 194 774Q201 794 223 794Q230 794 244 790Q266 783 306 767L334 823Q341 839 356 839Q364 839 371 835Q387 826 387 812Q387 808 383 798L356 745Q445
703 497 650ZM383 65T427 89T497 158T522 258Q522 313 497 356T428 424T327 448Q272 448 229 424T161 357T136 258Q136 202 160 158T228 90T327 65Q383 65 427 89Z" />
<glyph unicode="&#xf1;" glyph-name="ntilde" horiz-adv-x="677" d="M420 553T476 523T565 436T597 298V38Q597 22 586 11T559 0Q542 0 531 11T520 38V298Q520 387 471 433T341 480Q292 480 253 461T190 409T167 334V38Q167 21 157 11T129 0Q112 0 101 10T90 38V508Q90
525 101 536T129 547Q146 547 156 536T167 508V474Q200 511 247 532T349 553Q420 553 476 523ZM316 750T336 742T382 718Q405 704 416 699T443 694Q474 694 492 714Q507 731 523 731Q531 731 539 726Q557 717 557 698Q557 687 549 676Q509 627 444 627Q416 627
394 636T347 660Q326 673 313 678T287 683Q250 683 221 648Q215 639 206 634T188 629Q179 629 171 634Q164 638 160 645T155 661Q155 673 162 683Q187 715 220 732T289 750Q316 750 336 742Z" />
<glyph unicode="&#xf2;" glyph-name="ograve" horiz-adv-x="677" d="M418 552T481 516T580 416T617 273Q617 194 581 131T482 31T339 -5Q260 -5 197 31T97 130T61 273Q61 352 97 416T196 516T339 552Q418 552 481 516ZM282 482T236 455T163 381T136 273Q136 214
162 167T235 92T339 65Q397 65 443 92T515 166T541 273Q541 333 515 380T443 455T339 482Q282 482 236 455ZM189 769T189 786Q189 803 200 814T227 826Q243 826 255 814L367 701Q377 692 377 676Q377 659 366 648T338 636Q323 636 312 647L199 759Q189 769 189
786Z" />
<glyph unicode="&#xf3;" glyph-name="oacute" horiz-adv-x="677" d="M418 552T481 516T580 416T617 273Q617 194 581 131T482 31T339 -5Q260 -5 197 31T97 130T61 273Q61 352 97 416T196 516T339 552Q418 552 481 516ZM282 482T236 455T163 381T136 273Q136 214
162 167T235 92T339 65Q397 65 443 92T515 166T541 273Q541 333 515 380T443 455T339 482Q282 482 236 455ZM426 819T442 819Q459 819 470 808T481 779Q481 763 470 753L358 640Q348 630 332 630Q315 630 304 641T293 669Q293 685 302 695L415 808Q426 819 442
819Z" />
<glyph unicode="&#xf4;" glyph-name="ocircumflex" horiz-adv-x="677" d="M418 552T481 516T580 416T617 273Q617 194 581 131T482 31T339 -5Q260 -5 197 31T97 130T61 273Q61 352 97 416T196 516T339 552Q418 552 481 516ZM282 482T236 455T163 381T136 273Q136
214 162 167T235 92T339 65Q397 65 443 92T515 166T541 273Q541 333 515 380T443 455T339 482Q282 482 236 455ZM235 634T223 634Q206 634 195 643T183 669Q183 690 202 703L320 781Q328 786 339 786Q349 786 359 781L476 703Q495 690 495 669Q495 654 484 644T456
634Q445 634 432 642L339 706L246 642Q235 634 223 634Z" />
<glyph unicode="&#xf5;" glyph-name="otilde" horiz-adv-x="677" d="M418 552T481 516T580 416T617 273Q617 194 581 131T482 31T339 -5Q260 -5 197 31T97 130T61 273Q61 352 97 416T196 516T339 552Q418 552 481 516ZM282 482T236 455T163 381T136 273Q136 214
162 167T235 92T339 65Q397 65 443 92T515 166T541 273Q541 333 515 380T443 455T339 482Q282 482 236 455ZM316 750T336 742T382 718Q405 704 416 699T443 694Q474 694 492 714Q507 731 523 731Q531 731 539 726Q557 717 557 698Q557 687 549 676Q509 627 444
627Q416 627 394 636T347 660Q326 673 313 678T287 683Q250 683 221 648Q215 639 206 634T188 629Q179 629 171 634Q164 638 160 645T155 661Q155 673 162 683Q187 715 220 732T289 750Q316 750 336 742Z" />
<glyph unicode="&#xf6;" glyph-name="odieresis" horiz-adv-x="677" d="M418 552T481 516T580 416T617 273Q617 194 581 131T482 31T339 -5Q260 -5 197 31T97 130T61 273Q61 352 97 416T196 516T339 552Q418 552 481 516ZM282 482T236 455T163 381T136 273Q136
214 162 167T235 92T339 65Q397 65 443 92T515 166T541 273Q541 333 515 380T443 455T339 482Q282 482 236 455ZM258 757T274 741T290 702Q290 679 274 663T235 647Q212 647 196 663T180 702Q180 725 196 741T235 757Q258 757 274 741ZM467 757T483 741T499 702Q499
679 483 663T444 647Q421 647 405 663T389 702Q389 725 405 741T444 757Q467 757 483 741Z" />
<glyph unicode="&#xf7;" glyph-name="divide" horiz-adv-x="469" d="M254 547T268 533T282 498Q282 478 269 464T234 450Q214 450 200 464T185 498Q185 518 199 532T234 547Q254 547 268 533ZM408 390T419 379T430 352Q430 335 419 324T391 313H78Q61 313 50 324T39
352Q39 368 50 379T78 390H391Q408 390 419 379ZM254 254T268 240T282 205Q282 184 269 170T234 156Q214 156 200 170T185 205Q185 225 199 239T234 254Q254 254 268 240Z" />
<glyph unicode="&#xf8;" glyph-name="oslash" horiz-adv-x="700" d="M578 444Q605 409 619 365T634 271Q634 192 598 129T499 29T356 -7Q253 -7 177 53L114 -10Q105 -19 92 -19Q79 -19 70 -10T61 12Q61 24 70 33L134 97Q78 172 78 271Q78 350 114 414T213 514T356
550Q408 550 453 535T535 489L586 539Q594 549 609 549Q623 549 630 540T638 517Q638 504 631 497L578 444ZM299 480T253 453T180 379T153 271Q153 198 192 145L484 436Q431 480 356 480Q299 480 253 453ZM414 63T460 90T532 164T558 271Q558 339 524 392L233 103Q287
63 356 63Q414 63 460 90Z" />
<glyph unicode="&#xf9;" glyph-name="ugrave" horiz-adv-x="677" d="M565 547T576 537T587 509V39Q587 22 576 11T548 0Q531 0 521 11T510 39V73Q477 36 430 15T328 -6Q257 -6 201 24T112 111T80 249V509Q80 525 91 536T118 547Q135 547 146 536T157 509V249Q157
160 206 114T336 67Q385 67 424 86T487 138T510 213V509Q510 526 520 536T548 547Q565 547 576 537ZM189 769T189 786Q189 803 200 814T227 826Q243 826 255 814L367 701Q377 692 377 676Q377 659 366 648T338 636Q323 636 312 647L199 759Q189 769 189 786Z" />
<glyph unicode="&#xfa;" glyph-name="uacute" horiz-adv-x="677" d="M565 547T576 537T587 509V39Q587 22 576 11T548 0Q531 0 521 11T510 39V73Q477 36 430 15T328 -6Q257 -6 201 24T112 111T80 249V509Q80 525 91 536T118 547Q135 547 146 536T157 509V249Q157
160 206 114T336 67Q385 67 424 86T487 138T510 213V509Q510 526 520 536T548 547Q565 547 576 537ZM426 819T442 819Q459 819 470 808T481 779Q481 763 470 753L358 640Q348 630 332 630Q315 630 304 641T293 669Q293 685 302 695L415 808Q426 819 442 819Z" />
<glyph unicode="&#xfb;" glyph-name="ucircumflex" horiz-adv-x="677" d="M565 547T576 537T587 509V39Q587 22 576 11T548 0Q531 0 521 11T510 39V73Q477 36 430 15T328 -6Q257 -6 201 24T112 111T80 249V509Q80 525 91 536T118 547Q135 547 146 536T157 509V249Q157
160 206 114T336 67Q385 67 424 86T487 138T510 213V509Q510 526 520 536T548 547Q565 547 576 537ZM235 634T223 634Q206 634 195 643T183 669Q183 690 202 703L320 781Q328 786 339 786Q349 786 359 781L476 703Q495 690 495 669Q495 654 484 644T456 634Q445
634 432 642L339 706L246 642Q235 634 223 634Z" />
<glyph unicode="&#xfc;" glyph-name="udieresis" horiz-adv-x="677" d="M565 547T576 537T587 509V39Q587 22 576 11T548 0Q531 0 521 11T510 39V73Q477 36 430 15T328 -6Q257 -6 201 24T112 111T80 249V509Q80 525 91 536T118 547Q135 547 146 536T157 509V249Q157
160 206 114T336 67Q385 67 424 86T487 138T510 213V509Q510 526 520 536T548 547Q565 547 576 537ZM258 757T274 741T290 702Q290 679 274 663T235 647Q212 647 196 663T180 702Q180 725 196 741T235 757Q258 757 274 741ZM467 757T483 741T499 702Q499 679 483
663T444 647Q421 647 405 663T389 702Q389 725 405 741T444 757Q467 757 483 741Z" />
<glyph unicode="&#xfd;" glyph-name="yacute" horiz-adv-x="548" d="M541 535T541 515Q541 506 537 497L213 -215Q204 -238 184 -238Q174 -238 166 -234Q143 -225 143 -204Q143 -195 147 -186L246 33V34L23 496Q19 504 19 514Q19 535 41 544Q49 548 59 548Q80
548 89 527L284 116L470 526Q480 548 500 548Q509 548 518 544Q541 535 541 515ZM368 819T384 819Q401 819 412 808T423 779Q423 763 412 753L300 640Q290 630 274 630Q257 630 246 641T235 669Q235 685 244 695L357 808Q368 819 384 819Z" />
<glyph unicode="&#xfe;" glyph-name="thorn" horiz-adv-x="707" d="M453 552T514 517T611 418T646 273Q646 193 612 130T516 31T376 -5Q306 -5 252 27T167 115V-195Q168 -212 157 -223T129 -234Q112 -234 101 -223T90 -195V742Q90 759 101 770T129 781Q146 781
157 770T167 742L163 428Q195 488 253 520T376 552Q453 552 514 517ZM426 65T472 91T544 165T570 273Q570 333 544 380T472 455T367 482Q309 482 263 455T192 381T166 273Q166 213 191 166T263 92T367 65Q426 65 472 91Z" />
<glyph unicode="&#xff;" glyph-name="ydieresis" horiz-adv-x="548" d="M541 535T541 515Q541 506 537 497L213 -215Q204 -238 184 -238Q174 -238 166 -234Q143 -225 143 -204Q143 -195 147 -186L246 33V34L23 496Q19 504 19 514Q19 535 41 544Q49 548 59 548Q80
548 89 527L284 116L470 526Q480 548 500 548Q509 548 518 544Q541 535 541 515ZM200 757T216 741T232 702Q232 679 216 663T177 647Q154 647 138 663T122 702Q122 725 138 741T177 757Q200 757 216 741ZM409 757T425 741T441 702Q441 679 425 663T386 647Q363
647 347 663T331 702Q331 725 347 741T386 757Q409 757 425 741Z" />
<glyph unicode="&#x2013;" glyph-name="endash" horiz-adv-x="391" d="M411 312T422 301T433 273Q433 257 422 246T394 235H-5Q-22 235 -33 246T-45 273Q-45 290 -34 301T-5 312H394Q411 312 422 301Z" />
<glyph unicode="&#x2014;" glyph-name="emdash" horiz-adv-x="938" d="M966 312T977 301T988 273Q988 257 977 246T949 235H-9Q-26 235 -36 246T-47 273Q-47 290 -37 301T-9 312H949Q966 312 977 301Z" />
<glyph unicode="&#x2018;" glyph-name="quoteleft" horiz-adv-x="215" d="M91 556T76 577T61 636Q61 665 76 708T114 783T154 815Q164 815 171 808T179 790Q179 783 177 779Q157 730 157 695Q157 679 163 651Q164 647 166 634T168 609Q168 585 153 571T116 556Q91
556 76 577Z" />
<glyph unicode="&#x2019;" glyph-name="quoteright" horiz-adv-x="167" d="M88 790T103 769T118 710Q118 681 103 638T65 563T25 531Q15 531 8 538T0 556Q0 563 2 567Q22 616 22 651Q22 667 16 695Q15 699 13 712T11 737Q11 761 26 775T63 790Q88 790 103 769Z" />
<glyph unicode="&#x201a;" glyph-name="quotesinglbase" horiz-adv-x="234" d="M142 94T157 73T172 14Q172 -15 157 -58T119 -133T79 -165Q69 -165 62 -158T54 -140Q54 -133 56 -129Q76 -80 76 -45Q76 -29 70 -1Q69 3 67 16T65 41Q65 65 80 79T117 94Q142 94 157 73Z" />
<glyph unicode="&#x201c;" glyph-name="quotedblleft" horiz-adv-x="281" d="M47 556T32 577T17 636Q17 665 32 708T70 783T110 815Q120 815 127 808T135 790Q135 783 133 779Q113 730 113 695Q113 679 119 651Q120 647 122 634T124 609Q124 585 109 571T72 556Q47
556 32 577ZM193 556T178 577T163 636Q163 665 178 708T216 783T256 815Q266 815 273 808T281 790Q281 783 279 779Q259 730 259 695Q259 679 265 651Q266 647 268 634T270 609Q270 585 255 571T218 556Q193 556 178 577Z" />
<glyph unicode="&#x201d;" glyph-name="quotedblright" horiz-adv-x="279" d="M232 556T247 577T262 636Q262 665 247 708T209 783T169 815Q159 815 152 808T144 790Q144 783 146 779Q166 730 166 695Q166 679 160 651Q159 647 157 634T155 609Q155 585 170 571T207
556Q232 556 247 577ZM88 556T103 577T118 636Q118 665 103 708T65 783T25 815Q15 815 8 808T0 790Q0 783 2 779Q22 730 22 695Q22 679 16 651Q15 647 13 634T11 609Q11 585 26 571T63 556Q88 556 103 577Z" />
<glyph unicode="&#x201e;" glyph-name="quotedblbase" horiz-adv-x="281" d="M375 94T390 73T405 14Q405 -15 390 -58T352 -133T312 -165Q302 -165 295 -158T287 -140Q287 -133 289 -129Q309 -80 309 -45Q309 -29 303 -1Q302 3 300 16T298 41Q298 65 313 79T350
94Q375 94 390 73ZM251 94T266 73T281 14Q281 -15 266 -58T228 -133T188 -165Q178 -165 171 -158T163 -140Q163 -133 165 -129Q185 -80 185 -45Q185 -29 179 -1Q178 3 176 16T174 41Q174 65 189 79T226 94Q251 94 266 73Z" />
<glyph unicode="&#x2022;" glyph-name="bullet" horiz-adv-x="391" d="M226 508T253 492T296 449T312 391Q312 343 278 309T195 274Q146 274 112 308T78 391Q78 439 112 473T195 508Q226 508 253 492Z" />
<glyph unicode="&#x2039;" glyph-name="guilsinglleft" horiz-adv-x="273" d="M234 49T234 39Q234 23 223 12T195 0Q171 0 159 24L45 252Q39 264 39 273Q39 280 44 292L159 522Q170 546 195 546Q212 546 223 535T234 508Q234 499 231 491L122 273L231 55Q234 49 234 39Z" />
<glyph unicode="&#x203a;" glyph-name="guilsinglright" horiz-adv-x="273" d="M39 501T39 508Q39 524 50 535T78 546Q101 546 114 522L229 292Q234 280 234 273Q234 264 228 252L114 24Q102 0 78 0Q62 0 51 11T40 39Q40 48 43 55L151 273L43 491Q39 501 39 508Z" />
</font>
</defs>
</svg>
