<?xml version="1.0" standalone="no"?>
<!DOCTYPE svg PUBLIC "-//W3C//DTD SVG 1.1//EN" "http://www.w3.org/Graphics/SVG/1.1/DTD/svg11.dtd">
<svg xmlns="http://www.w3.org/2000/svg">
<defs >
<font id="Comfortaa" horiz-adv-x="638" ><font-face
    font-family="Comfortaa"
    units-per-em="1000"
    panose-1="0 0 0 0 0 0 0 0 0 0"
    ascent="881"
    descent="-234"
    alphabetic="0" />
<glyph unicode=" " glyph-name="space" horiz-adv-x="293" />
<glyph unicode="!" glyph-name="exclam" horiz-adv-x="266" d="M108 177Q92 177 81 188T69 216V742Q69 759 80 770T108 782Q125 782 136 771T147 742V216Q147 200 135 189T108 177ZM108 0Q84 0 67 17T50 58Q50 83 67 100T108 117Q132 117 149 100T166 58Q166 34
149 17T108 0Z" />
<glyph unicode="&quot;" glyph-name="quotedbl" horiz-adv-x="273" d="M200 567Q188 567 180 575T172 595L161 742Q161 759 172 770T200 782Q217 782 228 771T239 742L229 595Q229 583 221 575T200 567ZM80 567Q67 567 59 575T50 595L41 742Q41 759 52 770T80
781Q96 781 107 770T118 742L108 595Q108 583 100 575T80 567Z" />
<glyph unicode="#" glyph-name="numbersign" horiz-adv-x="724" d="M645 546Q662 546 671 538T679 515Q678 499 666 491T633 482H554L524 310H605Q622 310 630 302T638 280Q638 267 627 257T592 246H510L474 39Q470 21 459 11T429 0Q413 0 405 10T400 39L435 246H241L205
39Q202 23 190 12T161 0Q145 0 137 10T131 39L167 246H83Q67 246 59 254T51 275Q52 292 64 301T94 310H181L210 482H127Q109 482 100 490T91 512Q91 528 103 537T136 546H224L260 747Q263 764 275 775T304 787Q320 787 328 776T334 748L298 546H493L529 747Q531
764 543 775T573 787Q592 787 598 776T602 748L567 546H645ZM449 310L479 482H284L255 310H449Z" />
<glyph unicode="$" glyph-name="dollar" horiz-adv-x="598" d="M303 -10Q244 -10 193 7T105 56T49 133Q42 149 48 162T72 180Q85 184 97 178T116 157Q136 114 186 88T303 62Q354 62 393 78T454 126T477 204Q478 266 436 310T303 367Q233 376 181 405T101 479T73
582Q73 643 104 686T190 752T313 775Q367 775 409 759T483 714T533 652Q542 636 540 622T523 600Q511 592 497 597T474 615Q454 650 416 677T313 704Q238 705 193 674T148 580Q148 547 162 517T214 464T318 431Q433 414 493 357T554 206Q554 154 535 114T481 46T401
4T303 -10ZM310 -99Q299 -99 292 -92T284 -71V822Q284 836 291 843T310 850Q320 850 327 843T335 822V-71Q335 -84 328 -91T310 -99Z" />
<glyph unicode="%" glyph-name="percent" horiz-adv-x="859" d="M159 0Q143 0 132 11T121 39Q121 54 130 65L679 766Q686 773 693 777T710 782Q727 782 738 771T749 742Q749 729 742 719L189 13Q176 0 159 0ZM232 391Q178 391 134 417T63 488T36 586Q36 639 62
683T133 755T232 782Q285 782 329 755T400 684T427 586Q427 533 401 489T330 418T232 391ZM232 467Q264 467 291 483T334 527T351 586Q351 619 335 646T291 689T232 706Q200 706 173 690T129 646T112 586Q112 554 128 527T172 484T232 467ZM637 0Q584 0 540 26T469
97T442 195Q442 248 468 292T539 363T637 390Q691 390 735 364T806 294T833 195Q833 141 807 97T736 27T637 0ZM637 76Q670 76 697 92T740 136T757 195Q757 227 741 254T697 297T637 314Q605 314 578 298T534 255T518 195Q518 162 534 135T577 92T637 76Z" />
<glyph unicode="&amp;" glyph-name="ampersand" horiz-adv-x="720" d="M256 -7Q191 -7 144 16T71 82T45 179Q45 243 85 297T206 415L290 481Q333 515 354 550T376 624Q376 665 348 695T269 726Q224 726 195 698T165 631Q165 600 177 574T216 521L665 73Q677 60
679 49T669 25Q643 -1 618 25L164 479Q132 511 114 549T95 630Q95 676 118 712T180 769T269 790Q320 790 360 768T423 709T446 623Q445 585 431 553T389 491T324 431L241 367Q198 333 171 302T132 240T119 179Q119 125 155 93T258 60Q309 60 351 86T439 160L591
321Q603 333 614 335T638 326Q650 315 651 302T639 276L487 115Q435 58 380 26T256 -7Z" />
<glyph unicode="&apos;" glyph-name="quotesingle" horiz-adv-x="156" d="M80 567Q68 567 60 575T51 596L41 743Q41 759 52 770T80 781Q96 781 107 770T119 743L109 596Q109 584 101 576T80 567Z" />
<glyph unicode="(" glyph-name="parenleft" horiz-adv-x="256" d="M207 -234Q195 -234 186 -228T170 -208Q111 -87 82 33T53 275Q53 396 82 516T170 756Q182 782 207 782Q223 782 234 771T245 744Q245 732 239 722Q129 499 129 274Q129 162 157 49T240 -175Q246
-187 246 -196Q246 -212 235 -223T207 -234Z" />
<glyph unicode=")" glyph-name="parenright" horiz-adv-x="256" d="M49 -234Q33 -234 22 -223T11 -196Q11 -187 16 -175Q71 -64 99 49T128 274Q128 499 17 722Q12 732 11 744Q11 760 22 771T49 782Q75 782 87 756Q146 636 175 516T204 275Q204 154 175 34T87 -208Q79
-222 71 -228T49 -234Z" />
<glyph unicode="*" glyph-name="asterisk" horiz-adv-x="381" d="M121 494Q104 494 94 506T83 533Q83 541 86 548T97 561L165 618L84 625Q66 627 56 638T45 664Q46 682 57 692T84 703Q90 703 96 701T109 694L175 653L158 730Q157 733 156 736T155 743Q155 759
166 770T194 782Q210 782 221 771T233 743Q233 739 233 736T231 730L213 652L286 697Q295 703 305 703Q319 703 331 692T344 664Q344 647 333 637T306 625L225 618L288 566Q306 552 306 533Q306 517 295 506T263 494Q251 495 243 502T230 520L195 598L159 521Q154
507 145 501T121 494Z" />
<glyph unicode="+" glyph-name="plus" horiz-adv-x="547" d="M272 156Q256 156 245 167T234 195V352H77Q61 352 50 363T39 391Q39 407 50 418T77 430H234V587Q234 603 245 614T272 625Q289 625 300 614T311 587V430H468Q484 430 495 419T507 391Q507 374 496 363T468
352H311V195Q311 178 300 167T272 156Z" />
<glyph unicode="," glyph-name="comma" horiz-adv-x="226" d="M81 -162Q71 -162 66 -157T60 -142Q60 -127 69 -115T87 -88T97 -54Q97 -36 90 -24T74 -3T57 18T50 47Q50 72 66 87T108 102Q138 102 157 79T176 13Q176 -15 168 -46T146 -103T115 -146T81 -162Z" />
<glyph unicode="-" glyph-name="hyphen" horiz-adv-x="391" d="M76 235Q60 235 49 246T38 273Q38 290 49 301T76 312H311Q328 312 339 301T350 273Q350 257 339 246T311 235H76Z" />
<glyph unicode="." glyph-name="period" horiz-adv-x="216" d="M108 -16Q84 -16 67 1T50 42Q50 67 67 84T108 101Q132 101 149 84T166 42Q166 19 150 2T108 -16Z" />
<glyph unicode="/" glyph-name="slash" horiz-adv-x="469" d="M77 -78Q56 -78 45 -62T42 -23L356 760Q360 771 370 777T392 783Q414 783 424 766T427 728L113 -56Q108 -68 98 -73T77 -78Z" />
<glyph unicode="0" glyph-name="zero" horiz-adv-x="571" d="M285 0Q211 0 158 47T78 181T50 392Q50 513 77 601T158 736T285 783Q361 783 413 736T493 600T521 392Q521 270 494 183T414 48T285 0ZM285 78Q339 78 374 118T426 230T443 392Q443 482 426 552T373
664T285 705Q232 705 198 665T146 553T128 392Q128 300 145 230T197 119T285 78Z" />
<glyph unicode="1" glyph-name="one" horiz-adv-x="378" d="M239 0Q223 0 212 11T200 39V689L100 654Q89 649 80 649Q63 649 52 660T41 687Q41 699 46 709T66 724L220 777Q225 779 230 780T240 782Q257 782 267 771T278 743V39Q278 22 267 11T239 0Z" />
<glyph unicode="2" glyph-name="two" horiz-adv-x="581" d="M110 0Q94 0 83 11T71 39Q71 54 82 66L385 424Q410 451 425 484T440 547Q440 594 422 630T370 686T293 707Q251 707 217 686T163 628T143 547Q143 531 132 520T104 509Q88 509 77 520T65 547Q65 614
95 667T176 751T293 782Q358 782 408 752T487 669T516 547Q516 514 506 484T477 427T438 375L182 78H495Q511 78 522 66T534 39Q534 22 523 11T495 0H110Z" />
<glyph unicode="3" glyph-name="three" horiz-adv-x="585" d="M300 -5Q230 -5 175 25T87 109T55 229Q55 246 65 258T92 270Q109 270 119 258T129 229Q129 183 151 147T211 89T297 67Q375 67 419 110T463 223Q463 272 442 308T385 365T304 386Q288 386 277 397T266
425Q266 441 277 452T304 463Q339 463 368 480T416 527T434 591Q434 644 398 679T302 715Q260 715 227 699T176 655T157 592Q157 575 147 564T120 552Q103 552 93 563T83 591Q83 646 111 690T189 760T302 786Q360 786 406 761T480 691T508 591Q508 557 492 525T448
468T389 428Q440 413 474 382T524 310T540 223Q540 157 509 106T422 25T300 -5Z" />
<glyph unicode="4" glyph-name="four" horiz-adv-x="647" d="M448 0Q433 0 422 11T411 39V187H53Q37 187 27 197T15 222T22 248L418 766Q423 773 430 777T450 782Q466 782 476 771T487 742V257H566Q582 257 593 249T604 221Q604 208 593 198T566 187H487V39Q487
22 476 11T448 0ZM95 227L81 257H411V686L431 665L95 227Z" />
<glyph unicode="5" glyph-name="five" horiz-adv-x="627" d="M318 0Q246 0 189 33T99 124T65 254Q65 271 76 282T103 293Q120 293 131 282T143 254Q143 204 166 164T228 101T318 78Q368 78 408 101T471 164T494 254Q494 304 471 344T408 407T318 430H143Q126 430
115 441T104 469V743Q104 759 115 770T143 782H494Q510 782 521 771T533 743Q533 727 522 716T494 704H181V508H318Q391 508 448 475T538 384T572 254Q572 182 539 125T448 34T318 0Z" />
<glyph unicode="6" glyph-name="six" horiz-adv-x="579" d="M300 0Q232 0 179 30T96 114T65 235Q65 302 95 355T179 439T300 470Q367 470 420 440T503 356T534 235Q534 167 504 114T420 31T300 0ZM299 72Q345 72 381 93T439 151T460 235Q460 282 439 319T382 377T299
399Q253 399 217 378T160 319T139 235Q139 188 160 151T217 93T299 72ZM94 354L341 760Q354 781 376 781Q391 781 402 772T415 749T410 722L245 453L94 354Z" />
<glyph unicode="7" glyph-name="seven" horiz-adv-x="568" d="M163 0Q147 0 136 11T124 39Q124 44 126 50T132 64L430 704H86Q69 704 58 715T46 743Q46 759 57 770T86 782H493Q509 782 520 771T531 743Q531 738 529 733T525 722L198 22Q187 0 163 0Z" />
<glyph unicode="8" glyph-name="eight" horiz-adv-x="593" d="M297 -4Q230 -4 177 27T94 113T63 235Q63 301 93 353T177 435T297 465Q364 465 417 435T500 353T530 235Q529 167 499 113T416 28T297 -4ZM297 66Q341 66 376 88T431 149T452 235Q452 281 432 317T377
375T297 396Q252 396 217 375T162 318T141 235Q141 187 161 149T216 89T297 66ZM297 403Q242 403 198 428T129 496T104 594Q104 647 129 690T198 758T297 783Q352 784 396 760T465 692T489 594Q489 539 464 496T395 428T297 403ZM297 470Q330 470 356 486T399 531T415
595Q416 629 401 655T358 697T297 712Q246 712 213 679T178 595Q177 542 211 506T297 470Z" />
<glyph unicode="9" glyph-name="nine" horiz-adv-x="579" d="M279 782Q347 782 400 752T483 668T514 547Q514 480 484 427T400 343T279 312Q212 312 159 342T76 426T45 547Q45 615 75 668T159 751T279 782ZM280 710Q234 710 198 689T140 631T119 547Q119 500 140
463T197 405T280 383Q326 383 362 404T419 463T440 547Q440 594 419 631T362 689T280 710ZM485 428L238 22Q225 1 203 1Q188 1 177 10T164 33T169 60L334 329L485 428Z" />
<glyph unicode=":" glyph-name="colon" horiz-adv-x="195" d="M346 424Q322 424 305 440T287 482Q287 507 304 524T346 541Q370 541 386 524T403 482Q403 458 387 441T346 424ZM348 -16Q324 -16 307 1T290 42Q290 67 307 84T348 101Q372 101 389 84T406 42Q406
19 390 2T348 -16Z" />
<glyph unicode=";" glyph-name="semicolon" horiz-adv-x="200" d="M81 -162Q71 -162 66 -157T60 -142Q60 -127 69 -115T87 -88T97 -54Q97 -36 90 -24T74 -3T57 18T50 47Q50 72 66 87T108 102Q138 102 157 79T176 13Q176 -15 168 -46T146 -103T115 -146T81 -162ZM348
424Q324 424 307 440T289 482Q289 507 306 524T348 541Q372 541 388 524T405 482Q405 458 389 441T348 424Z" />
<glyph unicode="&lt;" glyph-name="less" horiz-adv-x="547" d="M449 83L60 317Q39 329 39 352Q39 371 60 387L449 621Q468 630 487 622T507 590Q507 567 488 555L114 332V375L488 151Q507 138 507 117Q507 101 498 91T475 78T449 83Z" />
<glyph unicode="=" glyph-name="equal" horiz-adv-x="508" d="M77 430Q61 430 50 441T39 469Q39 485 50 496T77 508H430Q446 508 457 497T468 469Q468 453 457 442T430 430H77ZM77 195Q61 195 50 206T39 234Q39 251 50 262T77 273H430Q446 273 457 262T468 234Q468
218 457 207T430 196L77 195Z" />
<glyph unicode="&gt;" glyph-name="greater" horiz-adv-x="547" d="M97 83Q85 75 72 78T49 91T39 117Q39 138 58 151L433 375V332L58 555Q39 567 39 590Q39 613 58 621T97 621L486 387Q507 371 507 352Q507 329 486 317L97 83Z" />
<glyph unicode="?" glyph-name="question" horiz-adv-x="547" d="M273 177Q256 177 245 188T234 217Q234 257 253 303T308 382Q339 411 367 438T412 498T430 581Q430 620 411 652T358 704T277 723Q227 723 191 703T136 646T116 563Q116 546 106 536T78 525Q61
525 50 535T39 563Q39 632 69 684T152 767T277 797Q343 797 395 769T477 691T507 577Q507 521 487 482T435 411T363 342Q332 314 322 279T312 217Q312 199 301 188T273 177ZM273 0Q248 0 232 17T215 58Q215 83 232 100T273 117Q297 117 314 100T332 58Q332 34 315
17T273 0Z" />
<glyph unicode="@" glyph-name="at" horiz-adv-x="1094" d="M548 -233Q436 -233 344 -196T183 -91T78 69T41 274Q41 385 78 478T183 639T343 744T548 781Q659 781 752 744T913 639T1018 478T1055 274Q1055 182 1030 112T962 1T860 -39Q809 -39 777 -9T744 71V109Q725
77 693 53T622 14T544 0Q465 0 404 35T309 132T275 274Q275 354 310 415T406 512T548 548Q628 548 689 513T786 416T821 274V102Q821 70 832 55T865 39Q897 39 922 69T962 152T977 274Q977 368 946 446T857 582T721 671T548 703Q453 703 375 672T239 583T150 447T119
274Q119 179 150 101T238 -35T374 -124T548 -155Q592 -155 641 -145T724 -119Q750 -107 766 -115T783 -150Q783 -171 753 -190T670 -221T548 -233ZM548 79Q605 79 649 103T718 172T743 274Q743 331 718 375T649 444T548 469Q490 469 446 444T378 375T353 274Q353
216 377 172T446 104T548 79Z" />
<glyph unicode="A" glyph-name="A" horiz-adv-x="703" d="M57 0Q34 0 24 19T22 56L316 754Q327 781 354 781Q380 781 391 754L686 55Q695 36 684 18T651 0Q639 0 630 6T614 24L339 691H370L93 24Q88 12 79 6T57 0ZM123 186L153 253H559L589 186H123Z" />
<glyph unicode="B" glyph-name="B" horiz-adv-x="695" d="M144 0Q125 0 113 10T100 39V742Q100 759 111 770T139 781H382Q442 781 490 756T567 686T596 584Q596 530 567 488T491 424Q558 406 599 357T640 231Q640 163 609 111T524 30T399 0H144ZM178 75H399Q447
75 484 94T542 148T563 231Q563 276 542 309T484 361T399 380H178V75ZM178 455H382Q442 455 481 489T520 584Q520 644 481 675T382 706H178V455Z" />
<glyph unicode="C" glyph-name="C" horiz-adv-x="771" d="M451 -10Q370 -10 300 21T176 107T92 235T62 391Q62 473 91 545T174 673T298 759T451 791Q523 791 582 770T696 703Q705 696 706 687T704 669T692 656Q690 648 682 644T664 641T643 650Q604 684 558 700T451
717Q386 717 330 691T230 620T163 516T138 391Q138 323 162 264T230 160T329 90T451 64Q506 64 555 82T648 134Q660 144 673 142T697 130T707 104Q707 96 705 90T696 76Q645 29 582 10T451 -10Z" />
<glyph unicode="D" glyph-name="D" horiz-adv-x="770" d="M139 0Q122 0 111 11T100 39V742Q100 759 111 770T139 781H319Q405 781 476 753T600 672T680 548T709 391Q709 305 681 234T600 110T477 29T319 0H139ZM178 70H319Q411 70 481 111T592 225T632 391Q632
484 592 556T482 670T319 711H178V70Z" />
<glyph unicode="E" glyph-name="E" horiz-adv-x="692" d="M139 0Q122 0 111 11T100 39V742Q100 759 111 770T139 781H608Q624 781 635 771T647 743Q647 728 636 717T608 706H178V430H491Q508 430 519 419T530 392Q530 376 519 365T491 354H178V75H608Q624 75 635
64T647 38Q647 21 636 11T608 0H139Z" />
<glyph unicode="F" glyph-name="F" horiz-adv-x="625" d="M77 0Q61 0 50 11T38 39V742Q38 759 49 770T77 781H546Q563 781 574 771T585 743Q585 728 574 717T546 706H116V430H429Q446 430 457 419T468 392Q468 376 457 365T429 354H116V39Q116 23 105 12T77 0Z" />
<glyph unicode="G" glyph-name="G" horiz-adv-x="771" d="M451 -10Q370 -10 300 21T176 107T92 235T62 391Q62 473 91 545T174 673T298 759T451 791Q523 791 582 770T696 703Q705 696 706 687T704 669T692 656Q690 648 682 644T664 641T643 650Q604 684 558 700T451
717Q386 717 330 691T230 620T163 516T138 391Q138 323 162 264T230 160T329 90T451 64Q506 64 555 82T648 134Q660 144 673 142T697 130T707 104Q707 96 705 90T696 76Q645 29 582 10T451 -10ZM707 104L631 120V321H475Q458 321 447 331T436 356Q436 371 447 380T475
390H668Q685 390 696 380T707 352V104Z" />
<glyph unicode="H" glyph-name="H" horiz-adv-x="844" d="M139 0Q122 0 111 11T100 39V742Q100 759 111 770T139 781Q156 781 167 770T178 742V430H666V742Q666 759 677 770T705 781Q722 781 733 770T744 742V39Q744 22 733 11T705 0Q688 0 677 11T666 39V360H178V39Q178
22 167 11T139 0Z" />
<glyph unicode="I" glyph-name="I" horiz-adv-x="278" d="M139 0Q122 0 111 11T100 39V742Q100 759 111 770T139 781Q156 781 167 770T178 742V39Q178 22 167 11T139 0Z" />
<glyph unicode="J" glyph-name="J" horiz-adv-x="614" d="M280 -10Q213 -10 160 21T76 105T45 224Q45 241 56 252T84 263Q101 263 112 252T123 224Q123 179 144 143T200 85T280 64Q324 64 359 85T415 143T436 224V742Q436 759 447 770T475 781Q492 781 503 770T514
742V224Q514 158 483 105T399 21T280 -10Z" />
<glyph unicode="K" glyph-name="K" horiz-adv-x="655" d="M139 0Q123 0 112 11T100 39V742Q100 758 111 769T139 781Q155 781 166 770T178 742V402L543 767Q551 775 558 778T574 781Q592 781 601 770T610 744T597 714L323 440L600 62Q609 49 608 35T596 10T572
0Q550 0 539 17L267 385L178 295V39Q178 23 167 12T139 0Z" />
<glyph unicode="L" glyph-name="L" horiz-adv-x="633" d="M139 0Q123 0 112 11T100 39V742Q100 758 111 769T139 781Q155 781 166 770T178 742V74H569Q585 74 596 64T608 37Q608 21 597 11T569 0H139Z" />
<glyph unicode="M" glyph-name="M" horiz-adv-x="981" d="M139 0Q123 0 112 11T100 39V742Q100 759 111 770T139 781Q163 781 174 761L511 91H477L808 761Q820 781 843 781Q859 781 870 770T881 742V39Q881 23 870 12T843 0Q826 0 815 11T803 39V641L820 640L525
37Q514 18 491 18Q466 18 455 42L158 636L178 641V39Q178 23 167 12T139 0Z" />
<glyph unicode="N" glyph-name="N" horiz-adv-x="825" d="M139 0Q122 0 111 11T100 39V742Q100 759 111 770T139 781Q157 781 169 767L647 139V742Q647 759 658 770T686 781Q702 781 713 770T725 742V39Q725 22 714 11T686 0Q678 0 670 3T657 13L178 641V39Q178
22 167 11T139 0Z" />
<glyph unicode="O" glyph-name="O" horiz-adv-x="921" d="M461 -10Q374 -10 301 20T175 104T92 231T62 391Q62 477 91 550T174 677T301 761T461 791Q547 791 620 761T747 677T830 550T860 391Q860 304 831 231T747 104T620 20T461 -10ZM461 64Q530 64 589 88T691
157T759 261T783 391Q783 460 759 519T692 623T589 692T461 717Q391 717 332 693T230 624T162 520T138 391Q138 321 162 262T229 158T332 89T461 64Z" />
<glyph unicode="P" glyph-name="P" horiz-adv-x="612" d="M139 0Q122 0 111 11T100 39V742Q100 759 111 770T139 781H339Q413 781 470 749T559 659T591 527Q591 454 559 398T470 309T339 276H178V39Q178 22 167 11T139 0ZM178 351H339Q390 351 430 373T492 436T515
527Q515 580 493 620T430 683T339 706H178V351Z" />
<glyph unicode="Q" glyph-name="Q" horiz-adv-x="921" d="M755 12L539 227Q527 239 527 254T539 281Q550 292 565 292T592 281L809 65Q820 53 820 39T809 12Q797 0 782 0T755 12ZM461 -10Q374 -10 301 20T175 104T92 231T62 391Q62 477 91 550T174 677T301 761T461
791Q547 791 620 761T747 677T830 550T860 391Q860 304 831 231T747 104T620 20T461 -10ZM461 64Q530 64 589 88T691 157T759 261T783 391Q783 460 759 519T692 623T589 692T461 717Q391 717 332 693T230 624T162 520T138 391Q138 321 162 262T229 158T332 89T461
64Z" />
<glyph unicode="R" glyph-name="R" horiz-adv-x="618" d="M139 0Q122 0 111 11T100 39V742Q100 759 111 770T139 781H326Q399 781 456 751T545 666T578 540Q578 472 546 419T456 336T326 306H178V39Q178 22 167 11T139 0ZM557 0Q544 0 537 5T523 20L331 326L409
346L588 60Q603 36 594 18T557 0ZM178 381H326Q377 381 416 401T479 458T502 540Q502 589 479 626T417 685T326 706H178V381Z" />
<glyph unicode="S" glyph-name="S" horiz-adv-x="662" d="M340 -10Q276 -10 222 8T127 61T66 140Q58 156 65 169T91 188Q105 192 118 185T139 164Q154 135 183 112T252 77T340 64Q393 64 434 81T498 132T522 214Q522 275 477 319T336 375Q219 389 153 447T87 591Q87
652 119 697T209 766T340 791Q395 791 440 774T518 728T573 665Q583 649 580 634T562 611Q547 604 532 609T508 628Q493 651 471 671T416 704T339 717Q260 717 212 684T164 586Q164 552 182 524T241 475T353 444Q478 426 538 368T599 215Q599 161 580 119T525 49T442
5T340 -10Z" />
<glyph unicode="T" glyph-name="T" horiz-adv-x="655" d="M327 0Q311 0 300 11T288 39V781H366V39Q366 23 355 12T327 0ZM51 710Q35 710 25 720T15 745Q15 761 25 771T51 781H604Q620 781 630 771T640 745Q640 730 630 720T604 710H51Z" />
<glyph unicode="U" glyph-name="U" horiz-adv-x="819" d="M411 -16Q320 -16 250 19T140 116T100 258V742Q100 759 111 770T139 781Q156 781 167 770T178 742V258Q178 199 207 154T290 84T411 58Q478 58 530 83T611 154T641 258V742Q641 759 652 770T680 781Q698
781 708 770T719 742V258Q719 178 680 116T571 19T411 -16Z" />
<glyph unicode="V" glyph-name="V" horiz-adv-x="716" d="M359 0Q334 0 323 25L26 720Q15 748 24 764T58 781Q83 781 94 756L370 96H348L623 754Q629 769 638 775T662 781Q685 781 693 764T692 724L394 25Q388 11 379 6T359 0Z" />
<glyph unicode="W" glyph-name="W" horiz-adv-x="938" d="M267 0Q253 0 243 9T228 32L23 725Q16 749 25 765T56 781Q68 781 78 775T94 751L279 107H256L431 734Q434 745 444 752T468 759Q480 759 491 753T505 733L681 107H658L844 755Q851 781 882 781Q903 781
911 765T913 725L709 33Q704 17 694 9T669 0Q655 0 645 9T630 32L456 667H480L307 33Q302 18 292 9T267 0Z" />
<glyph unicode="X" glyph-name="X" horiz-adv-x="707" d="M84 0Q67 0 58 10T47 35T56 63L317 419L353 448L587 767Q598 781 617 781Q633 781 642 771T653 746T646 720L400 386L366 358L112 12Q101 0 84 0ZM625 0Q617 0 609 3T595 14L346 359L315 382L72 720Q63
732 64 746T74 771T100 781Q119 781 130 767L365 442L393 423L653 63Q662 51 662 36T652 11T625 0Z" />
<glyph unicode="Y" glyph-name="Y" horiz-adv-x="648" d="M324 0Q308 0 297 11T285 39V289L13 720Q3 735 5 749T18 772T43 781Q55 781 62 776T76 762L346 327H304L573 760Q580 771 588 776T609 781Q623 781 632 772T643 748T636 720L363 289V39Q363 23 352 12T324 0Z" />
<glyph unicode="Z" glyph-name="Z" horiz-adv-x="724" d="M88 0Q71 0 61 11T49 36T57 63L574 711H92Q74 711 64 720T54 745Q54 760 65 770T93 781H635Q653 781 663 770T674 745T667 720L148 70H635Q651 70 662 61T674 35Q674 20 663 10T635 0H88Z" />
<glyph unicode="[" glyph-name="bracketleft" horiz-adv-x="302" d="M104 -234Q87 -234 76 -223T65 -195V743Q65 759 76 770T104 782H262Q279 782 290 771T302 743Q302 726 291 715T262 703H143V-155H262Q279 -155 290 -166T302 -195Q302 -212 291 -223T262 -234H104Z" />
<glyph unicode="\" glyph-name="backslash" horiz-adv-x="469" d="M394 -80Q383 -80 373 -75T358 -57L42 726Q39 733 39 742Q39 759 50 770T79 782Q90 782 100 776T114 759L429 -25Q433 -33 433 -41Q433 -58 422 -69T394 -80Z" />
<glyph unicode="]" glyph-name="bracketright" horiz-adv-x="302" d="M40 -234Q23 -234 12 -223T0 -195Q0 -178 11 -167T40 -155H159V703H40Q23 703 12 714T0 743Q0 759 11 770T40 782H198Q214 782 225 771T237 743V-195Q237 -212 226 -223T198 -234H40Z" />
<glyph unicode="^" glyph-name="asciicircum" horiz-adv-x="469" d="M82 470Q65 470 54 481T42 508Q42 514 43 519T48 528L206 766Q218 782 238 782Q248 782 255 778T269 766L427 528Q433 520 433 508Q433 492 422 481T394 470Q374 470 363 484L238 672L112 484Q100
470 82 470Z" />
<glyph unicode="_" glyph-name="underscore" horiz-adv-x="469" d="M1 -78Q-16 -78 -27 -67T-38 -39Q-38 -23 -27 -12T1 0H480Q496 0 507 -11T518 -39Q518 -55 507 -66T480 -78H1Z" />
<glyph unicode="`" glyph-name="grave" horiz-adv-x="273" d="M192 592Q177 592 166 603L53 715Q43 725 43 742Q43 759 54 770T81 782Q97 782 109 770L221 657Q231 648 231 632Q231 615 220 604T192 592Z" />
<glyph unicode="a" glyph-name="a" horiz-adv-x="677" d="M331 -5Q254 -5 193 31T97 131T61 273Q61 353 97 416T197 515T339 552Q418 552 480 516T579 416T617 273L586 249Q586 177 553 120T462 29T331 -5ZM339 65Q397 65 442 92T514 166T541 273Q541 333 515
380T443 454T339 482Q282 482 236 455T163 380T136 273Q136 214 163 167T236 92T339 65ZM578 0Q561 0 550 10T539 38V209L558 288L617 273V38Q617 21 606 11T578 0Z" />
<glyph unicode="b" glyph-name="b" horiz-adv-x="707" d="M367 -5Q289 -5 227 31T128 129T90 270V742Q90 760 100 770T129 781Q146 781 156 771T167 742V448Q200 495 254 523T376 552Q453 552 514 516T610 416T646 274Q646 194 610 131T510 32T367 -5ZM367 65Q425
65 471 92T543 167T570 274Q570 333 544 380T471 455T367 482Q310 482 264 455T192 381T166 274Q166 214 192 167T264 93T367 65Z" />
<glyph unicode="c" glyph-name="c" horiz-adv-x="596" d="M334 -5Q255 -5 194 31T97 131T61 273Q61 353 95 416T188 515T324 552Q385 552 436 528T527 456Q538 444 535 431T518 407Q507 399 494 401T470 416Q412 482 324 482Q268 482 226 455T160 381T136 273Q136
213 161 166T231 92T334 65Q373 65 405 75T463 108Q475 118 488 119T512 111Q524 100 525 86T516 62Q443 -5 334 -5Z" />
<glyph unicode="d" glyph-name="d" horiz-adv-x="707" d="M339 -5Q260 -5 197 31T98 131T61 274Q61 353 96 416T193 515T331 552Q398 552 452 524T539 448V742Q539 760 550 770T578 781Q595 781 606 771T617 742V270Q615 192 579 130T480 31T339 -5ZM339 65Q397
65 442 92T514 167T541 274Q541 333 515 380T443 455T339 482Q282 482 236 455T163 381T136 274Q136 214 163 167T236 93T339 65Z" />
<glyph unicode="e" glyph-name="e" horiz-adv-x="614" d="M338 -5Q257 -5 195 30T97 129T61 273Q61 355 94 417T187 516T323 552Q399 552 455 518T543 422T574 283Q574 267 564 258T538 248H113V312H546L503 281Q504 339 482 385T420 457T323 483Q266 483 223
456T157 382T133 273Q133 212 159 165T232 91T338 64Q374 64 410 76T469 108Q480 117 494 117T518 110Q531 98 531 84T520 60Q487 32 436 14T338 -5Z" />
<glyph unicode="f" glyph-name="f" horiz-adv-x="366" d="M158 0Q143 0 132 10T121 39V546Q121 616 145 669T216 751T331 781Q348 781 359 771T370 746Q370 731 359 721T331 711Q286 711 257 691T213 634T198 550V39Q198 21 188 11T158 0ZM57 460Q41 460 32 469T22
493Q22 508 31 517T57 527H318Q334 527 343 518T353 493Q353 479 344 470T318 460H57Z" />
<glyph unicode="g" glyph-name="g" horiz-adv-x="677" d="M331 -5Q252 -5 191 30T96 129T61 273Q61 355 97 418T196 516T339 552Q420 552 482 517T580 418T617 273L572 249Q572 175 541 118T456 28T331 -5ZM341 -216Q262 -216 202 -187T103 -106Q92 -94 93 -80T108
-57Q121 -48 137 -51T162 -66Q191 -102 236 -124T342 -146Q398 -146 443 -119T514 -43T541 72V224L570 282L617 273V69Q617 -12 581 -76T483 -178T341 -216ZM339 65Q398 65 443 91T515 165T541 273Q541 334 515 381T444 455T339 482Q280 482 234 456T162 382T136
273Q136 212 162 165T234 92T339 65Z" />
<glyph unicode="h" glyph-name="h" horiz-adv-x="677" d="M559 0Q542 0 531 11T520 38V298Q520 360 497 400T433 460T341 480Q292 480 253 461T190 409T167 334H112Q114 397 146 446T231 524T349 553Q420 553 476 524T564 437T597 298V38Q597 22 586 11T559 0ZM129
0Q111 0 101 10T90 38V508Q90 526 100 536T129 547Q146 547 156 537T167 508V38Q167 21 157 11T129 0ZM129 223Q111 223 101 234T90 262V742Q90 760 100 770T129 781Q146 781 156 771T167 742V262Q167 245 157 234T129 223Z" />
<glyph unicode="i" glyph-name="i" horiz-adv-x="289" d="M145 0Q127 0 117 10T106 39V508Q106 526 116 536T145 547Q162 547 172 537T183 508V39Q183 21 173 11T145 0ZM400 651Q378 651 362 667T346 706Q346 731 362 745T401 760Q422 760 438 746T455 706Q455
683 439 667T400 651Z" />
<glyph unicode="j" glyph-name="j" horiz-adv-x="285" d="M-55 -234Q-72 -234 -83 -224T-94 -195Q-94 -178 -83 -167T-55 -156Q-9 -156 26 -136T81 -81T102 0V508Q102 526 112 536T140 547Q157 547 168 537T179 508V0Q179 -68 149 -121T66 -204T-55 -234ZM395
651Q373 651 357 667T341 706Q341 731 357 745T396 760Q417 760 433 746T450 706Q450 683 434 667T395 651Z" />
<glyph unicode="k" glyph-name="k" horiz-adv-x="572" d="M153 183L106 234L448 543Q460 554 473 554T497 541Q508 529 508 516T495 492L153 183ZM128 0Q111 0 101 10T90 38V743Q90 760 100 770T128 781Q145 781 155 771T166 743V38Q166 21 156 11T128 0ZM498
5Q485 -6 471 -5T447 10L224 284L278 332L503 55Q513 43 512 30T498 5Z" />
<glyph unicode="l" glyph-name="l" horiz-adv-x="282" d="M208 0Q168 0 137 22T88 83T70 173V743Q70 760 80 770T108 781Q125 781 135 771T146 743V173Q146 130 163 103T208 76H233Q248 76 257 66T266 38Q266 21 254 11T221 0H208Z" />
<glyph unicode="m" glyph-name="m" horiz-adv-x="947" d="M829 0Q812 0 801 10T790 38V326Q790 397 753 438T658 480Q596 480 557 439T518 328H449Q450 395 478 446T555 525T666 553Q725 553 770 525T841 446T867 326V38Q867 21 857 11T829 0ZM129 0Q111 0 101
10T90 38V508Q90 525 100 536T129 547Q146 547 156 536T167 508V38Q167 21 157 11T129 0ZM480 0Q463 0 452 10T441 38V326Q441 397 404 438T309 480Q247 480 207 440T167 334H112Q114 398 140 447T213 525T317 553Q376 553 421 525T492 446T518 326V38Q518 21 508
11T480 0Z" />
<glyph unicode="n" glyph-name="n" horiz-adv-x="677" d="M559 0Q542 0 531 11T520 38V298Q520 360 497 400T433 460T341 480Q292 480 253 461T190 409T167 334H112Q114 397 146 446T231 524T349 553Q420 553 476 524T564 437T597 298V38Q597 22 586 11T559 0ZM129
0Q111 0 101 10T90 38V508Q90 526 100 536T129 547Q146 547 156 537T167 508V38Q167 21 157 11T129 0Z" />
<glyph unicode="o" glyph-name="o" horiz-adv-x="677" d="M339 -5Q259 -5 196 31T97 130T61 273Q61 354 97 417T196 516T339 552Q419 552 481 516T580 417T617 273Q617 193 581 130T482 31T339 -5ZM339 65Q397 65 443 92T515 166T541 273Q541 333 515 380T443
455T339 482Q281 482 235 455T163 381T136 273Q136 213 162 166T235 92T339 65Z" />
<glyph unicode="p" glyph-name="p" horiz-adv-x="707" d="M129 -234Q111 -234 101 -224T90 -195V277Q91 355 127 417T226 516T367 552Q447 552 510 516T609 416T646 273Q646 194 611 131T514 32T376 -5Q309 -5 255 23T167 99V-195Q167 -213 157 -223T129 -234ZM367
65Q425 65 471 92T543 166T570 273Q570 333 544 380T471 454T367 482Q310 482 264 455T192 380T166 273Q166 214 192 167T264 92T367 65Z" />
<glyph unicode="q" glyph-name="q" horiz-adv-x="707" d="M578 -234Q561 -234 550 -224T539 -195V99Q506 52 452 24T331 -5Q254 -5 193 31T97 131T61 273Q61 353 97 416T197 515T339 552Q417 552 479 516T578 418T617 277V-195Q617 -213 606 -223T578 -234ZM339
65Q397 65 442 92T514 166T541 273Q541 333 515 380T443 454T339 482Q282 482 236 455T163 380T136 273Q136 214 163 167T236 92T339 65Z" />
<glyph unicode="r" glyph-name="r" horiz-adv-x="458" d="M122 337Q125 399 154 448T231 525T337 553Q383 553 408 540T427 502Q423 487 414 482T391 478T360 480Q304 485 261 469T192 418T166 337H122ZM128 0Q110 0 100 10T90 38V509Q90 527 100 537T128 547Q146
547 156 537T166 509V38Q166 20 156 10T128 0Z" />
<glyph unicode="s" glyph-name="s" horiz-adv-x="539" d="M281 -5Q222 -5 164 15T70 75Q59 87 61 102T76 128Q90 138 105 136T130 123Q154 95 193 80T281 65Q355 65 388 90T422 152Q422 188 388 211T276 248Q175 264 128 304T81 399Q81 450 108 484T180 535T279
552Q346 552 394 529T473 467Q483 454 481 440T465 417Q453 410 438 412T411 427Q386 456 353 469T277 483Q222 483 189 461T156 404Q156 381 168 364T211 334T297 312Q372 300 415 277T477 222T496 153Q496 106 469 71T393 15T281 -5Z" />
<glyph unicode="t" glyph-name="t" horiz-adv-x="402" d="M304 0Q251 0 210 25T144 93T120 193V682Q120 699 130 710T158 721Q175 721 186 710T197 682V193Q197 142 227 110T304 77H331Q347 77 357 66T367 38Q367 21 355 11T325 0H304ZM55 460Q40 460 30 469T20
493Q20 508 30 517T55 527H310Q325 527 335 518T345 493Q345 479 335 470T310 460H55Z" />
<glyph unicode="u" glyph-name="u" horiz-adv-x="677" d="M328 -6Q257 -6 201 23T113 110T80 249V509Q80 525 91 536T118 547Q135 547 146 536T157 509V249Q157 187 180 147T244 87T336 67Q385 67 424 86T487 138T510 213H565Q562 150 531 101T446 23T328 -6ZM548
0Q531 0 521 10T510 39V509Q510 526 520 536T548 547Q565 547 576 537T587 509V39Q587 21 576 11T548 0Z" />
<glyph unicode="v" glyph-name="v" horiz-adv-x="553" d="M277 0Q253 0 241 26L19 497Q13 510 18 523T38 543Q52 550 65 545T85 527L298 66H257L467 527Q473 541 487 545T516 544Q530 537 535 524T534 498L315 26Q303 0 277 0Z" />
<glyph unicode="w" glyph-name="w" horiz-adv-x="740" d="M214 0Q201 0 191 7T177 25L21 493Q15 518 22 532T50 547Q63 547 73 540T88 518L227 93H205L334 517Q338 530 347 538T372 547Q387 547 396 539T410 517L533 103H516L652 518Q662 547 689 547Q711 547
719 531T719 493L563 25Q559 14 550 7T527 0Q514 0 504 7T490 25L364 443H376L250 25Q246 13 236 7T214 0Z" />
<glyph unicode="x" glyph-name="x" horiz-adv-x="548" d="M472 0Q460 0 453 4T437 18L264 238L234 264L60 485Q49 498 49 512T59 536T85 547Q102 547 114 535L282 320L309 298L495 60Q508 44 506 30T494 8T472 0ZM76 0Q60 0 51 10T41 34T51 61L235 291L278 234L103
12Q94 0 76 0ZM310 260L261 310L434 529Q441 539 449 543T467 547Q484 547 493 537T502 512T491 484L310 260Z" />
<glyph unicode="y" glyph-name="y" horiz-adv-x="548" d="M184 -238Q176 -238 166 -234Q132 -219 147 -186L470 526Q485 558 518 544Q552 530 537 497L213 -215Q203 -238 184 -238ZM295 17Q280 10 267 14T246 34L23 496Q16 511 21 524T41 544Q56 551 69 547T89
527L308 65Q316 50 313 37T295 17Z" />
<glyph unicode="z" glyph-name="z" horiz-adv-x="549" d="M135 26L72 60L444 533L496 489L135 26ZM100 0Q65 0 65 35Q65 70 100 70H471Q506 70 506 35Q506 0 471 0H100ZM96 477Q61 477 61 512Q61 547 96 547H467Q502 547 502 512Q502 477 467 477H96Z" />
<glyph unicode="{" glyph-name="braceleft" horiz-adv-x="378" d="M327 -234Q171 -234 171 -78V156Q171 235 92 235Q76 235 65 246T53 273Q53 290 64 301T92 312Q171 312 171 391V625Q171 782 327 782Q343 782 354 771T365 742Q365 726 354 715T327 704Q248 704
248 625V391Q248 353 238 324T209 273Q248 230 248 156V-78Q248 -156 327 -156Q343 -156 354 -167T365 -195Q365 -212 354 -223T327 -234Z" />
<glyph unicode="|" glyph-name="bar" horiz-adv-x="391" d="M195 -234Q179 -234 168 -223T156 -195V743Q156 759 167 770T195 782Q212 782 223 771T234 743V-195Q234 -212 223 -223T195 -234Z" />
<glyph unicode="}" glyph-name="braceright" horiz-adv-x="378" d="M51 -234Q35 -234 24 -223T13 -195Q13 -179 24 -168T51 -156Q130 -156 130 -78V156Q130 230 169 273Q150 295 140 324T130 391V625Q130 704 51 704Q35 704 24 715T13 742Q13 759 24 770T51 782Q207
782 207 625V391Q207 312 286 312Q302 312 313 301T325 273Q325 257 314 246T286 235Q207 235 207 156V-78Q207 -234 51 -234Z" />
<glyph unicode="~" glyph-name="asciitilde" horiz-adv-x="469" d="M328 307Q296 307 272 318T231 340Q210 353 197 358T171 363Q153 363 137 355T105 328Q96 315 82 311T55 314Q42 321 40 335T46 363Q71 395 104 412T173 430Q204 430 227 419T266 398Q285 386
298 380T327 374Q343 374 355 379T376 394Q387 405 398 409T423 406Q437 399 440 384T433 356Q394 307 328 307Z" />
<glyph unicode="&#xa0;" glyph-name="uni00A0" horiz-adv-x="293" />
<glyph unicode="&#xa1;" glyph-name="exclamdown" horiz-adv-x="266" d="M158 371Q142 371 131 360T119 332V-194Q119 -211 130 -222T158 -234Q175 -234 186 -223T197 -194V332Q197 348 185 359T158 371ZM158 548Q134 548 117 531T100 490Q100 465 117 448T158
431Q182 431 199 448T216 490Q216 514 199 531T158 548Z" />
<glyph unicode="&#xa2;" glyph-name="cent" horiz-adv-x="596" d="M181 -97Q166 -97 158 -86T157 -54L414 629Q422 650 443 650Q459 650 466 638T468 611L211 -74Q202 -97 181 -97ZM334 -5Q255 -5 194 31T97 131T61 273Q61 353 95 416T188 515T324 552Q385 552
436 528T527 456Q538 444 535 431T518 407Q507 399 494 401T470 416Q412 482 324 482Q268 482 226 455T160 381T136 273Q136 213 161 166T231 92T334 65Q373 65 405 75T463 108Q475 118 488 119T512 111Q524 100 525 86T516 62Q443 -5 334 -5Z" />
<glyph unicode="&#xa3;" glyph-name="sterling" horiz-adv-x="508" d="M118 0Q100 0 90 11T79 39Q79 47 81 54Q110 121 123 185T137 312H78Q61 312 50 324T39 352Q39 368 50 379T78 390H130Q113 436 102 469T85 530T79 586Q79 640 105 684T176 755T275 782Q323
782 362 765T432 712Q440 703 447 692T455 670Q455 653 444 642T416 631Q398 631 390 642Q366 672 340 689T276 706Q242 706 215 690T173 646T157 584Q157 556 163 529T182 468T209 390H354Q370 390 381 379T392 352Q392 336 381 324T354 312H215Q215 256 205 198T174
78H415Q423 93 431 108T446 137Q451 146 459 151T479 156Q496 156 507 145T518 117Q518 107 514 99L476 23Q470 12 461 6T440 0H118Z" />
<glyph unicode="&#xa4;" glyph-name="currency" horiz-adv-x="501" d="M89 160Q70 160 58 173T45 205Q45 223 58 236L98 274Q73 317 73 364T97 456L58 496Q45 509 45 528Q45 547 57 559T89 572Q107 572 120 561L159 519Q203 546 251 545T340 521L380 560Q388 565
395 568T411 572Q431 572 443 560T456 528Q456 508 443 495L404 459Q428 416 429 368T405 277L443 237Q456 223 456 205Q456 186 444 173T412 160Q403 160 396 163T381 172L343 213Q300 188 253 188T162 211L120 172Q107 160 89 160ZM251 269Q277 269 299 282T334
318T347 366Q347 393 334 415T299 450T251 464Q224 464 202 451T167 415T154 366Q154 341 167 319T202 283T251 269Z" />
<glyph unicode="&#xa5;" glyph-name="yen" horiz-adv-x="648" d="M165 290Q148 290 138 299T128 324Q128 340 138 349T165 358H484Q500 358 510 349T521 324Q521 308 511 299T484 290H165ZM165 162Q148 162 138 171T128 196Q128 212 138 221T165 230H484Q500 230
510 221T521 196Q521 180 511 171T484 162H165ZM324 0Q308 0 297 11T285 39V289L13 720Q3 735 5 749T18 772T43 781Q55 781 62 776T76 762L346 327H304L573 760Q580 771 588 776T609 781Q623 781 632 772T643 748T636 720L363 289V39Q363 23 352 12T324 0Z" />
<glyph unicode="&#xa6;" glyph-name="brokenbar" horiz-adv-x="234" d="M117 430Q100 430 89 441T78 469V820Q78 837 89 848T117 860Q133 860 144 849T156 820V469Q156 453 145 442T117 430ZM117 -234Q100 -234 89 -223T78 -195V152Q78 168 89 179T117 190Q133
190 144 179T156 152V-195Q156 -212 145 -223T117 -234Z" />
<glyph unicode="&#xa7;" glyph-name="section" horiz-adv-x="469" d="M236 -234Q182 -234 137 -208T66 -137T39 -38Q39 -22 50 -11T79 1Q95 1 106 -10T117 -38Q117 -71 133 -97T177 -140T236 -156Q267 -156 294 -140T338 -98T355 -38Q355 -7 339 19T295 62T236
78Q182 78 138 104T66 175T39 273Q39 319 59 359T118 430Q77 462 58 501T39 586Q39 640 65 684T137 754T236 781Q290 781 335 755T406 684T433 586Q433 570 422 559T394 547Q377 547 366 558T355 586Q355 618 339 645T295 687T236 703Q205 703 178 688T134 646T117
586Q117 554 133 527T177 485T236 469Q290 469 335 443T406 372T433 273Q433 228 413 187T354 117Q393 88 413 48T433 -38Q433 -92 407 -136T335 -207T236 -234ZM236 157Q268 157 295 172T338 214T355 273Q355 306 339 332T295 375T236 391Q204 391 177 375T134
333T117 273Q117 241 133 215T177 173T236 157Z" />
<glyph unicode="&#xa8;" glyph-name="dieresis" horiz-adv-x="469" d="M140 622Q117 622 101 638T85 677Q85 699 101 715T140 732Q163 732 179 716T195 677Q195 654 179 638T140 622ZM349 622Q326 622 310 638T294 677Q294 699 310 715T349 732Q372 732 388 716T404
677Q404 654 388 638T349 622Z" />
<glyph unicode="&#xa9;" glyph-name="copyright" horiz-adv-x="859" d="M441 142Q372 142 317 175T231 264T199 393Q199 465 229 521T311 610T432 643Q543 643 612 557Q623 544 621 530T603 507Q592 499 579 501T555 515Q506 571 432 571Q385 571 350 549T294
486T274 393Q274 340 295 300T354 237T441 214Q508 214 549 251Q561 261 574 262T598 254Q611 242 612 228T602 203Q537 142 441 142ZM436 0Q354 0 283 30T159 113T75 238T45 392Q45 472 75 542T159 667T284 751T436 782Q516 782 587 752T711 668T796 543T827 392Q827
309 797 238T713 114T588 30T436 0ZM435 67Q503 67 562 92T665 163T735 266T761 392Q761 459 736 517T665 621T561 691T435 717Q369 717 310 692T206 622T136 518T110 392Q110 325 135 266T205 162T309 92T435 67Z" />
<glyph unicode="&#xaa;" glyph-name="ordfeminine" horiz-adv-x="475" d="M236 398Q180 398 136 424T66 494T40 594Q40 650 65 694T135 764T236 790Q292 790 336 765T406 695T432 594L395 510Q375 461 334 430T236 398ZM236 473Q288 473 323 507T358 594Q358 647
323 681T236 716Q184 716 149 682T114 594Q114 542 149 508T236 473ZM396 396Q378 396 369 407T360 435L368 594H432V435Q432 418 422 407T396 396Z" />
<glyph unicode="&#xab;" glyph-name="guillemotleft" horiz-adv-x="469" d="M394 0Q382 0 373 6T358 24L243 252Q238 262 238 273Q238 282 242 292L358 522Q369 546 394 546Q411 546 422 535T433 508Q433 499 429 491L320 273L429 55Q433 48 433 39Q433 22 422
11T394 0ZM195 0Q183 0 174 6T159 24L45 252Q42 258 41 263T39 273Q39 282 44 292L159 522Q171 546 195 546Q212 546 223 535T234 508Q234 498 231 491L122 273L231 55Q234 49 234 39Q234 22 223 11T195 0Z" />
<glyph unicode="&#xac;" glyph-name="logicalnot" horiz-adv-x="547" d="M468 313Q453 313 442 324T430 352V469H78Q61 469 50 480T39 508Q39 525 50 536T78 547H468Q485 547 496 536T507 508V352Q507 335 496 324T468 313Z" />
<glyph unicode="&#xad;" glyph-name="uni00AD" horiz-adv-x="391" d="M76 235Q60 235 49 246T38 273Q38 290 49 301T76 312H311Q328 312 339 301T350 273Q350 257 339 246T311 235H76Z" />
<glyph unicode="&#xae;" glyph-name="registered" horiz-adv-x="859" d="M322 155Q307 155 298 164T288 188V612Q288 627 298 636T323 645H436Q484 645 521 626T580 572T602 493Q602 449 580 415T519 361T436 341H355V188Q355 174 346 165T322 155ZM578 155Q559
155 549 171L427 367L491 386L603 206Q615 186 608 171T578 155ZM355 402H438Q481 402 508 425T536 493Q536 537 509 561T438 585H355V402ZM436 0Q354 0 283 30T159 113T75 238T45 392Q45 472 75 542T159 667T284 751T436 782Q516 782 587 752T711 668T796 543T827
392Q827 309 797 238T713 114T588 30T436 0ZM435 67Q503 67 562 92T665 163T735 266T761 392Q761 459 736 517T665 621T561 691T435 717Q369 717 310 692T206 622T136 518T110 392Q110 325 135 266T205 162T309 92T435 67Z" />
<glyph unicode="&#xaf;" glyph-name="overscore" horiz-adv-x="547" d="M144 638Q127 638 116 647T105 674Q105 691 116 700T144 710H403Q419 710 430 701T442 674Q442 657 431 648T403 638H144Z" />
<glyph unicode="&#xb0;" glyph-name="degree" horiz-adv-x="469" d="M234 391Q180 391 136 417T66 488T39 587Q39 640 65 684T136 755T234 782Q288 782 332 756T403 685T430 587Q430 533 403 489T332 418T234 391ZM234 469Q266 469 293 485T336 527T352 587Q352
618 336 645T293 688T234 704Q202 704 176 688T133 645T117 587Q117 554 132 528T175 485T234 469Z" />
<glyph unicode="&#xb1;" glyph-name="plusminus" horiz-adv-x="547" d="M273 156Q256 156 245 167T234 195V352H78Q61 352 50 363T39 391Q39 407 50 418T78 430H234V587Q234 603 245 614T273 625Q290 625 301 614T312 587V430H468Q485 430 496 419T507 391Q507
374 496 363T468 352H312V195Q312 178 301 167T273 156ZM78 0Q61 0 50 11T39 39Q39 55 50 66T78 78H469Q485 78 496 67T507 39Q507 22 496 11T469 0H78Z" />
<glyph unicode="&#xb2;" glyph-name="uni00B2" horiz-adv-x="365" d="M88 386Q71 386 61 396T51 423Q51 431 53 437T60 449L219 621Q231 633 236 645T241 671Q241 696 223 713T178 730Q144 730 124 711T104 664Q104 648 97 638T73 627Q59 627 51 638T43 664Q43
719 81 755T179 792Q236 792 271 757T307 670Q307 638 289 615T253 572L107 417L97 451H283Q298 451 309 443T320 419Q320 402 310 394T283 386H88Z" />
<glyph unicode="&#xb3;" glyph-name="uni00B3" horiz-adv-x="366" d="M183 378Q123 378 84 413T45 501Q45 517 54 527T80 538Q95 538 102 528T110 501Q110 475 130 458T182 440Q209 440 228 456T248 498Q248 526 232 544T192 562Q173 562 163 570T152 593Q152
626 187 626Q212 626 225 638T239 677Q239 699 223 713T179 728Q148 728 131 714T110 679Q108 667 100 658T82 649Q67 649 58 658T48 682Q48 713 65 738T112 777T178 792Q231 792 267 761T303 680Q303 653 287 629T245 594Q277 583 296 558T315 497Q315 462 298
436T251 394T183 378Z" />
<glyph unicode="&#xb4;" glyph-name="acute" horiz-adv-x="273" d="M85 592Q68 592 57 603T46 631Q46 646 55 657L168 770Q179 781 195 781Q212 781 223 770T234 741Q234 725 223 715L111 602Q101 592 85 592Z" />
<glyph unicode="&#xb5;" glyph-name="uni00B5" horiz-adv-x="677" d="M336 -6Q267 -6 217 27T141 119T114 249H80V509Q80 526 90 536T118 547Q135 547 146 537T157 509V249Q157 196 180 155T243 91T336 67Q387 67 426 85T487 137T510 213L555 211Q553 148 524
99T445 22T336 -6ZM118 -234Q101 -234 91 -224T80 -195V285H157V-195Q157 -213 146 -223T118 -234ZM548 0Q531 0 521 10T510 39V509Q510 526 520 536T548 547Q565 547 576 537T587 509V39Q587 21 576 11T548 0Z" />
<glyph unicode="&#xb6;" glyph-name="paragraph" horiz-adv-x="571" d="M279 0Q262 0 251 11T240 39V391Q183 392 139 418T70 489T45 586Q45 640 71 684T141 755T240 782H487Q503 782 514 771T526 742Q526 728 515 717T487 705V39Q487 22 476 11T448 0Q431 0 420
11T409 39V704H318V39Q318 22 307 11T279 0Z" />
<glyph unicode="&#xb7;" glyph-name="middot" horiz-adv-x="195" d="M96 313Q72 313 55 329T37 371Q37 396 54 413T96 430Q120 430 136 413T153 371Q153 347 137 330T96 313Z" />
<glyph unicode="&#xb8;" glyph-name="cedilla" horiz-adv-x="313" d="M153 -233Q99 -233 65 -211T31 -159Q31 -144 42 -133T68 -121Q80 -121 88 -127T103 -143Q110 -154 122 -160T154 -167Q176 -167 191 -157T207 -129Q207 -110 195 -99T155 -81Q131 -75 121 -64T121
-26L137 15Q147 45 181 45Q200 45 209 32T211 0L196 -36Q248 -49 268 -72T289 -129Q289 -157 271 -180T223 -218T153 -233Z" />
<glyph unicode="&#xb9;" glyph-name="uni00B9" horiz-adv-x="274" d="M176 386Q159 386 151 396T142 425V701L80 680Q60 674 44 676T22 693Q16 709 24 720T47 737L156 775Q181 784 195 776T210 741V425Q210 407 202 397T176 386Z" />
<glyph unicode="&#xba;" glyph-name="ordmasculine" horiz-adv-x="472" d="M236 398Q180 398 136 424T66 494T40 594Q40 650 65 694T135 764T236 790Q292 790 336 765T406 695T432 594Q432 538 407 494T337 424T236 398ZM236 473Q288 473 323 507T358 594Q358
647 323 681T236 716Q184 716 149 682T114 594Q114 542 149 508T236 473Z" />
<glyph unicode="&#xbb;" glyph-name="guillemotright" horiz-adv-x="469" d="M277 0Q260 0 249 11T238 39Q238 48 241 55L350 273L241 491Q240 495 239 499T238 508Q238 524 249 535T277 546Q301 546 313 522L428 292Q430 287 431 283T433 273Q433 268 432 263T427
252L313 24Q306 12 298 6T277 0ZM78 0Q62 0 51 11T40 39Q40 48 43 55L151 273L43 491Q42 495 41 499T39 508Q39 524 50 535T78 546Q102 546 114 522L229 292Q231 287 232 283T234 273Q234 263 228 252L114 24Q108 12 99 6T78 0Z" />
<glyph unicode="&#xbc;" glyph-name="onequarter" horiz-adv-x="764" d="M176 386Q159 386 151 396T142 425V701L80 680Q60 674 44 676T22 693Q16 709 24 720T47 737L156 775Q181 784 195 776T210 741V425Q210 407 202 397T176 386ZM139 0Q120 0 112 16T115 49L584
768Q591 778 599 782T616 787Q636 787 644 770T639 732L170 20Q157 0 139 0ZM623 -4Q607 -4 599 4T590 28V85H430Q413 85 403 94T393 118Q393 133 405 149L586 383Q593 392 602 396T621 401Q635 401 646 392T657 368V145H692Q706 145 714 137T723 115Q723 100 715
93T692 85H657V28Q657 13 649 5T623 -4ZM474 145H592V301L474 145Z" />
<glyph unicode="&#xbd;" glyph-name="onehalf" horiz-adv-x="812" d="M176 386Q159 386 151 396T142 425V701L80 680Q60 674 44 676T22 693Q16 709 24 720T47 737L156 775Q181 784 195 776T210 741V425Q210 407 202 397T176 386ZM169 0Q150 0 142 16T145 49L614
768Q621 778 629 782T646 787Q666 787 674 770T669 732L200 20Q187 0 169 0ZM546 0Q529 0 519 10T509 37Q509 45 511 51T518 63L677 235Q689 247 694 259T699 285Q699 310 681 327T636 344Q602 344 582 325T562 278Q562 262 555 252T531 241Q517 241 509 252T501
278Q501 333 539 369T637 406Q694 406 729 371T765 284Q765 252 747 229T711 186L565 31L555 65H741Q756 65 767 57T778 33Q778 16 768 8T741 0H546Z" />
<glyph unicode="&#xbe;" glyph-name="threequarters" horiz-adv-x="837" d="M183 378Q123 378 84 413T45 501Q45 517 54 527T80 538Q95 538 102 528T110 501Q110 475 130 458T182 440Q209 440 228 456T248 498Q248 526 232 544T192 562Q173 562 163 570T152 593Q152
626 187 626Q212 626 225 638T239 677Q239 699 223 713T179 728Q148 728 131 714T110 679Q108 667 100 658T82 649Q67 649 58 658T48 682Q48 713 65 738T112 777T178 792Q231 792 267 761T303 680Q303 653 287 629T245 594Q277 583 296 558T315 497Q315 462 298
436T251 394T183 378ZM186 0Q167 0 159 16T162 49L631 768Q638 778 646 782T663 787Q683 787 691 770T686 732L217 20Q204 0 186 0ZM691 -4Q675 -4 667 4T658 28V85H498Q481 85 471 94T461 118Q461 133 473 149L654 383Q661 392 670 396T689 401Q703 401 714 392T725
368V145H760Q774 145 782 137T791 115Q791 100 783 93T760 85H725V28Q725 13 717 5T691 -4ZM542 145H660V301L542 145Z" />
<glyph unicode="&#xbf;" glyph-name="questiondown" horiz-adv-x="547" d="M271 444Q288 444 299 433T310 404Q310 364 291 318T236 239Q205 210 177 183T132 123T114 40Q114 1 133 -31T186 -83T267 -102Q317 -102 353 -82T408 -25T428 58Q428 75 438 85T466 96Q483
96 494 86T505 58Q505 -11 475 -63T392 -146T267 -176Q201 -176 149 -148T67 -70T37 44Q37 100 57 139T109 210T181 279Q212 307 222 342T232 404Q232 422 243 433T271 444ZM271 621Q296 621 312 604T329 563Q329 538 312 521T271 504Q247 504 230 521T212 563Q212
587 229 604T271 621Z" />
<glyph unicode="&#xc0;" glyph-name="Agrave" horiz-adv-x="703" d="M57 0Q34 0 24 19T22 56L316 754Q327 781 354 781Q380 781 391 754L686 55Q695 36 684 18T651 0Q639 0 630 6T614 24L339 691H370L93 24Q88 12 79 6T57 0ZM123 186L153 253H559L589 186H123ZM351
870Q336 870 325 881L212 993Q202 1005 202 1020Q202 1037 213 1048T240 1060Q256 1060 268 1048L380 935Q390 927 390 910Q390 893 379 882T351 870Z" />
<glyph unicode="&#xc1;" glyph-name="Aacute" horiz-adv-x="703" d="M57 0Q34 0 24 19T22 56L316 754Q327 781 354 781Q380 781 391 754L686 55Q695 36 684 18T651 0Q639 0 630 6T614 24L339 691H370L93 24Q88 12 79 6T57 0ZM123 186L153 253H559L589 186H123ZM345
864Q329 864 318 875T306 903Q306 919 315 929L428 1042Q439 1053 455 1053Q472 1053 483 1042T494 1013Q494 1006 492 999T483 987L371 874Q361 864 345 864Z" />
<glyph unicode="&#xc2;" glyph-name="Acircumflex" horiz-adv-x="703" d="M57 0Q34 0 24 19T22 56L316 754Q327 781 354 781Q380 781 391 754L686 55Q695 36 684 18T651 0Q639 0 630 6T614 24L339 691H370L93 24Q88 12 79 6T57 0ZM123 186L153 253H559L589 186H123ZM236
868Q219 868 208 877T196 903Q196 924 215 937L333 1015Q341 1020 352 1020Q358 1020 363 1019T372 1015L489 937Q508 924 508 903Q508 888 497 878T469 868Q462 868 457 870T445 876L352 940L259 876Q248 868 236 868Z" />
<glyph unicode="&#xc3;" glyph-name="Atilde" horiz-adv-x="703" d="M57 0Q34 0 24 19T22 56L316 754Q327 781 354 781Q380 781 391 754L686 55Q695 36 684 18T651 0Q639 0 630 6T614 24L339 691H370L93 24Q88 12 79 6T57 0ZM123 186L153 253H559L589 186H123ZM416
876Q391 876 371 887T338 913Q324 927 315 933T293 940Q281 940 273 930T255 903Q248 890 236 885T210 885Q196 890 192 903T194 930Q212 969 235 986T289 1004Q318 1004 335 992T368 966Q384 952 393 947T409 942Q423 942 434 966Q441 980 454 986T479 988Q495
982 500 969T499 942Q482 906 462 891T416 876Z" />
<glyph unicode="&#xc4;" glyph-name="Adieresis" horiz-adv-x="703" d="M57 0Q34 0 24 19T22 56L316 754Q327 781 354 781Q380 781 391 754L686 55Q695 36 684 18T651 0Q639 0 630 6T614 24L339 691H370L93 24Q88 12 79 6T57 0ZM123 186L153 253H559L589 186H123ZM248
881Q224 881 209 896T193 936Q193 958 208 974T248 991Q271 991 287 975T303 936Q303 912 287 897T248 881ZM457 881Q433 881 418 896T402 936Q402 958 417 974T457 991Q480 991 496 975T512 936Q512 912 496 897T457 881Z" />
<glyph unicode="&#xc5;" glyph-name="Aring" horiz-adv-x="703" d="M57 0Q34 0 24 19T22 56L316 754Q327 781 354 781Q380 781 391 754L686 55Q695 36 684 18T651 0Q639 0 630 6T614 24L339 691H370L93 24Q88 12 79 6T57 0ZM123 186L153 253H559L589 186H123ZM352
827Q311 827 283 855T254 925Q254 967 283 995T352 1023Q394 1023 422 995T450 925Q450 884 423 856T352 827ZM352 872Q375 872 390 887T405 925Q405 948 390 963T352 978Q330 978 315 963T300 925Q300 903 315 888T352 872Z" />
<glyph unicode="&#xc6;" glyph-name="AE" horiz-adv-x="960" d="M59 0Q43 0 33 9T20 31T24 56L443 751Q452 766 464 773T496 781H877Q893 781 904 771T915 743Q915 728 904 717T877 706H522V430H760Q776 430 787 419T798 392Q798 376 787 365T760 354H522V75H877Q893
75 904 64T915 38Q915 21 904 11T877 0H483Q466 0 455 11T444 39V186H191L95 24Q83 0 59 0ZM232 253H444V652L467 650L232 253Z" />
<glyph unicode="&#xc7;" glyph-name="Ccedilla" horiz-adv-x="771" d="M451 -10Q370 -10 300 21T176 107T92 235T62 391Q62 473 91 545T174 673T298 759T451 791Q523 791 582 770T696 703Q705 696 706 687T704 669T692 656Q690 648 682 644T664 641T643 650Q604
684 558 700T451 717Q386 717 330 691T230 620T163 516T138 391Q138 323 162 264T230 160T329 90T451 64Q506 64 555 82T648 134Q660 144 673 142T697 130T707 104Q707 96 705 90T696 76Q645 29 582 10T451 -10ZM438 -233Q384 -233 350 -210T316 -159Q316 -144
327 -133T353 -122Q364 -122 372 -127T388 -143Q396 -154 408 -160T439 -167Q462 -167 477 -157T492 -129Q492 -110 481 -99T440 -81Q416 -76 406 -65T406 -26L422 15Q427 29 437 37T466 45Q485 45 494 32T496 0L481 -36Q533 -49 553 -72T574 -129Q574 -157 556
-180T508 -218T438 -233Z" />
<glyph unicode="&#xc8;" glyph-name="Egrave" horiz-adv-x="692" d="M139 0Q122 0 111 11T100 39V742Q100 759 111 770T139 781H608Q624 781 635 771T647 743Q647 728 636 717T608 706H178V430H491Q508 430 519 419T530 392Q530 376 519 365T491 354H178V75H608Q624
75 635 64T647 38Q647 21 636 11T608 0H139ZM380 870Q365 870 354 881L241 993Q231 1005 231 1020Q231 1037 242 1048T269 1060Q285 1060 297 1048L409 935Q419 927 419 910Q419 893 408 882T380 870Z" />
<glyph unicode="&#xc9;" glyph-name="Eacute" horiz-adv-x="692" d="M139 0Q122 0 111 11T100 39V742Q100 759 111 770T139 781H608Q624 781 635 771T647 743Q647 728 636 717T608 706H178V430H491Q508 430 519 419T530 392Q530 376 519 365T491 354H178V75H608Q624
75 635 64T647 38Q647 21 636 11T608 0H139ZM373 864Q357 864 346 875T334 903Q334 919 343 929L456 1042Q467 1053 483 1053Q500 1053 511 1042T522 1013Q522 1006 520 999T511 987L399 874Q389 864 373 864Z" />
<glyph unicode="&#xca;" glyph-name="Ecircumflex" horiz-adv-x="692" d="M139 0Q122 0 111 11T100 39V742Q100 759 111 770T139 781H608Q624 781 635 771T647 743Q647 728 636 717T608 706H178V430H491Q508 430 519 419T530 392Q530 376 519 365T491 354H178V75H608Q624
75 635 64T647 38Q647 21 636 11T608 0H139ZM265 868Q248 868 237 877T225 903Q225 924 244 937L362 1015Q370 1020 381 1020Q387 1020 392 1019T401 1015L518 937Q537 924 537 903Q537 888 526 878T498 868Q491 868 486 870T474 876L381 940L288 876Q277 868 265
868Z" />
<glyph unicode="&#xcb;" glyph-name="Edieresis" horiz-adv-x="692" d="M139 0Q122 0 111 11T100 39V742Q100 759 111 770T139 781H608Q624 781 635 771T647 743Q647 728 636 717T608 706H178V430H491Q508 430 519 419T530 392Q530 376 519 365T491 354H178V75H608Q624
75 635 64T647 38Q647 21 636 11T608 0H139ZM276 881Q252 881 237 896T221 936Q221 958 236 974T276 991Q299 991 315 975T331 936Q331 912 315 897T276 881ZM485 881Q461 881 446 896T430 936Q430 958 445 974T485 991Q508 991 524 975T540 936Q540 912 524 897T485
881Z" />
<glyph unicode="&#xcc;" glyph-name="Igrave" horiz-adv-x="278" d="M139 0Q122 0 111 11T100 39V742Q100 759 111 770T139 781Q156 781 167 770T178 742V39Q178 22 167 11T139 0ZM138 870Q123 870 112 881L-1 993Q-11 1005 -11 1020Q-11 1037 0 1048T27 1060Q43
1060 55 1048L167 935Q177 927 177 910Q177 893 166 882T138 870Z" />
<glyph unicode="&#xcd;" glyph-name="Iacute" horiz-adv-x="278" d="M139 0Q122 0 111 11T100 39V742Q100 759 111 770T139 781Q156 781 167 770T178 742V39Q178 22 167 11T139 0ZM132 864Q116 864 105 875T93 903Q93 919 102 929L215 1042Q226 1053 242 1053Q259
1053 270 1042T281 1013Q281 1006 279 999T270 987L158 874Q148 864 132 864Z" />
<glyph unicode="&#xce;" glyph-name="Icircumflex" horiz-adv-x="278" d="M139 0Q122 0 111 11T100 39V742Q100 759 111 770T139 781Q156 781 167 770T178 742V39Q178 22 167 11T139 0ZM23 868Q6 868 -5 877T-17 903Q-17 924 2 937L120 1015Q128 1020 139 1020Q145
1020 150 1019T159 1015L276 937Q295 924 295 903Q295 888 284 878T256 868Q249 868 244 870T232 876L139 940L46 876Q35 868 23 868Z" />
<glyph unicode="&#xcf;" glyph-name="Idieresis" horiz-adv-x="278" d="M139 0Q122 0 111 11T100 39V742Q100 759 111 770T139 781Q156 781 167 770T178 742V39Q178 22 167 11T139 0ZM35 881Q11 881 -4 896T-20 936Q-20 958 -5 974T35 991Q58 991 74 975T90 936Q90
912 74 897T35 881ZM244 881Q220 881 205 896T189 936Q189 958 204 974T244 991Q267 991 283 975T299 936Q299 912 283 897T244 881Z" />
<glyph unicode="&#xd0;" glyph-name="Eth" horiz-adv-x="770" d="M36 357Q20 357 10 366T0 391Q0 407 10 416T36 425H328Q344 425 354 416T365 391Q365 375 355 366T328 357H36ZM139 0Q122 0 111 11T100 39V742Q100 759 111 770T139 781H319Q405 781 476 753T600
672T680 548T709 391Q709 305 681 234T600 110T477 29T319 0H139ZM178 70H319Q411 70 481 111T592 225T632 391Q632 484 592 556T482 670T319 711H178V70Z" />
<glyph unicode="&#xd1;" glyph-name="Ntilde" horiz-adv-x="825" d="M139 0Q122 0 111 11T100 39V742Q100 759 111 770T139 781Q157 781 169 767L647 139V742Q647 759 658 770T686 781Q702 781 713 770T725 742V39Q725 22 714 11T686 0Q678 0 670 3T657 13L178
641V39Q178 22 167 11T139 0ZM518 861Q486 861 462 872T421 894Q400 907 387 912T361 917Q343 917 327 909T295 882Q286 869 272 865T245 868Q232 875 230 889T236 917Q261 949 294 966T363 984Q395 984 417 973T456 952Q476 940 488 934T517 928Q533 928 545 933T566
948Q577 959 588 963T613 960Q627 953 630 938T623 910Q583 861 518 861Z" />
<glyph unicode="&#xd2;" glyph-name="Ograve" horiz-adv-x="921" d="M461 -10Q374 -10 301 20T175 104T92 231T62 391Q62 477 91 550T174 677T301 761T461 791Q547 791 620 761T747 677T830 550T860 391Q860 304 831 231T747 104T620 20T461 -10ZM461 64Q530 64
589 88T691 157T759 261T783 391Q783 460 759 519T692 623T589 692T461 717Q391 717 332 693T230 624T162 520T138 391Q138 321 162 262T229 158T332 89T461 64ZM460 870Q445 870 434 881L321 993Q311 1005 311 1020Q311 1037 322 1048T349 1060Q365 1060 377 1048L489
935Q499 927 499 910Q499 893 488 882T460 870Z" />
<glyph unicode="&#xd3;" glyph-name="Oacute" horiz-adv-x="921" d="M461 -10Q374 -10 301 20T175 104T92 231T62 391Q62 477 91 550T174 677T301 761T461 791Q547 791 620 761T747 677T830 550T860 391Q860 304 831 231T747 104T620 20T461 -10ZM461 64Q530 64
589 88T691 157T759 261T783 391Q783 460 759 519T692 623T589 692T461 717Q391 717 332 693T230 624T162 520T138 391Q138 321 162 262T229 158T332 89T461 64ZM454 864Q438 864 427 875T415 903Q415 919 424 929L537 1042Q548 1053 564 1053Q581 1053 592 1042T603
1013Q603 1006 601 999T592 987L480 874Q470 864 454 864Z" />
<glyph unicode="&#xd4;" glyph-name="Ocircumflex" horiz-adv-x="921" d="M461 -10Q374 -10 301 20T175 104T92 231T62 391Q62 477 91 550T174 677T301 761T461 791Q547 791 620 761T747 677T830 550T860 391Q860 304 831 231T747 104T620 20T461 -10ZM461 64Q530
64 589 88T691 157T759 261T783 391Q783 460 759 519T692 623T589 692T461 717Q391 717 332 693T230 624T162 520T138 391Q138 321 162 262T229 158T332 89T461 64ZM345 868Q328 868 317 877T305 903Q305 924 324 937L442 1015Q450 1020 461 1020Q467 1020 472
1019T481 1015L598 937Q617 924 617 903Q617 888 606 878T578 868Q571 868 566 870T554 876L461 940L368 876Q357 868 345 868Z" />
<glyph unicode="&#xd5;" glyph-name="Otilde" horiz-adv-x="921" d="M461 -10Q374 -10 301 20T175 104T92 231T62 391Q62 477 91 550T174 677T301 761T461 791Q547 791 620 761T747 677T830 550T860 391Q860 304 831 231T747 104T620 20T461 -10ZM461 64Q530 64
589 88T691 157T759 261T783 391Q783 460 759 519T692 623T589 692T461 717Q391 717 332 693T230 624T162 520T138 391Q138 321 162 262T229 158T332 89T461 64ZM566 861Q534 861 510 872T469 894Q448 907 435 912T409 917Q391 917 375 909T343 882Q334 869 320
865T293 868Q280 875 278 889T284 917Q309 949 342 966T411 984Q443 984 465 973T504 952Q524 940 536 934T565 928Q581 928 593 933T614 948Q625 959 636 963T661 960Q675 953 678 938T671 910Q631 861 566 861Z" />
<glyph unicode="&#xd6;" glyph-name="Odieresis" horiz-adv-x="921" d="M461 -10Q374 -10 301 20T175 104T92 231T62 391Q62 477 91 550T174 677T301 761T461 791Q547 791 620 761T747 677T830 550T860 391Q860 304 831 231T747 104T620 20T461 -10ZM461 64Q530
64 589 88T691 157T759 261T783 391Q783 460 759 519T692 623T589 692T461 717Q391 717 332 693T230 624T162 520T138 391Q138 321 162 262T229 158T332 89T461 64ZM357 881Q333 881 318 896T302 936Q302 958 317 974T357 991Q380 991 396 975T412 936Q412 912
396 897T357 881ZM566 881Q542 881 527 896T511 936Q511 958 526 974T566 991Q589 991 605 975T621 936Q621 912 605 897T566 881Z" />
<glyph unicode="&#xd7;" glyph-name="multiply" horiz-adv-x="469" d="M78 156Q62 156 51 167T39 195Q39 212 49 223L179 352L49 481Q39 493 39 507Q39 524 50 535T78 547Q94 547 106 536L234 407L363 536Q374 547 391 547Q407 547 418 536T430 508Q430 492 419
481L290 352L419 223Q430 211 430 195Q430 178 419 167T391 156Q375 156 364 166L234 296L105 166Q94 156 78 156Z" />
<glyph unicode="&#xd8;" glyph-name="Oslash" horiz-adv-x="884" d="M89 0Q67 0 60 19T66 51L159 144L191 168L695 672L723 693L804 773Q812 781 825 781Q844 781 854 764T848 731L767 650L741 631L232 122L204 102L110 8Q102 0 89 0ZM461 -10Q374 -10 301 20T175
104T92 231T62 391Q62 477 91 550T174 677T301 761T461 791Q547 791 620 761T747 677T830 550T860 391Q860 304 831 231T747 104T620 20T461 -10ZM461 64Q530 64 589 88T691 157T759 261T783 391Q783 460 759 519T692 623T589 692T461 717Q391 717 332 693T230
624T162 520T138 391Q138 321 162 262T229 158T332 89T461 64Z" />
<glyph unicode="&#xd9;" glyph-name="Ugrave" horiz-adv-x="819" d="M411 -16Q320 -16 250 19T140 116T100 258V742Q100 759 111 770T139 781Q156 781 167 770T178 742V258Q178 199 207 154T290 84T411 58Q478 58 530 83T611 154T641 258V742Q641 759 652 770T680
781Q698 781 708 770T719 742V258Q719 178 680 116T571 19T411 -16ZM409 870Q394 870 383 881L270 993Q260 1005 260 1020Q260 1037 271 1048T298 1060Q314 1060 326 1048L438 935Q448 927 448 910Q448 893 437 882T409 870Z" />
<glyph unicode="&#xda;" glyph-name="Uacute" horiz-adv-x="819" d="M411 -16Q320 -16 250 19T140 116T100 258V742Q100 759 111 770T139 781Q156 781 167 770T178 742V258Q178 199 207 154T290 84T411 58Q478 58 530 83T611 154T641 258V742Q641 759 652 770T680
781Q698 781 708 770T719 742V258Q719 178 680 116T571 19T411 -16ZM403 864Q387 864 376 875T364 903Q364 919 373 929L486 1042Q497 1053 513 1053Q530 1053 541 1042T552 1013Q552 1006 550 999T541 987L429 874Q419 864 403 864Z" />
<glyph unicode="&#xdb;" glyph-name="Ucircumflex" horiz-adv-x="819" d="M411 -16Q320 -16 250 19T140 116T100 258V742Q100 759 111 770T139 781Q156 781 167 770T178 742V258Q178 199 207 154T290 84T411 58Q478 58 530 83T611 154T641 258V742Q641 759 652
770T680 781Q698 781 708 770T719 742V258Q719 178 680 116T571 19T411 -16ZM294 868Q277 868 266 877T254 903Q254 924 273 937L391 1015Q399 1020 410 1020Q416 1020 421 1019T430 1015L547 937Q566 924 566 903Q566 888 555 878T527 868Q520 868 515 870T503
876L410 940L317 876Q306 868 294 868Z" />
<glyph unicode="&#xdc;" glyph-name="Udieresis" horiz-adv-x="819" d="M411 -16Q320 -16 250 19T140 116T100 258V742Q100 759 111 770T139 781Q156 781 167 770T178 742V258Q178 199 207 154T290 84T411 58Q478 58 530 83T611 154T641 258V742Q641 759 652 770T680
781Q698 781 708 770T719 742V258Q719 178 680 116T571 19T411 -16ZM306 881Q282 881 267 896T251 936Q251 958 266 974T306 991Q329 991 345 975T361 936Q361 912 345 897T306 881ZM515 881Q491 881 476 896T460 936Q460 958 475 974T515 991Q538 991 554 975T570
936Q570 912 554 897T515 881Z" />
<glyph unicode="&#xdd;" glyph-name="Yacute" horiz-adv-x="648" d="M324 0Q308 0 297 11T285 39V289L13 720Q3 735 5 749T18 772T43 781Q55 781 62 776T76 762L346 327H304L573 760Q580 771 588 776T609 781Q623 781 632 772T643 748T636 720L363 289V39Q363
23 352 12T324 0ZM317 864Q301 864 290 875T278 903Q278 919 287 929L400 1042Q411 1053 427 1053Q444 1053 455 1042T466 1013Q466 1006 464 999T455 987L343 874Q333 864 317 864Z" />
<glyph unicode="&#xde;" glyph-name="Thorn" horiz-adv-x="612" d="M139 0Q122 0 111 11T100 39V742Q100 759 111 770T139 781Q156 781 167 770T178 742V644H339Q413 644 470 615T559 534T591 413Q591 346 559 295T470 214T339 185H178V39Q178 22 167 11T139 0ZM178
253H339Q390 253 430 274T492 331T515 413Q515 459 493 496T430 554T339 576H178V253Z" />
<glyph unicode="&#xdf;" glyph-name="germandbls" horiz-adv-x="547" d="M90 0Q74 0 63 11T52 38V578Q52 633 79 677T153 748T262 774Q317 774 360 752T428 690T453 598Q453 562 440 537T408 492T377 453T363 410Q363 388 378 369T415 330T460 287T498 235T514
167Q514 119 490 81T421 19T321 -4Q285 -4 251 8T194 40T171 82Q171 97 179 106T203 116Q219 116 227 109T245 93T273 76T325 69Q378 69 408 94T438 167Q438 197 423 221T386 266T342 308T305 353T290 408Q290 441 304 462T335 501T367 540T381 594Q381 647 348
674T260 702Q204 702 167 666T130 572V38Q130 22 119 11T90 0Z" />
<glyph unicode="&#xe0;" glyph-name="agrave" horiz-adv-x="677" d="M331 -5Q254 -5 193 31T97 131T61 273Q61 353 97 416T197 515T339 552Q418 552 480 516T579 416T617 273L586 249Q586 177 553 120T462 29T331 -5ZM339 65Q397 65 442 92T514 166T541 273Q541
333 515 380T443 454T339 482Q282 482 236 455T163 380T136 273Q136 214 163 167T236 92T339 65ZM578 0Q561 0 550 10T539 38V209L558 288L617 273V38Q617 21 606 11T578 0ZM338 636Q323 636 312 647L199 759Q189 771 189 786Q189 803 200 814T227 826Q243 826
255 814L367 701Q377 693 377 676Q377 659 366 648T338 636Z" />
<glyph unicode="&#xe1;" glyph-name="aacute" horiz-adv-x="677" d="M331 -5Q254 -5 193 31T97 131T61 273Q61 353 97 416T197 515T339 552Q418 552 480 516T579 416T617 273L586 249Q586 177 553 120T462 29T331 -5ZM339 65Q397 65 442 92T514 166T541 273Q541
333 515 380T443 454T339 482Q282 482 236 455T163 380T136 273Q136 214 163 167T236 92T339 65ZM578 0Q561 0 550 10T539 38V209L558 288L617 273V38Q617 21 606 11T578 0ZM332 630Q316 630 305 641T293 669Q293 685 302 695L415 808Q426 819 442 819Q459 819
470 808T481 779Q481 772 479 765T470 753L358 640Q348 630 332 630Z" />
<glyph unicode="&#xe2;" glyph-name="acircumflex" horiz-adv-x="677" d="M331 -5Q254 -5 193 31T97 131T61 273Q61 353 97 416T197 515T339 552Q418 552 480 516T579 416T617 273L586 249Q586 177 553 120T462 29T331 -5ZM339 65Q397 65 442 92T514 166T541 273Q541
333 515 380T443 454T339 482Q282 482 236 455T163 380T136 273Q136 214 163 167T236 92T339 65ZM578 0Q561 0 550 10T539 38V209L558 288L617 273V38Q617 21 606 11T578 0ZM223 634Q206 634 195 643T183 669Q183 690 202 703L320 781Q328 786 339 786Q345 786
350 785T359 781L476 703Q495 690 495 669Q495 654 484 644T456 634Q449 634 444 636T432 642L339 706L246 642Q235 634 223 634Z" />
<glyph unicode="&#xe3;" glyph-name="atilde" horiz-adv-x="677" d="M331 -5Q254 -5 193 31T97 131T61 273Q61 353 97 416T197 515T339 552Q418 552 480 516T579 416T617 273L586 249Q586 177 553 120T462 29T331 -5ZM339 65Q397 65 442 92T514 166T541 273Q541
333 515 380T443 454T339 482Q282 482 236 455T163 380T136 273Q136 214 163 167T236 92T339 65ZM578 0Q561 0 550 10T539 38V209L558 288L617 273V38Q617 21 606 11T578 0ZM445 627Q413 627 389 638T348 660Q327 673 314 678T288 683Q270 683 254 675T222 648Q213
635 199 631T172 634Q159 641 157 655T163 683Q188 715 221 732T290 750Q322 750 344 739T383 718Q403 706 415 700T444 694Q460 694 472 699T493 714Q504 725 515 729T540 726Q554 719 557 704T550 676Q510 627 445 627Z" />
<glyph unicode="&#xe4;" glyph-name="adieresis" horiz-adv-x="677" d="M331 -5Q254 -5 193 31T97 131T61 273Q61 353 97 416T197 515T339 552Q418 552 480 516T579 416T617 273L586 249Q586 177 553 120T462 29T331 -5ZM339 65Q397 65 442 92T514 166T541 273Q541
333 515 380T443 454T339 482Q282 482 236 455T163 380T136 273Q136 214 163 167T236 92T339 65ZM578 0Q561 0 550 10T539 38V209L558 288L617 273V38Q617 21 606 11T578 0ZM235 647Q211 647 196 662T180 702Q180 724 195 740T235 757Q258 757 274 741T290 702Q290
678 274 663T235 647ZM444 647Q420 647 405 662T389 702Q389 724 404 740T444 757Q467 757 483 741T499 702Q499 678 483 663T444 647Z" />
<glyph unicode="&#xe5;" glyph-name="aring" horiz-adv-x="677" d="M331 -5Q254 -5 193 31T97 131T61 273Q61 353 97 416T197 515T339 552Q418 552 480 516T579 416T617 273L586 249Q586 177 553 120T462 29T331 -5ZM339 65Q397 65 442 92T514 166T541 273Q541
333 515 380T443 454T339 482Q282 482 236 455T163 380T136 273Q136 214 163 167T236 92T339 65ZM578 0Q561 0 550 10T539 38V209L558 288L617 273V38Q617 21 606 11T578 0ZM339 593Q298 593 270 621T241 691Q241 733 270 761T339 789Q381 789 409 761T437 691Q437
650 410 622T339 593ZM339 638Q362 638 377 653T392 691Q392 714 377 729T339 744Q317 744 302 729T287 691Q287 669 302 654T339 638Z" />
<glyph unicode="&#xe6;" glyph-name="ae" horiz-adv-x="1096" d="M820 -5Q742 -5 682 30T588 129T553 273Q553 355 585 417T674 516T805 552Q881 552 937 518T1025 422T1056 283Q1056 267 1046 258T1020 248H595V312H1028L986 281Q986 339 964 385T902 457T805
483Q748 483 705 456T639 382T615 273Q615 212 641 165T714 91T820 64Q861 64 895 76T951 108Q962 117 976 118T1000 110Q1013 98 1013 84T1002 60Q969 32 918 14T820 -5ZM331 -5Q254 -5 193 31T97 131T61 273Q61 353 97 416T197 515T339 552Q418 552 480 516T579
416T617 273L586 249Q586 177 553 120T462 29T331 -5ZM339 65Q397 65 442 92T514 166T541 273Q541 333 515 380T443 454T339 482Q282 482 236 455T163 380T136 273Q136 214 163 167T236 92T339 65ZM578 0Q561 0 550 10T539 38V209L558 288L617 273V38Q617 21 606
11T578 0Z" />
<glyph unicode="&#xe7;" glyph-name="ccedilla" horiz-adv-x="596" d="M334 -5Q255 -5 194 31T97 131T61 273Q61 353 95 416T188 515T324 552Q385 552 436 528T527 456Q538 444 535 431T518 407Q507 399 494 401T470 416Q412 482 324 482Q268 482 226 455T160
381T136 273Q136 213 161 166T231 92T334 65Q373 65 405 75T463 108Q475 118 488 119T512 111Q524 100 525 86T516 62Q443 -5 334 -5ZM309 -233Q255 -233 221 -210T187 -159Q187 -144 198 -133T224 -122Q235 -122 243 -127T259 -143Q267 -154 279 -160T310 -167Q333
-167 348 -157T363 -129Q363 -110 352 -99T311 -81Q287 -76 277 -65T277 -26L293 15Q298 29 308 37T337 45Q356 45 365 32T367 0L352 -36Q404 -49 424 -72T445 -129Q445 -157 427 -180T379 -218T309 -233Z" />
<glyph unicode="&#xe8;" glyph-name="egrave" horiz-adv-x="614" d="M338 -5Q257 -5 195 30T97 129T61 273Q61 355 94 417T187 516T323 552Q399 552 455 518T543 422T574 283Q574 267 564 258T538 248H113V312H546L503 281Q504 339 482 385T420 457T323 483Q266
483 223 456T157 382T133 273Q133 212 159 165T232 91T338 64Q374 64 410 76T469 108Q480 117 494 117T518 110Q531 98 531 84T520 60Q487 32 436 14T338 -5ZM317 636Q302 636 291 647L178 759Q168 771 168 786Q168 803 179 814T206 826Q222 826 234 814L346 701Q356
693 356 676Q356 659 345 648T317 636Z" />
<glyph unicode="&#xe9;" glyph-name="eacute" horiz-adv-x="614" d="M338 -5Q257 -5 195 30T97 129T61 273Q61 355 94 417T187 516T323 552Q399 552 455 518T543 422T574 283Q574 267 564 258T538 248H113V312H546L503 281Q504 339 482 385T420 457T323 483Q266
483 223 456T157 382T133 273Q133 212 159 165T232 91T338 64Q374 64 410 76T469 108Q480 117 494 117T518 110Q531 98 531 84T520 60Q487 32 436 14T338 -5ZM311 630Q295 630 284 641T272 669Q272 685 281 695L394 808Q405 819 421 819Q438 819 449 808T460 779Q460
772 458 765T449 753L337 640Q327 630 311 630Z" />
<glyph unicode="&#xea;" glyph-name="ecircumflex" horiz-adv-x="614" d="M338 -5Q257 -5 195 30T97 129T61 273Q61 355 94 417T187 516T323 552Q399 552 455 518T543 422T574 283Q574 267 564 258T538 248H113V312H546L503 281Q504 339 482 385T420 457T323 483Q266
483 223 456T157 382T133 273Q133 212 159 165T232 91T338 64Q374 64 410 76T469 108Q480 117 494 117T518 110Q531 98 531 84T520 60Q487 32 436 14T338 -5ZM202 634Q185 634 174 643T162 669Q162 690 181 703L299 781Q307 786 318 786Q324 786 329 785T338 781L455
703Q474 690 474 669Q474 654 463 644T435 634Q428 634 423 636T411 642L318 706L225 642Q214 634 202 634Z" />
<glyph unicode="&#xeb;" glyph-name="edieresis" horiz-adv-x="614" d="M338 -5Q257 -5 195 30T97 129T61 273Q61 355 94 417T187 516T323 552Q399 552 455 518T543 422T574 283Q574 267 564 258T538 248H113V312H546L503 281Q504 339 482 385T420 457T323 483Q266
483 223 456T157 382T133 273Q133 212 159 165T232 91T338 64Q374 64 410 76T469 108Q480 117 494 117T518 110Q531 98 531 84T520 60Q487 32 436 14T338 -5ZM213 647Q189 647 174 662T158 702Q158 724 173 740T213 757Q236 757 252 741T268 702Q268 678 252 663T213
647ZM422 647Q398 647 383 662T367 702Q367 724 382 740T422 757Q445 757 461 741T477 702Q477 678 461 663T422 647Z" />
<glyph unicode="&#xec;" glyph-name="igrave" horiz-adv-x="289" d="M145 0Q127 0 117 10T106 39V508Q106 526 116 536T145 547Q162 547 172 537T183 508V39Q183 21 173 11T145 0ZM400 636Q385 636 374 647L261 759Q251 771 251 786Q251 803 262 814T289 826Q305
826 317 814L429 701Q439 693 439 676Q439 659 428 648T400 636Z" />
<glyph unicode="&#xed;" glyph-name="iacute" horiz-adv-x="289" d="M145 0Q127 0 117 10T106 39V508Q106 526 116 536T145 547Q162 547 172 537T183 508V39Q183 21 173 11T145 0ZM137 630Q121 630 110 641T98 669Q98 685 107 695L220 808Q231 819 247 819Q264
819 275 808T286 779Q286 772 284 765T275 753L163 640Q153 630 137 630Z" />
<glyph unicode="&#xee;" glyph-name="icircumflex" horiz-adv-x="289" d="M145 0Q127 0 117 10T106 39V508Q106 526 116 536T145 547Q162 547 172 537T183 508V39Q183 21 173 11T145 0ZM296 634Q281 634 271 643T260 669Q260 690 277 703L384 781Q391 786 401
786Q406 786 410 785T419 781L524 703Q541 690 541 669Q541 654 531 644T506 634Q500 634 495 636T484 642L401 706L317 642Q307 634 296 634Z" />
<glyph unicode="&#xef;" glyph-name="idieresis" horiz-adv-x="289" d="M50 670Q27 670 11 686T-6 726Q-6 748 10 764T50 780Q73 780 89 764T105 726Q105 702 89 686T50 670ZM239 670Q216 670 200 686T184 726Q184 748 200 764T239 780Q262 780 278 764T294 726Q294
702 278 686T239 670ZM145 0Q127 0 117 10T106 39V508Q106 526 116 536T145 547Q162 547 172 537T183 508V39Q183 21 173 11T145 0Z" />
<glyph unicode="&#xf0;" glyph-name="eth" horiz-adv-x="667" d="M327 -5Q249 -5 189 28T95 121T61 258Q61 334 94 393T185 485T319 518Q389 518 442 487T525 402T556 276H597Q597 194 563 131T467 31T327 -5ZM327 65Q384 65 428 89T497 157T522 258Q522 314 497
357T428 424T327 448Q271 448 228 424T161 357T136 258Q136 201 160 158T228 90T327 65ZM538 273V345Q537 428 521 488T468 591T372 668T225 730Q207 736 198 747T194 774Q199 790 213 792T244 790Q342 756 410 716T519 626T578 509T597 355V273H538ZM255 610Q244
615 241 624T244 646L334 823Q340 835 350 838T371 835Q383 828 385 818T383 798L293 621Q287 610 277 607T255 610Z" />
<glyph unicode="&#xf1;" glyph-name="ntilde" horiz-adv-x="677" d="M559 0Q542 0 531 11T520 38V298Q520 360 497 400T433 460T341 480Q292 480 253 461T190 409T167 334H112Q114 397 146 446T231 524T349 553Q420 553 476 524T564 437T597 298V38Q597 22 586
11T559 0ZM129 0Q111 0 101 10T90 38V508Q90 526 100 536T129 547Q146 547 156 537T167 508V38Q167 21 157 11T129 0ZM444 627Q412 627 388 638T347 660Q326 673 313 678T287 683Q269 683 253 675T221 648Q212 635 198 631T171 634Q158 641 156 655T162 683Q187
715 220 732T289 750Q321 750 343 739T382 718Q402 706 414 700T443 694Q459 694 471 699T492 714Q503 725 514 729T539 726Q553 719 556 704T549 676Q509 627 444 627Z" />
<glyph unicode="&#xf2;" glyph-name="ograve" horiz-adv-x="677" d="M339 -5Q259 -5 196 31T97 130T61 273Q61 354 97 417T196 516T339 552Q419 552 481 516T580 417T617 273Q617 193 581 130T482 31T339 -5ZM339 65Q397 65 443 92T515 166T541 273Q541 333 515
380T443 455T339 482Q281 482 235 455T163 381T136 273Q136 213 162 166T235 92T339 65ZM338 636Q323 636 312 647L199 759Q189 771 189 786Q189 803 200 814T227 826Q243 826 255 814L367 701Q377 693 377 676Q377 659 366 648T338 636Z" />
<glyph unicode="&#xf3;" glyph-name="oacute" horiz-adv-x="677" d="M339 -5Q259 -5 196 31T97 130T61 273Q61 354 97 417T196 516T339 552Q419 552 481 516T580 417T617 273Q617 193 581 130T482 31T339 -5ZM339 65Q397 65 443 92T515 166T541 273Q541 333 515
380T443 455T339 482Q281 482 235 455T163 381T136 273Q136 213 162 166T235 92T339 65ZM332 630Q316 630 305 641T293 669Q293 685 302 695L415 808Q426 819 442 819Q459 819 470 808T481 779Q481 772 479 765T470 753L358 640Q348 630 332 630Z" />
<glyph unicode="&#xf4;" glyph-name="ocircumflex" horiz-adv-x="677" d="M339 -5Q259 -5 196 31T97 130T61 273Q61 354 97 417T196 516T339 552Q419 552 481 516T580 417T617 273Q617 193 581 130T482 31T339 -5ZM339 65Q397 65 443 92T515 166T541 273Q541 333
515 380T443 455T339 482Q281 482 235 455T163 381T136 273Q136 213 162 166T235 92T339 65ZM223 634Q206 634 195 643T183 669Q183 690 202 703L320 781Q328 786 339 786Q345 786 350 785T359 781L476 703Q495 690 495 669Q495 654 484 644T456 634Q449 634 444
636T432 642L339 706L246 642Q235 634 223 634Z" />
<glyph unicode="&#xf5;" glyph-name="otilde" horiz-adv-x="677" d="M339 -5Q259 -5 196 31T97 130T61 273Q61 354 97 417T196 516T339 552Q419 552 481 516T580 417T617 273Q617 193 581 130T482 31T339 -5ZM339 65Q397 65 443 92T515 166T541 273Q541 333 515
380T443 455T339 482Q281 482 235 455T163 381T136 273Q136 213 162 166T235 92T339 65ZM445 627Q413 627 389 638T348 660Q327 673 314 678T288 683Q270 683 254 675T222 648Q213 635 199 631T172 634Q159 641 157 655T163 683Q188 715 221 732T290 750Q322 750
344 739T383 718Q403 706 415 700T444 694Q460 694 472 699T493 714Q504 725 515 729T540 726Q554 719 557 704T550 676Q510 627 445 627Z" />
<glyph unicode="&#xf6;" glyph-name="odieresis" horiz-adv-x="677" d="M339 -5Q259 -5 196 31T97 130T61 273Q61 354 97 417T196 516T339 552Q419 552 481 516T580 417T617 273Q617 193 581 130T482 31T339 -5ZM339 65Q397 65 443 92T515 166T541 273Q541 333
515 380T443 455T339 482Q281 482 235 455T163 381T136 273Q136 213 162 166T235 92T339 65ZM235 647Q211 647 196 662T180 702Q180 724 195 740T235 757Q258 757 274 741T290 702Q290 678 274 663T235 647ZM444 647Q420 647 405 662T389 702Q389 724 404 740T444
757Q467 757 483 741T499 702Q499 678 483 663T444 647Z" />
<glyph unicode="&#xf7;" glyph-name="divide" horiz-adv-x="469" d="M78 313Q62 313 51 324T39 352Q39 368 50 379T78 390H391Q407 390 418 379T430 352Q430 335 419 324T391 313H78ZM234 156Q214 156 200 170T185 205Q185 225 199 239T234 254Q255 254 268 240T282
205Q282 185 269 171T234 156ZM234 450Q214 450 200 464T185 498Q185 519 199 533T234 547Q255 547 268 533T282 498Q282 478 269 464T234 450Z" />
<glyph unicode="&#xf8;" glyph-name="oslash" horiz-adv-x="700" d="M92 -19Q72 -19 64 -1T70 33L144 107L176 129L506 458L527 481L586 539Q595 549 609 549Q624 549 631 540T639 518T631 497L567 434L547 415L216 86L191 67L114 -10Q105 -19 92 -19ZM356 -7Q276
-7 213 29T114 128T78 271Q78 352 114 415T213 514T356 550Q436 550 498 514T597 415T634 271Q634 191 598 128T499 29T356 -7ZM356 63Q414 63 460 90T532 164T558 271Q558 331 532 378T460 453T356 480Q298 480 252 453T180 379T153 271Q153 211 179 164T252 90T356
63Z" />
<glyph unicode="&#xf9;" glyph-name="ugrave" horiz-adv-x="677" d="M328 -6Q257 -6 201 23T113 110T80 249V509Q80 525 91 536T118 547Q135 547 146 536T157 509V249Q157 187 180 147T244 87T336 67Q385 67 424 86T487 138T510 213H565Q562 150 531 101T446 23T328
-6ZM548 0Q531 0 521 10T510 39V509Q510 526 520 536T548 547Q565 547 576 537T587 509V39Q587 21 576 11T548 0ZM338 636Q323 636 312 647L199 759Q189 771 189 786Q189 803 200 814T227 826Q243 826 255 814L367 701Q377 693 377 676Q377 659 366 648T338 636Z"
/>
<glyph unicode="&#xfa;" glyph-name="uacute" horiz-adv-x="677" d="M328 -6Q257 -6 201 23T113 110T80 249V509Q80 525 91 536T118 547Q135 547 146 536T157 509V249Q157 187 180 147T244 87T336 67Q385 67 424 86T487 138T510 213H565Q562 150 531 101T446 23T328
-6ZM548 0Q531 0 521 10T510 39V509Q510 526 520 536T548 547Q565 547 576 537T587 509V39Q587 21 576 11T548 0ZM332 630Q316 630 305 641T293 669Q293 685 302 695L415 808Q426 819 442 819Q459 819 470 808T481 779Q481 772 479 765T470 753L358 640Q348 630
332 630Z" />
<glyph unicode="&#xfb;" glyph-name="ucircumflex" horiz-adv-x="677" d="M328 -6Q257 -6 201 23T113 110T80 249V509Q80 525 91 536T118 547Q135 547 146 536T157 509V249Q157 187 180 147T244 87T336 67Q385 67 424 86T487 138T510 213H565Q562 150 531 101T446
23T328 -6ZM548 0Q531 0 521 10T510 39V509Q510 526 520 536T548 547Q565 547 576 537T587 509V39Q587 21 576 11T548 0ZM223 634Q206 634 195 643T183 669Q183 690 202 703L320 781Q328 786 339 786Q345 786 350 785T359 781L476 703Q495 690 495 669Q495 654
484 644T456 634Q449 634 444 636T432 642L339 706L246 642Q235 634 223 634Z" />
<glyph unicode="&#xfc;" glyph-name="udieresis" horiz-adv-x="677" d="M328 -6Q257 -6 201 23T113 110T80 249V509Q80 525 91 536T118 547Q135 547 146 536T157 509V249Q157 187 180 147T244 87T336 67Q385 67 424 86T487 138T510 213H565Q562 150 531 101T446
23T328 -6ZM548 0Q531 0 521 10T510 39V509Q510 526 520 536T548 547Q565 547 576 537T587 509V39Q587 21 576 11T548 0ZM234 647Q210 647 195 662T179 702Q179 724 194 740T234 757Q257 757 273 741T289 702Q289 678 273 663T234 647ZM443 647Q419 647 404 662T388
702Q388 724 403 740T443 757Q466 757 482 741T498 702Q498 678 482 663T443 647Z" />
<glyph unicode="&#xfd;" glyph-name="yacute" horiz-adv-x="548" d="M184 -238Q176 -238 166 -234Q132 -219 147 -186L470 526Q485 558 518 544Q552 530 537 497L213 -215Q203 -238 184 -238ZM295 17Q280 10 267 14T246 34L23 496Q16 511 21 524T41 544Q56 551
69 547T89 527L308 65Q316 50 313 37T295 17ZM273 630Q257 630 246 641T234 669Q234 685 243 695L356 808Q367 819 383 819Q400 819 411 808T422 779Q422 772 420 765T411 753L299 640Q289 630 273 630Z" />
<glyph unicode="&#xfe;" glyph-name="thorn" horiz-adv-x="707" d="M129 -234Q111 -234 101 -224T90 -195V742Q90 760 100 770T129 781Q146 781 156 771T167 742L162 315L134 298Q134 363 155 411T211 490T289 537T376 552Q454 552 515 517T611 418T646 273Q646
192 612 129T516 31T376 -5Q305 -5 251 27T167 115V-195Q167 -213 157 -223T129 -234ZM367 65Q427 65 472 91T544 165T570 273Q570 334 544 381T473 455T367 482Q308 482 263 456T192 382T166 273Q166 212 191 165T262 92T367 65Z" />
<glyph unicode="&#xff;" glyph-name="ydieresis" horiz-adv-x="548" d="M184 -238Q176 -238 166 -234Q132 -219 147 -186L470 526Q485 558 518 544Q552 530 537 497L213 -215Q203 -238 184 -238ZM295 17Q280 10 267 14T246 34L23 496Q16 511 21 524T41 544Q56
551 69 547T89 527L308 65Q316 50 313 37T295 17ZM176 647Q152 647 137 662T121 702Q121 724 136 740T176 757Q199 757 215 741T231 702Q231 678 215 663T176 647ZM385 647Q361 647 346 662T330 702Q330 724 345 740T385 757Q408 757 424 741T440 702Q440 678 424
663T385 647Z" />
<glyph unicode="&#x2013;" glyph-name="endash" horiz-adv-x="391" d="M-5 235Q-22 235 -33 246T-44 273Q-44 290 -33 301T-5 312H394Q410 312 421 301T433 273Q433 257 422 246T394 235H-5Z" />
<glyph unicode="&#x2014;" glyph-name="emdash" horiz-adv-x="938" d="M-9 235Q-25 235 -36 246T-47 273Q-47 290 -36 301T-9 312H949Q966 312 977 301T988 273Q988 257 977 246T949 235H-9Z" />
<glyph unicode="&#x2018;" glyph-name="quoteleft" horiz-adv-x="215" d="M154 815Q166 815 174 804T177 779Q162 744 159 720T158 679T164 645T168 609Q168 585 153 571T116 556Q91 556 76 577T61 636Q61 659 70 689T94 748T124 796T154 815Z" />
<glyph unicode="&#x2019;" glyph-name="quoteright" horiz-adv-x="167" d="M25 531Q13 531 5 542T2 567Q17 602 20 626T21 667T15 701T11 737Q11 761 26 775T63 790Q88 790 103 769T118 710Q118 687 109 657T85 598T55 550T25 531Z" />
<glyph unicode="&#x201a;" glyph-name="quotesinglbase" horiz-adv-x="234" d="M79 -165Q67 -165 59 -154T56 -129Q71 -94 74 -70T75 -29T69 5T65 41Q65 65 80 79T117 94Q142 94 157 73T172 14Q172 -9 163 -39T139 -98T109 -146T79 -165Z" />
<glyph unicode="&#x201c;" glyph-name="quotedblleft" horiz-adv-x="281" d="M110 815Q122 815 130 804T133 779Q118 744 115 720T114 679T120 645T124 609Q124 585 109 571T72 556Q47 556 32 577T17 636Q17 659 26 689T50 748T80 796T110 815ZM256 815Q268 815
276 804T279 779Q264 744 261 720T260 679T266 645T270 609Q270 585 255 571T218 556Q193 556 178 577T163 636Q163 659 172 689T196 748T226 796T256 815Z" />
<glyph unicode="&#x201d;" glyph-name="quotedblright" horiz-adv-x="279" d="M206 556Q185 556 170 570T155 609Q155 629 158 645T164 678T164 720T146 779Q140 793 148 804T169 815Q183 815 199 796T229 748T252 689T261 636Q261 599 247 578T206 556ZM62 556Q41
556 26 570T11 609Q11 629 14 645T20 678T20 720T2 779Q-4 793 4 804T25 815Q39 815 54 796T84 748T108 689T117 636Q117 599 103 578T62 556Z" />
<glyph unicode="&#x201e;" glyph-name="quotedblbase" horiz-adv-x="281" d="M312 -165Q300 -165 292 -154T289 -129Q304 -94 307 -70T308 -29T302 5T298 41Q298 65 313 79T350 94Q375 94 390 73T405 14Q405 -9 396 -39T372 -98T342 -146T312 -165ZM188 -165Q176
-165 168 -154T165 -129Q180 -94 183 -70T184 -29T178 5T174 41Q174 65 189 79T226 94Q251 94 266 73T281 14Q281 -9 272 -39T248 -98T218 -146T188 -165Z" />
<glyph unicode="&#x2022;" glyph-name="bullet" horiz-adv-x="391" d="M195 274Q162 274 136 290T94 332T78 391Q78 423 94 449T137 492T195 508Q226 508 253 492T296 449T312 391Q312 359 297 333T255 290T195 274Z" />
<glyph unicode="&#x2039;" glyph-name="guilsinglleft" horiz-adv-x="273" d="M195 0Q183 0 174 6T159 24L45 252Q42 258 41 263T39 273Q39 282 44 292L159 522Q171 546 195 546Q212 546 223 535T234 508Q234 498 231 491L122 273L231 55Q234 49 234 39Q234 22
223 11T195 0Z" />
<glyph unicode="&#x203a;" glyph-name="guilsinglright" horiz-adv-x="273" d="M78 0Q62 0 51 11T40 39Q40 48 43 55L151 273L43 491Q42 495 41 499T39 508Q39 524 50 535T78 546Q102 546 114 522L229 292Q231 287 232 283T234 273Q234 263 228 252L114 24Q108
12 99 6T78 0Z" />
</font>
</defs>
</svg>
